<mxfile host="app.diagrams.net" agent="Mozilla/5.0 (Windows NT 10.0; Win64; x64; rv:141.0) Gecko/20100101 Firefox/141.0" version="28.0.9">
  <diagram name="Page-1" id="8WruiDuPiLtp6eLqVUZg">
    <mxGraphModel dx="3307" dy="3006" grid="1" gridSize="10" guides="1" tooltips="1" connect="1" arrows="1" fold="1" page="1" pageScale="1" pageWidth="1654" pageHeight="2336" math="0" shadow="0">
      <root>
        <mxCell id="0" />
        <mxCell id="1" parent="0" />
        <mxCell id="idwGcyg0NZIY-Tr2IAWl-152" style="edgeStyle=orthogonalEdgeStyle;rounded=0;orthogonalLoop=1;jettySize=auto;html=1;entryX=0.538;entryY=0.736;entryDx=0;entryDy=0;entryPerimeter=0;endArrow=none;endFill=0;dashed=1;" parent="1" source="idwGcyg0NZIY-Tr2IAWl-144" target="idwGcyg0NZIY-Tr2IAWl-148" edge="1">
          <mxGeometry relative="1" as="geometry">
            <Array as="points">
              <mxPoint x="4595" y="270" />
              <mxPoint x="4060" y="270" />
            </Array>
          </mxGeometry>
        </mxCell>
        <mxCell id="Q99kiR7ui4vJTKgvzofk-28" style="edgeStyle=orthogonalEdgeStyle;rounded=0;orthogonalLoop=1;jettySize=auto;html=1;entryX=0.6;entryY=0.92;entryDx=0;entryDy=0;entryPerimeter=0;endArrow=none;endFill=0;dashed=1;" parent="1" source="idwGcyg0NZIY-Tr2IAWl-140" target="idwGcyg0NZIY-Tr2IAWl-148" edge="1">
          <mxGeometry relative="1" as="geometry">
            <Array as="points">
              <mxPoint x="4355" y="270" />
              <mxPoint x="4060" y="270" />
            </Array>
          </mxGeometry>
        </mxCell>
        <mxCell id="8gXxlpxFFR-SjeP47l6D-35" value="1...*" style="endArrow=open;html=1;endSize=12;startArrow=diamondThin;startSize=14;startFill=1;edgeStyle=orthogonalEdgeStyle;align=left;verticalAlign=bottom;rounded=0;exitX=0.5;exitY=1;exitDx=0;exitDy=0;" parent="1" source="8gXxlpxFFR-SjeP47l6D-34" target="8gXxlpxFFR-SjeP47l6D-1" edge="1">
          <mxGeometry x="-1" y="3" relative="1" as="geometry">
            <mxPoint x="910" y="20" as="sourcePoint" />
            <mxPoint x="1070" y="20" as="targetPoint" />
          </mxGeometry>
        </mxCell>
        <mxCell id="idwGcyg0NZIY-Tr2IAWl-22" style="edgeStyle=orthogonalEdgeStyle;rounded=0;orthogonalLoop=1;jettySize=auto;html=1;entryX=1;entryY=0.5;entryDx=0;entryDy=0;dashed=1;endArrow=open;endFill=0;" parent="1" source="8gXxlpxFFR-SjeP47l6D-1" target="idwGcyg0NZIY-Tr2IAWl-17" edge="1">
          <mxGeometry relative="1" as="geometry" />
        </mxCell>
        <mxCell id="8gXxlpxFFR-SjeP47l6D-1" value="&lt;p style=&quot;margin:0px;margin-top:4px;text-align:center;&quot;&gt;&amp;lt;&amp;lt;interface&amp;gt;&amp;gt;&lt;/p&gt;&lt;p style=&quot;margin:0px;margin-top:4px;text-align:center;&quot;&gt;&lt;b&gt;&lt;i&gt;Scene&lt;/i&gt;&lt;/b&gt;&lt;/p&gt;&lt;hr size=&quot;1&quot; style=&quot;border-style:solid;&quot;&gt;&lt;div&gt;&amp;nbsp;# camera_ : Camera2D&lt;/div&gt;&lt;div&gt;&amp;nbsp;# mouse_world_pos_ : Vector2&lt;/div&gt;&lt;div&gt;&amp;nbsp;# isVisible: bool&lt;/div&gt;&lt;hr size=&quot;1&quot; style=&quot;border-style:solid;&quot;&gt;&lt;p style=&quot;margin:0px;margin-left:4px;&quot;&gt;+ &amp;lt;&amp;lt;pure virtual&amp;gt;&amp;gt; Init(): void&lt;/p&gt;&lt;p style=&quot;margin:0px;margin-left:4px;&quot;&gt;+ &amp;lt;&amp;lt;pure virtual&amp;gt;&amp;gt; Draw(): void&lt;/p&gt;&lt;p style=&quot;margin:0px;margin-left:4px;&quot;&gt;+ &amp;lt;&amp;lt;pure virtual&amp;gt;&amp;gt; Update(): void&lt;/p&gt;&lt;p style=&quot;margin:0px;margin-left:4px;&quot;&gt;+ &amp;lt;&amp;lt;pure virtual&amp;gt;&amp;gt; Clean(): void&lt;/p&gt;&lt;p style=&quot;margin:0px;margin-left:4px;&quot;&gt;+ &amp;lt;&amp;lt;pure virtual&amp;gt;&amp;gt; SceneType(): Scene&lt;/p&gt;" style="verticalAlign=top;align=left;overflow=fill;html=1;whiteSpace=wrap;fillColor=#dae8fc;strokeColor=#6c8ebf;" parent="1" vertex="1">
          <mxGeometry x="980" y="40" width="260" height="190" as="geometry" />
        </mxCell>
        <mxCell id="8gXxlpxFFR-SjeP47l6D-2" value="&lt;p style=&quot;margin:0px;margin-top:4px;text-align:center;&quot;&gt;&lt;b&gt;GameScene&lt;/b&gt;&lt;/p&gt;&lt;hr size=&quot;1&quot; style=&quot;border-style:solid;&quot;&gt;&lt;div&gt;&amp;nbsp;- player_character: Character&lt;/div&gt;&lt;div&gt;- game_manager_ :GameManaging&lt;/div&gt;&lt;div&gt;- input_command_: Command&lt;/div&gt;&lt;div&gt;&lt;u&gt;- collision_handler_: CollisionHandler&lt;/u&gt;&lt;/div&gt;&lt;br&gt;&lt;hr size=&quot;1&quot; style=&quot;border-style:solid;&quot;&gt;&lt;div&gt;- UpdateCamera(character Character): void&lt;/div&gt;&lt;div&gt;+ GetGameManager(): GameManager&lt;/div&gt;&lt;div&gt;+ &amp;lt;&amp;lt;override&amp;gt;&amp;gt; Init(): void&lt;/div&gt;&lt;div&gt;+ &amp;lt;&amp;lt;override&amp;gt;&amp;gt; Draw(): void&lt;/div&gt;&lt;div&gt;+ &amp;lt;&amp;lt;override&amp;gt;&amp;gt; Update(): void&lt;/div&gt;&lt;div&gt;+ &amp;lt;&amp;lt;overrride&amp;gt;&amp;gt; Resume(): void&lt;/div&gt;&lt;div&gt;+ &amp;lt;&amp;lt;override&amp;gt;&amp;gt; GetType(): SceneType&lt;/div&gt;&lt;div&gt;&lt;br&gt;&lt;/div&gt;&lt;div&gt;&lt;br&gt;&lt;/div&gt;" style="verticalAlign=top;align=left;overflow=fill;html=1;whiteSpace=wrap;fillColor=#dae8fc;strokeColor=#6c8ebf;" parent="1" vertex="1">
          <mxGeometry x="-30" y="368" width="260" height="230" as="geometry" />
        </mxCell>
        <mxCell id="8gXxlpxFFR-SjeP47l6D-5" value="&lt;p style=&quot;margin:0px;margin-top:4px;text-align:center;&quot;&gt;&lt;b&gt;LoadScene&lt;/b&gt;&lt;/p&gt;&lt;hr size=&quot;1&quot; style=&quot;border-style:solid;&quot;&gt;&lt;div&gt;- path: string&lt;/div&gt;&lt;hr size=&quot;1&quot; style=&quot;border-style:solid;&quot;&gt;&lt;br&gt;&lt;div&gt;+ &amp;lt;&amp;lt;override&amp;gt;&amp;gt; Init(): void&lt;/div&gt;&lt;div&gt;+ &amp;lt;&amp;lt;override&amp;gt;&amp;gt; Draw(): void&lt;/div&gt;&lt;div&gt;+ &amp;lt;&amp;lt;override&amp;gt;&amp;gt; Update(): void&lt;/div&gt;&lt;div&gt;+ &amp;lt;&amp;lt;overrride&amp;gt;&amp;gt; Resume(): void&lt;/div&gt;&lt;div&gt;+ &amp;lt;&amp;lt;override&amp;gt;&amp;gt; GetType(): SceneType&lt;/div&gt;&lt;div&gt;&lt;br&gt;&lt;/div&gt;&lt;div&gt;&lt;br&gt;&lt;/div&gt;" style="verticalAlign=top;align=left;overflow=fill;html=1;whiteSpace=wrap;fillColor=#dae8fc;strokeColor=#6c8ebf;" parent="1" vertex="1">
          <mxGeometry x="240" y="368" width="180" height="200" as="geometry" />
        </mxCell>
        <mxCell id="8gXxlpxFFR-SjeP47l6D-33" style="edgeStyle=orthogonalEdgeStyle;rounded=0;orthogonalLoop=1;jettySize=auto;html=1;endArrow=none;endFill=0;" parent="1" source="8gXxlpxFFR-SjeP47l6D-8" target="8gXxlpxFFR-SjeP47l6D-32" edge="1">
          <mxGeometry relative="1" as="geometry" />
        </mxCell>
        <mxCell id="idwGcyg0NZIY-Tr2IAWl-5" style="edgeStyle=orthogonalEdgeStyle;rounded=0;orthogonalLoop=1;jettySize=auto;html=1;exitX=1;exitY=0.75;exitDx=0;exitDy=0;entryX=0;entryY=0.5;entryDx=0;entryDy=0;dashed=1;endArrow=open;endFill=0;" parent="1" source="8gXxlpxFFR-SjeP47l6D-8" target="idwGcyg0NZIY-Tr2IAWl-1" edge="1">
          <mxGeometry relative="1" as="geometry" />
        </mxCell>
        <mxCell id="8gXxlpxFFR-SjeP47l6D-8" value="&lt;p style=&quot;margin:0px;margin-top:4px;text-align:center;&quot;&gt;&lt;b&gt;EditorScene&lt;/b&gt;&lt;/p&gt;&lt;hr size=&quot;1&quot; style=&quot;border-style:solid;&quot;&gt;&lt;div&gt;- map_: Map&lt;/div&gt;&lt;div&gt;- cur_layer_: MapLayer&lt;/div&gt;&lt;div&gt;- buttons_: vector&amp;lt;Buttons&amp;gt;&lt;/div&gt;&lt;hr size=&quot;1&quot; style=&quot;border-style:solid;&quot;&gt;&lt;div&gt;- LoadMap(): void&lt;/div&gt;&lt;div&gt;- SaveMap(): void&lt;/div&gt;&lt;div&gt;- DrawMap(): void&lt;/div&gt;&lt;div&gt;- PlaceBlock(): void&lt;/div&gt;&lt;div&gt;- CreateButtons(): void&lt;/div&gt;&lt;div&gt;&lt;div&gt;+ &amp;lt;&amp;lt;override&amp;gt;&amp;gt; Init(): void&lt;/div&gt;&lt;div&gt;+ &amp;lt;&amp;lt;override&amp;gt;&amp;gt; Draw(): void&lt;/div&gt;&lt;div&gt;+ &amp;lt;&amp;lt;override&amp;gt;&amp;gt; Update(): void&lt;/div&gt;&lt;div&gt;+ &amp;lt;&amp;lt;overrride&amp;gt;&amp;gt; Resume(): void&lt;/div&gt;&lt;div&gt;+ &amp;lt;&amp;lt;override&amp;gt;&amp;gt; GetType(): SceneType&lt;/div&gt;&lt;br&gt;&lt;/div&gt;&lt;div&gt;&lt;br&gt;&lt;/div&gt;&lt;div&gt;&lt;br&gt;&lt;/div&gt;" style="verticalAlign=top;align=left;overflow=fill;html=1;whiteSpace=wrap;fillColor=#dae8fc;strokeColor=#6c8ebf;" parent="1" vertex="1">
          <mxGeometry x="1620" y="360" width="260" height="240" as="geometry" />
        </mxCell>
        <mxCell id="hY3oV-c14LFieW8W5GVs-63" style="edgeStyle=orthogonalEdgeStyle;rounded=0;orthogonalLoop=1;jettySize=auto;html=1;endArrow=none;endFill=0;dashed=1;" parent="1" source="8gXxlpxFFR-SjeP47l6D-10" target="hY3oV-c14LFieW8W5GVs-57" edge="1">
          <mxGeometry relative="1" as="geometry">
            <Array as="points">
              <mxPoint x="1100" y="290" />
            </Array>
          </mxGeometry>
        </mxCell>
        <mxCell id="8gXxlpxFFR-SjeP47l6D-10" value="&lt;p style=&quot;margin:0px;margin-top:4px;text-align:center;&quot;&gt;&lt;b&gt;SettingScene&lt;/b&gt;&lt;/p&gt;&lt;hr size=&quot;1&quot; style=&quot;border-style:solid;&quot;&gt;&lt;div&gt;- buttons_: vector&amp;lt;Button&amp;gt;&lt;/div&gt;&lt;div&gt;- sliders_: vector&amp;lt;Slider&amp;gt;&lt;/div&gt;&lt;hr size=&quot;1&quot; style=&quot;border-style:solid;&quot;&gt;&lt;div&gt;- CreateButton(): void&lt;/div&gt;&lt;div&gt;- CreateSlider(): void&lt;/div&gt;&lt;div&gt;&lt;div&gt;+ &amp;lt;&amp;lt;override&amp;gt;&amp;gt; Init(): void&lt;/div&gt;&lt;div&gt;+ &amp;lt;&amp;lt;override&amp;gt;&amp;gt; Draw(): void&lt;/div&gt;&lt;div&gt;+ &amp;lt;&amp;lt;override&amp;gt;&amp;gt; Update(): void&lt;/div&gt;&lt;div&gt;+ &amp;lt;&amp;lt;overrride&amp;gt;&amp;gt; Resume(): void&lt;/div&gt;&lt;div&gt;+ &amp;lt;&amp;lt;override&amp;gt;&amp;gt; GetType(): SceneType&lt;/div&gt;&lt;br&gt;&lt;/div&gt;&lt;div&gt;&lt;br&gt;&lt;/div&gt;&lt;div&gt;&lt;br&gt;&lt;/div&gt;" style="verticalAlign=top;align=left;overflow=fill;html=1;whiteSpace=wrap;fillColor=#dae8fc;strokeColor=#6c8ebf;" parent="1" vertex="1">
          <mxGeometry x="1000" y="368" width="200" height="202" as="geometry" />
        </mxCell>
        <mxCell id="8gXxlpxFFR-SjeP47l6D-11" value="&lt;p style=&quot;margin:0px;margin-top:4px;text-align:center;&quot;&gt;&lt;b&gt;MenuScene&lt;/b&gt;&lt;/p&gt;&lt;hr size=&quot;1&quot; style=&quot;border-style:solid;&quot;&gt;&lt;br&gt;&lt;hr size=&quot;1&quot; style=&quot;border-style:solid;&quot;&gt;&lt;br&gt;&lt;div&gt;+ &amp;lt;&amp;lt;override&amp;gt;&amp;gt; Init(): void&lt;/div&gt;&lt;div&gt;+ &amp;lt;&amp;lt;override&amp;gt;&amp;gt; Draw(): void&lt;/div&gt;&lt;div&gt;+ &amp;lt;&amp;lt;override&amp;gt;&amp;gt; Update(): void&lt;/div&gt;&lt;div&gt;+ &amp;lt;&amp;lt;overrride&amp;gt;&amp;gt; Resume(): void&lt;/div&gt;&lt;div&gt;+ &amp;lt;&amp;lt;override&amp;gt;&amp;gt; GetType(): SceneType&lt;/div&gt;&lt;div&gt;&lt;br&gt;&lt;/div&gt;&lt;div&gt;&lt;br&gt;&lt;/div&gt;" style="verticalAlign=top;align=left;overflow=fill;html=1;whiteSpace=wrap;fillColor=#dae8fc;strokeColor=#6c8ebf;" parent="1" vertex="1">
          <mxGeometry x="430" y="368" width="180" height="200" as="geometry" />
        </mxCell>
        <mxCell id="8gXxlpxFFR-SjeP47l6D-14" value="&lt;p style=&quot;margin:0px;margin-top:4px;text-align:center;&quot;&gt;&lt;b&gt;CreditScene&lt;/b&gt;&lt;/p&gt;&lt;hr size=&quot;1&quot; style=&quot;border-style:solid;&quot;&gt;&lt;div&gt;&lt;br&gt;&lt;/div&gt;&lt;hr size=&quot;1&quot; style=&quot;border-style:solid;&quot;&gt;&lt;br&gt;&lt;div&gt;+ &amp;lt;&amp;lt;override&amp;gt;&amp;gt; Init(): void&lt;/div&gt;&lt;div&gt;+ &amp;lt;&amp;lt;override&amp;gt;&amp;gt; Draw(): void&lt;/div&gt;&lt;div&gt;+ &amp;lt;&amp;lt;override&amp;gt;&amp;gt; Update(): void&lt;/div&gt;&lt;div&gt;+ &amp;lt;&amp;lt;overrride&amp;gt;&amp;gt; Resume(): void&lt;/div&gt;&lt;div&gt;+ &amp;lt;&amp;lt;override&amp;gt;&amp;gt; GetType(): SceneType&lt;/div&gt;&lt;div&gt;&lt;br&gt;&lt;/div&gt;&lt;div&gt;&lt;br&gt;&lt;/div&gt;" style="verticalAlign=top;align=left;overflow=fill;html=1;whiteSpace=wrap;fillColor=#dae8fc;strokeColor=#6c8ebf;" parent="1" vertex="1">
          <mxGeometry x="620" y="368" width="180" height="202" as="geometry" />
        </mxCell>
        <mxCell id="8gXxlpxFFR-SjeP47l6D-16" value="&lt;p style=&quot;margin:0px;margin-top:4px;text-align:center;&quot;&gt;&lt;b&gt;CharacterSelectorScene&lt;/b&gt;&lt;/p&gt;&lt;hr size=&quot;1&quot; style=&quot;border-style:solid;&quot;&gt;- selected_character_: CharacterType&lt;hr size=&quot;1&quot; style=&quot;border-style:solid;&quot;&gt;&lt;div&gt;- StartGame(): void&lt;/div&gt;&lt;div&gt;+ &amp;lt;&amp;lt;static&amp;gt;&amp;gt; GetCharacterType(): CharacterType&lt;/div&gt;&lt;div&gt;&lt;div&gt;+ &amp;lt;&amp;lt;override&amp;gt;&amp;gt; Init(): void&lt;/div&gt;&lt;div&gt;+ &amp;lt;&amp;lt;override&amp;gt;&amp;gt; Draw(): void&lt;/div&gt;&lt;div&gt;+ &amp;lt;&amp;lt;override&amp;gt;&amp;gt; Update(): void&lt;/div&gt;&lt;div&gt;+ &amp;lt;&amp;lt;overrride&amp;gt;&amp;gt; Resume(): void&lt;/div&gt;&lt;div&gt;+ &amp;lt;&amp;lt;override&amp;gt;&amp;gt; GetType(): SceneType&lt;/div&gt;&lt;br&gt;&lt;/div&gt;&lt;div&gt;&lt;br&gt;&lt;/div&gt;&lt;div&gt;&lt;br&gt;&lt;/div&gt;" style="verticalAlign=top;align=left;overflow=fill;html=1;whiteSpace=wrap;fillColor=#dae8fc;strokeColor=#6c8ebf;" parent="1" vertex="1">
          <mxGeometry x="1270" y="368" width="280" height="192" as="geometry" />
        </mxCell>
        <mxCell id="8gXxlpxFFR-SjeP47l6D-18" value="&lt;p style=&quot;margin:0px;margin-top:4px;text-align:center;&quot;&gt;&lt;b&gt;EnemySelectorScene&lt;/b&gt;&lt;/p&gt;&lt;hr size=&quot;1&quot; style=&quot;border-style:solid;&quot;&gt;&lt;div&gt;- first_gidx: int&lt;/div&gt;&lt;div&gt;- sprite_info_: unordered_map&amp;lt;int, Rectangle&amp;gt;&lt;/div&gt;&lt;hr size=&quot;1&quot; style=&quot;border-style:solid;&quot;&gt;&lt;div&gt;- UpdateCamera(): void&lt;/div&gt;&lt;div&gt;- ChooseType(): void&lt;/div&gt;&lt;div&gt;&lt;div&gt;+ &amp;lt;&amp;lt;override&amp;gt;&amp;gt; Init(): void&lt;/div&gt;&lt;div&gt;+ &amp;lt;&amp;lt;override&amp;gt;&amp;gt; Draw(): void&lt;/div&gt;&lt;div&gt;+ &amp;lt;&amp;lt;override&amp;gt;&amp;gt; Update(): void&lt;/div&gt;&lt;div&gt;+ &amp;lt;&amp;lt;overrride&amp;gt;&amp;gt; Resume(): void&lt;/div&gt;&lt;div&gt;+ &amp;lt;&amp;lt;override&amp;gt;&amp;gt; GetType(): SceneType&lt;/div&gt;&lt;br&gt;&lt;/div&gt;&lt;div&gt;&lt;br&gt;&lt;/div&gt;&lt;div&gt;&lt;br&gt;&lt;/div&gt;" style="verticalAlign=top;align=left;overflow=fill;html=1;whiteSpace=wrap;fillColor=#dae8fc;strokeColor=#6c8ebf;" parent="1" vertex="1">
          <mxGeometry x="1940" y="370" width="260" height="180" as="geometry" />
        </mxCell>
        <mxCell id="8gXxlpxFFR-SjeP47l6D-31" style="edgeStyle=orthogonalEdgeStyle;rounded=0;orthogonalLoop=1;jettySize=auto;html=1;endArrow=none;endFill=0;" parent="1" source="8gXxlpxFFR-SjeP47l6D-21" edge="1">
          <mxGeometry relative="1" as="geometry">
            <mxPoint x="2070" y="550" as="targetPoint" />
            <Array as="points">
              <mxPoint x="2370" y="570" />
              <mxPoint x="2070" y="570" />
            </Array>
          </mxGeometry>
        </mxCell>
        <mxCell id="8gXxlpxFFR-SjeP47l6D-21" value="&lt;p style=&quot;margin:0px;margin-top:4px;text-align:center;&quot;&gt;&lt;b&gt;TileSelectorScene&lt;/b&gt;&lt;/p&gt;&lt;hr size=&quot;1&quot; style=&quot;border-style:solid;&quot;&gt;&lt;div&gt;- first_gidx: int&lt;/div&gt;&lt;div&gt;- sprite_info_: unordered_map&amp;lt;int, Rectangle&amp;gt;&lt;/div&gt;&lt;hr size=&quot;1&quot; style=&quot;border-style:solid;&quot;&gt;&lt;div&gt;- UpdateCamera(): void&lt;/div&gt;&lt;div&gt;- ChooseType(): void&lt;/div&gt;&lt;div&gt;&lt;div&gt;+ &amp;lt;&amp;lt;override&amp;gt;&amp;gt; Init(): void&lt;/div&gt;&lt;div&gt;+ &amp;lt;&amp;lt;override&amp;gt;&amp;gt; Draw(): void&lt;/div&gt;&lt;div&gt;+ &amp;lt;&amp;lt;override&amp;gt;&amp;gt; Update(): void&lt;/div&gt;&lt;div&gt;+ &amp;lt;&amp;lt;overrride&amp;gt;&amp;gt; Resume(): void&lt;/div&gt;&lt;div&gt;+ &amp;lt;&amp;lt;override&amp;gt;&amp;gt; GetType(): SceneType&lt;/div&gt;&lt;br&gt;&lt;/div&gt;&lt;div&gt;&lt;br&gt;&lt;/div&gt;&lt;div&gt;&lt;br&gt;&lt;/div&gt;" style="verticalAlign=top;align=left;overflow=fill;html=1;whiteSpace=wrap;fillColor=#dae8fc;strokeColor=#6c8ebf;" parent="1" vertex="1">
          <mxGeometry x="2240" y="370" width="260" height="180" as="geometry" />
        </mxCell>
        <mxCell id="hY3oV-c14LFieW8W5GVs-62" style="edgeStyle=orthogonalEdgeStyle;rounded=0;orthogonalLoop=1;jettySize=auto;html=1;endArrow=none;endFill=0;dashed=1;" parent="1" source="8gXxlpxFFR-SjeP47l6D-23" target="hY3oV-c14LFieW8W5GVs-57" edge="1">
          <mxGeometry relative="1" as="geometry">
            <Array as="points">
              <mxPoint x="900" y="290" />
            </Array>
          </mxGeometry>
        </mxCell>
        <mxCell id="8gXxlpxFFR-SjeP47l6D-23" value="&lt;p style=&quot;margin:0px;margin-top:4px;text-align:center;&quot;&gt;&lt;b&gt;PauseScene&lt;/b&gt;&lt;/p&gt;&lt;hr size=&quot;1&quot; style=&quot;border-style:solid;&quot;&gt;&lt;div&gt;&lt;br&gt;&lt;/div&gt;&lt;hr size=&quot;1&quot; style=&quot;border-style:solid;&quot;&gt;&lt;br&gt;&lt;div&gt;+ &amp;lt;&amp;lt;override&amp;gt;&amp;gt; Init(): void&lt;/div&gt;&lt;div&gt;+ &amp;lt;&amp;lt;override&amp;gt;&amp;gt; Draw(): void&lt;/div&gt;&lt;div&gt;+ &amp;lt;&amp;lt;override&amp;gt;&amp;gt; Update(): void&lt;/div&gt;&lt;div&gt;+ &amp;lt;&amp;lt;overrride&amp;gt;&amp;gt; Resume(): void&lt;/div&gt;&lt;div&gt;+ &amp;lt;&amp;lt;override&amp;gt;&amp;gt; GetType(): SceneType&lt;/div&gt;&lt;div&gt;&lt;br&gt;&lt;/div&gt;&lt;div&gt;&lt;br&gt;&lt;/div&gt;" style="verticalAlign=top;align=left;overflow=fill;html=1;whiteSpace=wrap;fillColor=#dae8fc;strokeColor=#6c8ebf;" parent="1" vertex="1">
          <mxGeometry x="810" y="368" width="180" height="200" as="geometry" />
        </mxCell>
        <mxCell id="8gXxlpxFFR-SjeP47l6D-28" value="" style="endArrow=none;html=1;edgeStyle=orthogonalEdgeStyle;rounded=0;exitX=0.5;exitY=1;exitDx=0;exitDy=0;entryX=0.5;entryY=1;entryDx=0;entryDy=0;" parent="1" source="8gXxlpxFFR-SjeP47l6D-8" target="8gXxlpxFFR-SjeP47l6D-18" edge="1">
          <mxGeometry relative="1" as="geometry">
            <mxPoint x="1830" y="560" as="sourcePoint" />
            <mxPoint x="1990" y="560" as="targetPoint" />
            <Array as="points">
              <mxPoint x="1770" y="600" />
              <mxPoint x="1770" y="610" />
              <mxPoint x="2070" y="610" />
            </Array>
          </mxGeometry>
        </mxCell>
        <mxCell id="8gXxlpxFFR-SjeP47l6D-32" value="&lt;p style=&quot;margin:0px;margin-top:4px;text-align:center;&quot;&gt;&lt;b&gt;Button&lt;/b&gt;&lt;/p&gt;&lt;hr size=&quot;1&quot; style=&quot;border-style:solid;&quot;&gt;&lt;div&gt;- label_: string&lt;/div&gt;&lt;div&gt;- src_: Rectangle&lt;/div&gt;&lt;div&gt;- dst_: Rectangle&lt;/div&gt;&lt;div&gt;- icon_: Texture&lt;/div&gt;&lt;div&gt;- tint_: Color&lt;/div&gt;&lt;div&gt;- is_hovered_: bool&lt;/div&gt;&lt;hr size=&quot;1&quot; style=&quot;border-style:solid;&quot;&gt;&lt;p style=&quot;margin:0px;margin-left:4px;&quot;&gt;+ &amp;lt;&amp;lt;virtual&amp;gt;&amp;gt; Draw(): void&lt;/p&gt;&lt;p style=&quot;margin:0px;margin-left:4px;&quot;&gt;+ &amp;lt;&amp;lt;virtual&amp;gt;&amp;gt; Update(): void&lt;/p&gt;&lt;p style=&quot;margin:0px;margin-left:4px;&quot;&gt;+ Clicked(): bool&lt;/p&gt;&lt;p style=&quot;margin:0px;margin-left:4px;&quot;&gt;+ Hovered(): bool&lt;/p&gt;" style="verticalAlign=top;align=left;overflow=fill;html=1;whiteSpace=wrap;fillColor=#dae8fc;strokeColor=#6c8ebf;" parent="1" vertex="1">
          <mxGeometry x="1665" y="672" width="170" height="200" as="geometry" />
        </mxCell>
        <mxCell id="8gXxlpxFFR-SjeP47l6D-34" value="&lt;div align=&quot;center&quot;&gt;&lt;b&gt;SceneList&lt;/b&gt;&lt;/div&gt;&lt;hr size=&quot;1&quot; style=&quot;border-style:solid;&quot;&gt;&amp;nbsp;- scenes_: vector&amp;lt;unique_ptr&amp;lt;Scenes&amp;gt;&amp;gt;&lt;hr size=&quot;1&quot; style=&quot;border-style:solid;&quot;&gt;&lt;p style=&quot;margin:0px;margin-left:4px;&quot;&gt;+ Push(scene: unique_ptr&amp;lt;Scene&amp;gt;): void&lt;/p&gt;&lt;p style=&quot;margin:0px;margin-left:4px;&quot;&gt;+ Pop(): void&lt;/p&gt;&lt;p style=&quot;margin:0px;margin-left:4px;&quot;&gt;+ Top(): Scene&amp;amp;&lt;/p&gt;&lt;p style=&quot;margin:0px;margin-left:4px;&quot;&gt;+ Size(): size_t&lt;/p&gt;&lt;p style=&quot;margin:0px;margin-left:4px;&quot;&gt;&lt;br&gt;&lt;/p&gt;&lt;p style=&quot;margin:0px;margin-left:4px;&quot;&gt;+ Init(): void&lt;/p&gt;&lt;p style=&quot;margin:0px;margin-left:4px;&quot;&gt;+ Update(): void&lt;/p&gt;&lt;p style=&quot;margin:0px;margin-left:4px;&quot;&gt;+ Draw(): void&lt;/p&gt;" style="verticalAlign=top;align=left;overflow=fill;html=1;whiteSpace=wrap;fillColor=#dae8fc;strokeColor=#6c8ebf;" parent="1" vertex="1">
          <mxGeometry x="980" y="-230" width="260" height="190" as="geometry" />
        </mxCell>
        <mxCell id="8gXxlpxFFR-SjeP47l6D-37" value="&lt;p style=&quot;margin:0px;margin-top:4px;text-align:center;&quot;&gt;&lt;b&gt;Slider&lt;/b&gt;&lt;/p&gt;&lt;hr size=&quot;1&quot; style=&quot;border-style:solid;&quot;&gt;&lt;div&gt;- slider_bounds_: Rectangle&lt;/div&gt;&lt;div&gt;- percentage_: float&lt;/div&gt;&lt;div&gt;- is_dragging_: bool&lt;/div&gt;&lt;hr size=&quot;1&quot; style=&quot;border-style:solid;&quot;&gt;&lt;p style=&quot;margin:0px;margin-left:4px;&quot;&gt;+ GetPercentage(): float&lt;/p&gt;" style="verticalAlign=top;align=left;overflow=fill;html=1;whiteSpace=wrap;fillColor=#dae8fc;strokeColor=#6c8ebf;" parent="1" vertex="1">
          <mxGeometry x="1410" y="675" width="170" height="110" as="geometry" />
        </mxCell>
        <mxCell id="8gXxlpxFFR-SjeP47l6D-38" value="" style="endArrow=block;dashed=1;endFill=0;endSize=12;html=1;rounded=0;exitX=1;exitY=0.5;exitDx=0;exitDy=0;entryX=0;entryY=0.5;entryDx=0;entryDy=0;" parent="1" source="8gXxlpxFFR-SjeP47l6D-37" target="8gXxlpxFFR-SjeP47l6D-32" edge="1">
          <mxGeometry width="160" relative="1" as="geometry">
            <mxPoint x="1620" y="710" as="sourcePoint" />
            <mxPoint x="1780" y="710" as="targetPoint" />
          </mxGeometry>
        </mxCell>
        <mxCell id="8gXxlpxFFR-SjeP47l6D-39" style="edgeStyle=orthogonalEdgeStyle;rounded=0;orthogonalLoop=1;jettySize=auto;html=1;entryX=-0.005;entryY=0.554;entryDx=0;entryDy=0;entryPerimeter=0;endArrow=none;endFill=0;" parent="1" source="8gXxlpxFFR-SjeP47l6D-10" target="8gXxlpxFFR-SjeP47l6D-37" edge="1">
          <mxGeometry relative="1" as="geometry">
            <Array as="points">
              <mxPoint x="1250" y="736" />
            </Array>
          </mxGeometry>
        </mxCell>
        <mxCell id="8gXxlpxFFR-SjeP47l6D-41" value="" style="endArrow=none;endFill=0;html=1;edgeStyle=orthogonalEdgeStyle;align=left;verticalAlign=top;rounded=0;entryX=0.005;entryY=0.85;entryDx=0;entryDy=0;entryPerimeter=0;exitX=0.5;exitY=1;exitDx=0;exitDy=0;" parent="1" source="8gXxlpxFFR-SjeP47l6D-10" target="8gXxlpxFFR-SjeP47l6D-32" edge="1">
          <mxGeometry x="-1" relative="1" as="geometry">
            <mxPoint x="1330" y="620" as="sourcePoint" />
            <mxPoint x="1490" y="620" as="targetPoint" />
          </mxGeometry>
        </mxCell>
        <mxCell id="8gXxlpxFFR-SjeP47l6D-46" style="edgeStyle=orthogonalEdgeStyle;rounded=0;orthogonalLoop=1;jettySize=auto;html=1;entryX=0.5;entryY=0;entryDx=0;entryDy=0;endArrow=none;endFill=0;" parent="1" source="8gXxlpxFFR-SjeP47l6D-44" target="8gXxlpxFFR-SjeP47l6D-34" edge="1">
          <mxGeometry relative="1" as="geometry" />
        </mxCell>
        <mxCell id="8gXxlpxFFR-SjeP47l6D-44" value="&lt;div align=&quot;center&quot;&gt;&lt;b&gt;Application&lt;/b&gt;&lt;/div&gt;&lt;div&gt;- res_manager_: SpriteManager&lt;/div&gt;&lt;div&gt;- media_: Media&lt;/div&gt;&lt;div&gt;- config_: Config&lt;/div&gt;&lt;div&gt;- scene_manager_: SceneList&lt;/div&gt;&lt;div&gt;- transition_: Transition&lt;/div&gt;&lt;hr size=&quot;1&quot; style=&quot;border-style:solid;&quot;&gt;&lt;div&gt;+&amp;nbsp;&lt;u&gt;AddScene(new_scene_: unique_ptr&amp;lt;Scene&amp;gt;, hide_prev: bool): void&lt;/u&gt;&lt;/div&gt;&lt;div&gt;+&lt;u&gt;&amp;nbsp;RemoveScene(count = 1: size_t): void&lt;/u&gt;&lt;/div&gt;&lt;div&gt;+&amp;nbsp;&lt;u&gt;RemoveSceneUntil(type: SceneType): void&lt;/u&gt;&lt;/div&gt;&lt;div&gt;+&amp;nbsp;&lt;u&gt;ToggleCustomCursor(): void&lt;/u&gt;&lt;/div&gt;" style="verticalAlign=top;align=left;overflow=fill;html=1;whiteSpace=wrap;fillColor=#dae8fc;strokeColor=#6c8ebf;" parent="1" vertex="1">
          <mxGeometry x="882.5" y="-500" width="455" height="170" as="geometry" />
        </mxCell>
        <mxCell id="AHXedSF2T4ECdz9KEYdW-1" value="&lt;p style=&quot;margin:0px;margin-top:4px;text-align:center;&quot;&gt;&lt;b&gt;SpriteManager&lt;/b&gt;&lt;/p&gt;&lt;hr size=&quot;1&quot; style=&quot;border-style:solid;&quot;&gt;&lt;p style=&quot;margin:0px;margin-left:4px;&quot;&gt;- textures_: unordered_map&amp;lt;string, Texture&amp;gt;&lt;/p&gt;&lt;hr size=&quot;1&quot; style=&quot;border-style:solid;&quot;&gt;&lt;p style=&quot;margin:0px;margin-left:4px;&quot;&gt;+ GetMario(type: char): Texture&lt;/p&gt;&lt;p style=&quot;margin:0px;margin-left:4px;&quot;&gt;+ GetLuigi(type: char): Texture&lt;/p&gt;&lt;p style=&quot;margin:0px;margin-left:4px;&quot;&gt;+ GetEnemy(type: char): Texture&lt;/p&gt;&lt;p style=&quot;margin:0px;margin-left:4px;&quot;&gt;+ GetTileset(type: char): Texture&lt;/p&gt;&lt;p style=&quot;margin:0px;margin-left:4px;&quot;&gt;+ GetObject(): Texture&lt;/p&gt;&lt;p style=&quot;margin:0px;margin-left:4px;&quot;&gt;+ GetElectricShot(): Texture&lt;/p&gt;&lt;p style=&quot;margin:0px;margin-left:4px;&quot;&gt;+ GetBackground(): Texture&lt;/p&gt;" style="verticalAlign=top;align=left;overflow=fill;html=1;whiteSpace=wrap;fillColor=#dae8fc;strokeColor=#6c8ebf;" parent="1" vertex="1">
          <mxGeometry x="1440" y="-600" width="200" height="190" as="geometry" />
        </mxCell>
        <mxCell id="AHXedSF2T4ECdz9KEYdW-2" style="edgeStyle=orthogonalEdgeStyle;rounded=0;orthogonalLoop=1;jettySize=auto;html=1;entryX=0.01;entryY=0.451;entryDx=0;entryDy=0;entryPerimeter=0;endArrow=none;endFill=0;" parent="1" source="8gXxlpxFFR-SjeP47l6D-44" target="AHXedSF2T4ECdz9KEYdW-1" edge="1">
          <mxGeometry relative="1" as="geometry" />
        </mxCell>
        <mxCell id="AHXedSF2T4ECdz9KEYdW-4" style="edgeStyle=orthogonalEdgeStyle;rounded=0;orthogonalLoop=1;jettySize=auto;html=1;entryX=1;entryY=0.5;entryDx=0;entryDy=0;endArrow=none;endFill=0;" parent="1" source="AHXedSF2T4ECdz9KEYdW-3" target="8gXxlpxFFR-SjeP47l6D-44" edge="1">
          <mxGeometry relative="1" as="geometry" />
        </mxCell>
        <mxCell id="AHXedSF2T4ECdz9KEYdW-3" value="&lt;p style=&quot;margin:0px;margin-top:4px;text-align:center;&quot;&gt;&lt;b&gt;Media&lt;/b&gt;&lt;/p&gt;&lt;hr size=&quot;1&quot; style=&quot;border-style:solid;&quot;&gt;&lt;p style=&quot;margin:0px;margin-left:4px;&quot;&gt;- musics_: unordered_map&amp;lt;string, Music&amp;gt;&lt;/p&gt;&lt;p style=&quot;margin:0px;margin-left:4px;&quot;&gt;- sounds_: unordered_map&amp;lt;string, Sound&amp;gt;&lt;/p&gt;&lt;p style=&quot;margin:0px;margin-left:4px;&quot;&gt;- music_state: stack&amp;lt;pair&amp;lt;string, float&amp;gt;&amp;gt;&lt;/p&gt;&lt;hr size=&quot;1&quot; style=&quot;border-style:solid;&quot;&gt;&lt;div&gt;+ PlaySound(name: string): void&lt;/div&gt;&lt;div&gt;+ SetSoundVolume(volume: float): void&lt;/div&gt;&lt;div&gt;+ PlayMusic(name: string): void&lt;/div&gt;&lt;div&gt;+UpdateMusic(): void&lt;/div&gt;&lt;div&gt;+ StopMusic(): void&lt;/div&gt;&lt;div&gt;SetMusicVolume(volume: float): void&lt;/div&gt;" style="verticalAlign=top;align=left;overflow=fill;html=1;whiteSpace=wrap;fillColor=#dae8fc;strokeColor=#6c8ebf;" parent="1" vertex="1">
          <mxGeometry x="1440" y="-350" width="240" height="200" as="geometry" />
        </mxCell>
        <mxCell id="AHXedSF2T4ECdz9KEYdW-6" style="edgeStyle=orthogonalEdgeStyle;rounded=0;orthogonalLoop=1;jettySize=auto;html=1;entryX=1;entryY=0.5;entryDx=0;entryDy=0;endArrow=none;endFill=0;" parent="1" source="AHXedSF2T4ECdz9KEYdW-5" target="8gXxlpxFFR-SjeP47l6D-44" edge="1">
          <mxGeometry relative="1" as="geometry" />
        </mxCell>
        <mxCell id="AHXedSF2T4ECdz9KEYdW-5" value="&lt;p style=&quot;margin:0px;margin-top:4px;text-align:center;&quot;&gt;&lt;b&gt;Config&lt;/b&gt;&lt;/p&gt;&lt;hr size=&quot;1&quot; style=&quot;border-style:solid;&quot;&gt;&lt;div&gt;- music_volume_: float&lt;/div&gt;&lt;div&gt;- sound_volume_: float&lt;/div&gt;&lt;hr size=&quot;1&quot; style=&quot;border-style:solid;&quot;&gt;&lt;p style=&quot;margin:0px;margin-left:4px;&quot;&gt;+ Init(): void&lt;/p&gt;&lt;p style=&quot;margin:0px;margin-left:4px;&quot;&gt;+ Reset(): void&lt;/p&gt;&lt;p style=&quot;margin:0px;margin-left:4px;&quot;&gt;+ GetMusicVolume(): float&lt;/p&gt;&lt;p style=&quot;margin:0px;margin-left:4px;&quot;&gt;+ GetSoundVolume(): float&lt;/p&gt;" style="verticalAlign=top;align=left;overflow=fill;html=1;whiteSpace=wrap;fillColor=#dae8fc;strokeColor=#6c8ebf;" parent="1" vertex="1">
          <mxGeometry x="1440" y="-820" width="200" height="150" as="geometry" />
        </mxCell>
        <mxCell id="AHXedSF2T4ECdz9KEYdW-11" style="edgeStyle=orthogonalEdgeStyle;rounded=0;orthogonalLoop=1;jettySize=auto;html=1;entryX=1;entryY=0.5;entryDx=0;entryDy=0;endArrow=none;endFill=0;" parent="1" source="AHXedSF2T4ECdz9KEYdW-7" target="8gXxlpxFFR-SjeP47l6D-44" edge="1">
          <mxGeometry relative="1" as="geometry" />
        </mxCell>
        <mxCell id="AHXedSF2T4ECdz9KEYdW-7" value="Transition" style="swimlane;fontStyle=1;align=center;verticalAlign=top;childLayout=stackLayout;horizontal=1;startSize=26;horizontalStack=0;resizeParent=1;resizeParentMax=0;resizeLast=0;collapsible=1;marginBottom=0;whiteSpace=wrap;html=1;fillColor=#dae8fc;strokeColor=#6c8ebf;" parent="1" vertex="1">
          <mxGeometry x="1440" y="-110" width="160" height="140" as="geometry" />
        </mxCell>
        <mxCell id="AHXedSF2T4ECdz9KEYdW-8" value="&lt;div&gt;- timer_: float&lt;/div&gt;&lt;div&gt;- duration_: float&lt;/div&gt;" style="text;strokeColor=#6c8ebf;fillColor=#dae8fc;align=left;verticalAlign=top;spacingLeft=4;spacingRight=4;overflow=hidden;rotatable=0;points=[[0,0.5],[1,0.5]];portConstraint=eastwest;whiteSpace=wrap;html=1;" parent="AHXedSF2T4ECdz9KEYdW-7" vertex="1">
          <mxGeometry y="26" width="160" height="44" as="geometry" />
        </mxCell>
        <mxCell id="AHXedSF2T4ECdz9KEYdW-9" value="" style="line;strokeWidth=1;fillColor=#dae8fc;align=left;verticalAlign=middle;spacingTop=-1;spacingLeft=3;spacingRight=3;rotatable=0;labelPosition=right;points=[];portConstraint=eastwest;strokeColor=#6c8ebf;" parent="AHXedSF2T4ECdz9KEYdW-7" vertex="1">
          <mxGeometry y="70" width="160" height="8" as="geometry" />
        </mxCell>
        <mxCell id="AHXedSF2T4ECdz9KEYdW-10" value="&lt;div&gt;+ Draw(dt: float): void&lt;/div&gt;&lt;div&gt;+ Reset(): void&lt;/div&gt;&lt;div&gt;+ Done(): bool&lt;/div&gt;" style="text;strokeColor=#6c8ebf;fillColor=#dae8fc;align=left;verticalAlign=top;spacingLeft=4;spacingRight=4;overflow=hidden;rotatable=0;points=[[0,0.5],[1,0.5]];portConstraint=eastwest;whiteSpace=wrap;html=1;" parent="AHXedSF2T4ECdz9KEYdW-7" vertex="1">
          <mxGeometry y="78" width="160" height="62" as="geometry" />
        </mxCell>
        <mxCell id="AHXedSF2T4ECdz9KEYdW-16" style="edgeStyle=orthogonalEdgeStyle;rounded=0;orthogonalLoop=1;jettySize=auto;html=1;entryX=1;entryY=0.5;entryDx=0;entryDy=0;endArrow=none;endFill=0;" parent="1" source="AHXedSF2T4ECdz9KEYdW-12" target="8gXxlpxFFR-SjeP47l6D-44" edge="1">
          <mxGeometry relative="1" as="geometry" />
        </mxCell>
        <mxCell id="AHXedSF2T4ECdz9KEYdW-12" value="&lt;b&gt;Utility&lt;/b&gt;" style="swimlane;fontStyle=0;childLayout=stackLayout;horizontal=1;startSize=26;fillColor=#dae8fc;horizontalStack=0;resizeParent=1;resizeParentMax=0;resizeLast=0;collapsible=1;marginBottom=0;whiteSpace=wrap;html=1;strokeColor=#6c8ebf;" parent="1" vertex="1">
          <mxGeometry x="1440" y="60" width="200" height="100" as="geometry" />
        </mxCell>
        <mxCell id="AHXedSF2T4ECdz9KEYdW-13" value="+ ReadSpriteInfo(path: string, sprites: unordered_map&amp;lt;int, Rectangle&amp;gt;" style="text;strokeColor=#6c8ebf;fillColor=#dae8fc;align=left;verticalAlign=top;spacingLeft=4;spacingRight=4;overflow=hidden;rotatable=0;points=[[0,0.5],[1,0.5]];portConstraint=eastwest;whiteSpace=wrap;html=1;" parent="AHXedSF2T4ECdz9KEYdW-12" vertex="1">
          <mxGeometry y="26" width="200" height="74" as="geometry" />
        </mxCell>
        <mxCell id="idwGcyg0NZIY-Tr2IAWl-3" style="edgeStyle=orthogonalEdgeStyle;rounded=0;orthogonalLoop=1;jettySize=auto;html=1;entryX=1;entryY=0.5;entryDx=0;entryDy=0;dashed=1;endArrow=open;endFill=0;" parent="1" source="idwGcyg0NZIY-Tr2IAWl-1" target="AHXedSF2T4ECdz9KEYdW-5" edge="1">
          <mxGeometry relative="1" as="geometry">
            <Array as="points">
              <mxPoint x="2520" y="720" />
              <mxPoint x="2520" y="-745" />
            </Array>
          </mxGeometry>
        </mxCell>
        <mxCell id="idwGcyg0NZIY-Tr2IAWl-4" value="Use" style="edgeLabel;html=1;align=center;verticalAlign=middle;resizable=0;points=[];" parent="idwGcyg0NZIY-Tr2IAWl-3" vertex="1" connectable="0">
          <mxGeometry x="0.5827" y="-1" relative="1" as="geometry">
            <mxPoint as="offset" />
          </mxGeometry>
        </mxCell>
        <mxCell id="idwGcyg0NZIY-Tr2IAWl-1" value="&lt;p style=&quot;margin:0px;margin-top:4px;text-align:center;&quot;&gt;&lt;b&gt;FileHandler&lt;/b&gt;&lt;/p&gt;&lt;hr size=&quot;1&quot; style=&quot;border-style:solid;&quot;&gt;&lt;p style=&quot;margin:0px;margin-left:4px;&quot;&gt;&lt;u&gt;- count:int&lt;/u&gt;&lt;/p&gt;&lt;p style=&quot;margin:0px;margin-left:4px;&quot;&gt;&lt;u&gt;- base_path: filesystem::path&lt;/u&gt;&lt;/p&gt;&lt;hr size=&quot;1&quot; style=&quot;border-style:solid;&quot;&gt;&lt;div&gt;+&amp;nbsp;&lt;u&gt;OpenFile(): string&lt;/u&gt;&lt;/div&gt;&lt;div&gt;&lt;u&gt;+ SaveFile(): string&lt;/u&gt;&lt;/div&gt;&lt;div&gt;&lt;u&gt;+ SaveMapToFile(map: Map, path: filesystem::path): void&lt;/u&gt;&lt;/div&gt;&lt;div&gt;&lt;u&gt;+ LoadMapFromFile(map: Map, path: filesystem::path): void&lt;/u&gt;&lt;/div&gt;&lt;div&gt;&lt;u&gt;+SaveConfig(config: Config): void&lt;/u&gt;&lt;/div&gt;&lt;div&gt;&lt;u&gt;+ LoadConfig(config: Config): void&lt;/u&gt;&lt;/div&gt;" style="verticalAlign=top;align=left;overflow=fill;html=1;whiteSpace=wrap;fillColor=#dae8fc;strokeColor=#6c8ebf;" parent="1" vertex="1">
          <mxGeometry x="1965" y="630" width="320" height="180" as="geometry" />
        </mxCell>
        <mxCell id="idwGcyg0NZIY-Tr2IAWl-9" style="edgeStyle=orthogonalEdgeStyle;rounded=0;orthogonalLoop=1;jettySize=auto;html=1;entryX=1;entryY=0.75;entryDx=0;entryDy=0;endArrow=none;endFill=0;" parent="1" source="idwGcyg0NZIY-Tr2IAWl-6" target="idwGcyg0NZIY-Tr2IAWl-8" edge="1">
          <mxGeometry relative="1" as="geometry" />
        </mxCell>
        <mxCell id="idwGcyg0NZIY-Tr2IAWl-6" value="&lt;p style=&quot;margin:0px;margin-top:4px;text-align:center;&quot;&gt;&lt;b&gt;&amp;lt;&amp;lt;struct&amp;gt;&amp;gt;&lt;/b&gt;&lt;/p&gt;&lt;p style=&quot;margin:0px;margin-top:4px;text-align:center;&quot;&gt;&lt;b&gt;SpriteSheet&lt;/b&gt;&lt;/p&gt;&lt;hr size=&quot;1&quot; style=&quot;border-style:solid;&quot;&gt;&lt;p style=&quot;margin:0px;margin-left:4px;&quot;&gt;+ first_gidx: int&lt;/p&gt;&lt;p style=&quot;margin:0px;margin-left:4px;&quot;&gt;+ count: int&lt;/p&gt;&lt;p style=&quot;margin:0px;margin-left:4px;&quot;&gt;+ texture_key: string&lt;/p&gt;&lt;p style=&quot;margin:0px;margin-left:4px;&quot;&gt;+ info: unordered_map&amp;lt;int, Rectangle&amp;gt;&lt;/p&gt;&lt;hr size=&quot;1&quot; style=&quot;border-style:solid;&quot;&gt;" style="verticalAlign=top;align=left;overflow=fill;html=1;whiteSpace=wrap;fillColor=#dae8fc;strokeColor=#6c8ebf;" parent="1" vertex="1">
          <mxGeometry x="2130" y="90" width="220" height="120" as="geometry" />
        </mxCell>
        <mxCell id="idwGcyg0NZIY-Tr2IAWl-14" style="edgeStyle=orthogonalEdgeStyle;rounded=0;orthogonalLoop=1;jettySize=auto;html=1;entryX=0;entryY=0.5;entryDx=0;entryDy=0;dashed=1;endArrow=open;endFill=0;" parent="1" source="idwGcyg0NZIY-Tr2IAWl-8" target="idwGcyg0NZIY-Tr2IAWl-12" edge="1">
          <mxGeometry relative="1" as="geometry" />
        </mxCell>
        <mxCell id="idwGcyg0NZIY-Tr2IAWl-8" value="&lt;p style=&quot;margin:0px;margin-top:4px;text-align:center;&quot;&gt;&lt;b&gt;Map&lt;/b&gt;&lt;/p&gt;&lt;hr size=&quot;1&quot; style=&quot;border-style:solid;&quot;&gt;&lt;div&gt;- sprite_sheets_: vector&amp;lt;SpriteSheet&amp;gt;&lt;/div&gt;&lt;div&gt;- layers_:vector&amp;lt;vector&amp;lt;int&amp;gt;&amp;gt;&lt;/div&gt;&lt;div&gt;- nlohmann::adl_serializer&amp;lt;Map&amp;gt;: struct&lt;/div&gt;&lt;hr size=&quot;1&quot; style=&quot;border-style:solid;&quot;&gt;&lt;p style=&quot;margin:0px;margin-left:4px;&quot;&gt;+ Init(): void&lt;/p&gt;&lt;p style=&quot;margin:0px;margin-left:4px;&quot;&gt;+ SetCell(layer: MapLayer, pos:int, gidx: int): void&lt;/p&gt;&lt;p style=&quot;margin:0px;margin-left:4px;&quot;&gt;+ GetCell(layer: MapLayer, pos: int): int&lt;/p&gt;&lt;p style=&quot;margin:0px;margin-left:4px;&quot;&gt;+ FindTexture(texture_key: string): Texture&lt;/p&gt;&lt;p style=&quot;margin:0px;margin-left:4px;&quot;&gt;+ GetTexture(gidx: int): Texture&lt;/p&gt;&lt;p style=&quot;margin:0px;margin-left:4px;&quot;&gt;+ GetInfo(gidx: int): void&lt;/p&gt;" style="verticalAlign=top;align=left;overflow=fill;html=1;whiteSpace=wrap;fillColor=#dae8fc;strokeColor=#6c8ebf;" parent="1" vertex="1">
          <mxGeometry x="1820" y="-40" width="230" height="210" as="geometry" />
        </mxCell>
        <mxCell id="idwGcyg0NZIY-Tr2IAWl-12" value="&lt;p style=&quot;margin:0px;margin-top:4px;text-align:center;&quot;&gt;&amp;lt;&amp;lt;enumeration&amp;gt;&amp;gt;&lt;/p&gt;&lt;p style=&quot;margin:0px;margin-top:4px;text-align:center;&quot;&gt;&lt;b&gt;MapLayer&lt;/b&gt;&lt;/p&gt;&lt;hr size=&quot;1&quot; style=&quot;border-style:solid;&quot;&gt;&lt;p style=&quot;margin:0px;margin-left:4px;&quot;&gt;Tile1 = 0&lt;/p&gt;&lt;p style=&quot;margin:0px;margin-left:4px;&quot;&gt;Objects&lt;/p&gt;&lt;p style=&quot;margin:0px;margin-left:4px;&quot;&gt;Tile2&lt;/p&gt;&lt;p style=&quot;margin:0px;margin-left:4px;&quot;&gt;Count&lt;/p&gt;&lt;hr size=&quot;1&quot; style=&quot;border-style:solid;&quot;&gt;" style="verticalAlign=top;align=left;overflow=fill;html=1;whiteSpace=wrap;fillColor=#dae8fc;strokeColor=#6c8ebf;" parent="1" vertex="1">
          <mxGeometry x="2130" y="-50" width="90" height="120" as="geometry" />
        </mxCell>
        <mxCell id="idwGcyg0NZIY-Tr2IAWl-15" style="edgeStyle=orthogonalEdgeStyle;rounded=0;orthogonalLoop=1;jettySize=auto;html=1;entryX=0.5;entryY=1;entryDx=0;entryDy=0;endArrow=none;endFill=0;" parent="1" source="8gXxlpxFFR-SjeP47l6D-8" target="idwGcyg0NZIY-Tr2IAWl-8" edge="1">
          <mxGeometry relative="1" as="geometry">
            <Array as="points">
              <mxPoint x="1810" y="310" />
              <mxPoint x="1935" y="310" />
            </Array>
          </mxGeometry>
        </mxCell>
        <mxCell id="idwGcyg0NZIY-Tr2IAWl-17" value="&lt;div&gt;&amp;lt;&amp;lt;enumeration&amp;gt;&amp;gt;&lt;/div&gt;&lt;div&gt;&lt;b&gt;SceneType&lt;/b&gt;&lt;/div&gt;" style="swimlane;fontStyle=0;childLayout=stackLayout;horizontal=1;startSize=30;fillColor=#dae8fc;horizontalStack=0;resizeParent=1;resizeParentMax=0;resizeLast=0;collapsible=1;marginBottom=0;whiteSpace=wrap;html=1;strokeColor=#6c8ebf;" parent="1" vertex="1">
          <mxGeometry x="680" y="33" width="140" height="204" as="geometry" />
        </mxCell>
        <mxCell id="idwGcyg0NZIY-Tr2IAWl-18" value="&lt;div&gt;Game&lt;span style=&quot;white-space: pre;&quot;&gt;&#x9;&lt;/span&gt;&lt;/div&gt;&lt;div&gt;&lt;span style=&quot;white-space: pre;&quot;&gt;Load&lt;/span&gt;&lt;/div&gt;&lt;div&gt;&lt;span style=&quot;white-space: pre;&quot;&gt;Editor&lt;/span&gt;&lt;/div&gt;&lt;div&gt;&lt;span style=&quot;white-space: pre;&quot;&gt;Exit&lt;/span&gt;&lt;/div&gt;&lt;div&gt;&lt;span style=&quot;white-space: pre;&quot;&gt;Menu&lt;br&gt;Credit&lt;/span&gt;&lt;/div&gt;&lt;div&gt;&lt;span style=&quot;white-space: pre;&quot;&gt;Pause&lt;/span&gt;&lt;/div&gt;&lt;div&gt;&lt;span style=&quot;white-space: pre;&quot;&gt;Setting&lt;/span&gt;&lt;/div&gt;&lt;div&gt;&lt;span style=&quot;white-space: pre;&quot;&gt;TileSelector&lt;/span&gt;&lt;/div&gt;&lt;div&gt;&lt;span style=&quot;white-space: pre;&quot;&gt;EnemySelector&lt;/span&gt;&lt;/div&gt;&lt;div&gt;&lt;span style=&quot;white-space: pre;&quot;&gt;CharacterSelector&lt;/span&gt;&lt;/div&gt;" style="text;strokeColor=#6c8ebf;fillColor=#dae8fc;align=left;verticalAlign=top;spacingLeft=4;spacingRight=4;overflow=hidden;rotatable=0;points=[[0,0.5],[1,0.5]];portConstraint=eastwest;whiteSpace=wrap;html=1;" parent="idwGcyg0NZIY-Tr2IAWl-17" vertex="1">
          <mxGeometry y="30" width="140" height="174" as="geometry" />
        </mxCell>
        <mxCell id="idwGcyg0NZIY-Tr2IAWl-23" value="&lt;div&gt;constants&lt;/div&gt;&lt;div&gt;&lt;br&gt;&lt;/div&gt;&lt;div align=&quot;left&quot;&gt;&lt;span style=&quot;font-weight: normal;&quot;&gt;+ scale: float&lt;/span&gt;&lt;/div&gt;&lt;div align=&quot;left&quot;&gt;&lt;span style=&quot;font-weight: normal;&quot;&gt;+ screenWidth: float&lt;/span&gt;&lt;/div&gt;&lt;div align=&quot;left&quot;&gt;&lt;span style=&quot;font-weight: normal;&quot;&gt;+ screenHeight: float&lt;/span&gt;&lt;/div&gt;&lt;div align=&quot;left&quot;&gt;&lt;span style=&quot;font-weight: normal;&quot;&gt;+ blockSize: float&lt;/span&gt;&lt;/div&gt;&lt;div align=&quot;left&quot;&gt;&lt;span style=&quot;font-weight: normal;&quot;&gt;+ cellSIze: float&lt;/span&gt;&lt;/div&gt;&lt;div align=&quot;left&quot;&gt;&lt;span style=&quot;font-weight: normal;&quot;&gt;+ mapWidth: int&lt;/span&gt;&lt;/div&gt;&lt;div align=&quot;left&quot;&gt;&lt;span style=&quot;font-weight: normal;&quot;&gt;+ mapHeight: int&lt;/span&gt;&lt;/div&gt;" style="shape=folder;fontStyle=1;spacingTop=10;tabWidth=40;tabHeight=14;tabPosition=left;html=1;whiteSpace=wrap;fillColor=#dae8fc;strokeColor=#6c8ebf;" parent="1" vertex="1">
          <mxGeometry x="2200" y="-680" width="210" height="160" as="geometry" />
        </mxCell>
        <mxCell id="idwGcyg0NZIY-Tr2IAWl-27" style="edgeStyle=orthogonalEdgeStyle;rounded=0;orthogonalLoop=1;jettySize=auto;html=1;exitX=0.25;exitY=0;exitDx=0;exitDy=0;entryX=0;entryY=0;entryDx=0;entryDy=87;entryPerimeter=0;dashed=1;endArrow=open;endFill=0;" parent="1" source="8gXxlpxFFR-SjeP47l6D-8" target="idwGcyg0NZIY-Tr2IAWl-23" edge="1">
          <mxGeometry relative="1" as="geometry" />
        </mxCell>
        <mxCell id="idwGcyg0NZIY-Tr2IAWl-28" style="edgeStyle=orthogonalEdgeStyle;rounded=0;orthogonalLoop=1;jettySize=auto;html=1;entryX=0.458;entryY=1.002;entryDx=0;entryDy=0;entryPerimeter=0;dashed=1;endArrow=open;endFill=0;" parent="1" source="idwGcyg0NZIY-Tr2IAWl-6" target="AHXedSF2T4ECdz9KEYdW-13" edge="1">
          <mxGeometry relative="1" as="geometry">
            <Array as="points">
              <mxPoint x="2240" y="260" />
              <mxPoint x="1532" y="260" />
            </Array>
          </mxGeometry>
        </mxCell>
        <mxCell id="idwGcyg0NZIY-Tr2IAWl-32" style="edgeStyle=orthogonalEdgeStyle;rounded=0;orthogonalLoop=1;jettySize=auto;html=1;entryX=0.5;entryY=0;entryDx=0;entryDy=0;dashed=1;" parent="1" source="idwGcyg0NZIY-Tr2IAWl-29" target="idwGcyg0NZIY-Tr2IAWl-8" edge="1">
          <mxGeometry relative="1" as="geometry">
            <Array as="points">
              <mxPoint x="1935" y="-450" />
            </Array>
          </mxGeometry>
        </mxCell>
        <mxCell id="idwGcyg0NZIY-Tr2IAWl-33" style="edgeStyle=orthogonalEdgeStyle;rounded=0;orthogonalLoop=1;jettySize=auto;html=1;entryX=1;entryY=0.25;entryDx=0;entryDy=0;dashed=1;endArrow=open;endFill=0;exitX=0.014;exitY=0.717;exitDx=0;exitDy=0;exitPerimeter=0;" parent="1" source="idwGcyg0NZIY-Tr2IAWl-29" target="idwGcyg0NZIY-Tr2IAWl-1" edge="1">
          <mxGeometry relative="1" as="geometry">
            <Array as="points">
              <mxPoint x="2600" y="-254" />
              <mxPoint x="2600" y="675" />
            </Array>
          </mxGeometry>
        </mxCell>
        <mxCell id="idwGcyg0NZIY-Tr2IAWl-34" style="edgeStyle=orthogonalEdgeStyle;rounded=0;orthogonalLoop=1;jettySize=auto;html=1;entryX=0.5;entryY=0;entryDx=0;entryDy=0;dashed=1;endArrow=open;endFill=0;" parent="1" source="idwGcyg0NZIY-Tr2IAWl-29" target="8gXxlpxFFR-SjeP47l6D-44" edge="1">
          <mxGeometry relative="1" as="geometry">
            <Array as="points">
              <mxPoint x="2850" y="-950" />
              <mxPoint x="1110" y="-950" />
            </Array>
          </mxGeometry>
        </mxCell>
        <mxCell id="idwGcyg0NZIY-Tr2IAWl-36" style="edgeStyle=orthogonalEdgeStyle;rounded=0;orthogonalLoop=1;jettySize=auto;html=1;entryX=0.25;entryY=0;entryDx=0;entryDy=0;dashed=1;endArrow=open;endFill=0;" parent="1" source="idwGcyg0NZIY-Tr2IAWl-29" target="8gXxlpxFFR-SjeP47l6D-2" edge="1">
          <mxGeometry relative="1" as="geometry">
            <Array as="points">
              <mxPoint x="2850" y="-950" />
              <mxPoint x="325" y="-950" />
              <mxPoint x="325" y="320" />
              <mxPoint x="35" y="320" />
            </Array>
          </mxGeometry>
        </mxCell>
        <mxCell id="hY3oV-c14LFieW8W5GVs-52" value="c&amp;nbsp;" style="edgeStyle=orthogonalEdgeStyle;rounded=0;orthogonalLoop=1;jettySize=auto;html=1;entryX=-0.003;entryY=0.053;entryDx=0;entryDy=0;endArrow=open;endFill=0;entryPerimeter=0;" parent="1" source="idwGcyg0NZIY-Tr2IAWl-29" target="hY3oV-c14LFieW8W5GVs-1" edge="1">
          <mxGeometry relative="1" as="geometry">
            <mxPoint x="4020" y="846.8572126116071" as="targetPoint" />
            <Array as="points">
              <mxPoint x="3330" y="-380" />
              <mxPoint x="3330" y="832" />
              <mxPoint x="4880" y="832" />
              <mxPoint x="4880" y="857" />
            </Array>
          </mxGeometry>
        </mxCell>
        <mxCell id="idwGcyg0NZIY-Tr2IAWl-29" value="&lt;p style=&quot;margin:0px;margin-top:4px;text-align:center;&quot;&gt;&lt;b&gt;GameManager&lt;/b&gt;&lt;/p&gt;&lt;hr size=&quot;1&quot; style=&quot;border-style:solid;&quot;&gt;&lt;p style=&quot;margin:0px;margin-left:4px;&quot;&gt;- lives_: int&lt;/p&gt;&lt;p style=&quot;margin:0px;margin-left:4px;&quot;&gt;- gameOver_: bool&lt;/p&gt;&lt;p style=&quot;margin:0px;margin-left:4px;&quot;&gt;- spawnPoint: Vector2&lt;/p&gt;&lt;p style=&quot;margin:0px;margin-left:4px;&quot;&gt;- currentLevel_: int&lt;/p&gt;&lt;p style=&quot;margin:0px;margin-left:4px;&quot;&gt;- totalEnemies_: int&lt;/p&gt;&lt;p style=&quot;margin:0px;margin-left:4px;&quot;&gt;- enemiesKilled_: int&lt;/p&gt;&lt;p style=&quot;margin:0px;margin-left:4px;&quot;&gt;- sceneCamera_: Camera2D&lt;/p&gt;&lt;p style=&quot;margin:0px;margin-left:4px;&quot;&gt;- collisionHandler_: CollisionHandler&lt;/p&gt;&lt;p style=&quot;margin:0px;margin-left:4px;&quot;&gt;- particles_: vector&amp;lt;Particle&amp;gt;&lt;/p&gt;&lt;p style=&quot;margin:0px;margin-left:4px;&quot;&gt;- isPaused: bool&lt;/p&gt;&lt;p style=&quot;margin:0px;margin-left:4px;&quot;&gt;- isDeathHandled: bool&lt;/p&gt;&lt;p style=&quot;margin:0px;margin-left:4px;&quot;&gt;&lt;br&gt;&lt;/p&gt;&lt;p style=&quot;margin:0px;margin-left:4px;&quot;&gt;&lt;br&gt;&lt;/p&gt;&lt;hr size=&quot;1&quot; style=&quot;border-style:solid;&quot;&gt;&lt;p style=&quot;margin:0px;margin-left:4px;&quot;&gt;+ SetSceneCamera(camera: Camera2D): void&lt;/p&gt;&lt;p style=&quot;margin:0px;margin-left:4px;&quot;&gt;+ SetCollisionHandler(collisionHandler: CollisionHandler):void&lt;/p&gt;&lt;p style=&quot;margin:0px;margin-left:4px;&quot;&gt;+ InitializeCollisionSystem(worldWidth: float, worldHeight: float)&lt;/p&gt;&lt;p style=&quot;margin:0px;margin-left:4px;&quot;&gt;+ RegisterCharacterWithCollision(character: Character): void&lt;/p&gt;&lt;p style=&quot;margin:0px;margin-left:4px;&quot;&gt;&lt;br&gt;&lt;/p&gt;&lt;p style=&quot;margin:0px;margin-left:4px;&quot;&gt;+ LoadLevel(): void&lt;/p&gt;&lt;p style=&quot;margin:0px;margin-left:4px;&quot;&gt;+ RestartCurrentLevel( character: Character): void&lt;/p&gt;&lt;p style=&quot;margin:0px;margin-left:4px;&quot;&gt;&lt;br&gt;&lt;/p&gt;&lt;p style=&quot;margin:0px;margin-left:4px;&quot;&gt;+ Update(deltaTime: float, activeCharacter: Character): void&lt;/p&gt;&lt;p style=&quot;margin:0px;margin-left:4px;&quot;&gt;+ UpdateCollisionSystem(): void&lt;/p&gt;&lt;p style=&quot;margin:0px;margin-left:4px;&quot;&gt;+ UpdateTime(): void&lt;/p&gt;&lt;p style=&quot;margin:0px;margin-left:4px;&quot;&gt;+ HitBlock(block: GameObject, character: Character): void&lt;/p&gt;&lt;p style=&quot;margin:0px;margin-left:4px;&quot;&gt;+ OnPlayerDeath(character: Character): void&lt;/p&gt;&lt;p style=&quot;margin:0px;margin-left:4px;&quot;&gt;&lt;br&gt;&lt;/p&gt;&lt;p style=&quot;margin:0px;margin-left:4px;&quot;&gt;+ DrawLevel(): void&lt;/p&gt;&lt;p style=&quot;margin:0px;margin-left:4px;&quot;&gt;&lt;br&gt;&lt;/p&gt;&lt;p style=&quot;margin:0px;margin-left:4px;&quot;&gt;+ IsPaused(): bool&lt;/p&gt;&lt;p style=&quot;margin:0px;margin-left:4px;&quot;&gt;+ IsGameOver(): bool&lt;/p&gt;&lt;p style=&quot;margin:0px;margin-left:4px;&quot;&gt;+ GetLives(): int&lt;/p&gt;&lt;p style=&quot;margin:0px;margin-left:4px;&quot;&gt;+ GetSpawnPoint(): Vector2&lt;/p&gt;&lt;p style=&quot;margin:0px;margin-left:4px;&quot;&gt;&lt;br&gt;&lt;/p&gt;&lt;p style=&quot;margin:0px;margin-left:4px;&quot;&gt;+ CreateBlockFromType(type: int, position: Vector2): void&lt;/p&gt;&lt;p style=&quot;margin:0px;margin-left:4px;&quot;&gt;+Create SpecialBlockFromType( type: int, position: Vector2): void&lt;/p&gt;&lt;p style=&quot;margin:0px;margin-left:4px;&quot;&gt;+ CreateEnemyFromType(type: int, position: Vector2): void&lt;/p&gt;&lt;p style=&quot;margin:0px;margin-left:4px;&quot;&gt;&lt;br&gt;&lt;/p&gt;" style="verticalAlign=top;align=left;overflow=fill;html=1;whiteSpace=wrap;glass=0;fillColor=#dae8fc;strokeColor=#6c8ebf;" parent="1" vertex="1">
          <mxGeometry x="2660" y="-670" width="380" height="590" as="geometry" />
        </mxCell>
        <mxCell id="idwGcyg0NZIY-Tr2IAWl-82" style="edgeStyle=orthogonalEdgeStyle;rounded=0;orthogonalLoop=1;jettySize=auto;html=1;entryX=0;entryY=0.25;entryDx=0;entryDy=0;endArrow=none;endFill=0;" parent="1" source="idwGcyg0NZIY-Tr2IAWl-30" target="idwGcyg0NZIY-Tr2IAWl-29" edge="1">
          <mxGeometry relative="1" as="geometry">
            <Array as="points">
              <mxPoint x="2480" y="-355" />
              <mxPoint x="2480" y="-525" />
            </Array>
          </mxGeometry>
        </mxCell>
        <mxCell id="idwGcyg0NZIY-Tr2IAWl-30" value="&lt;p style=&quot;margin:0px;margin-top:4px;text-align:center;&quot;&gt;&lt;b&gt;&amp;lt;&amp;lt;struct&amp;gt;&amp;gt;&lt;/b&gt;&lt;/p&gt;&lt;p style=&quot;margin:0px;margin-top:4px;text-align:center;&quot;&gt;&lt;b&gt;Particle&lt;/b&gt;&lt;/p&gt;&lt;hr size=&quot;1&quot; style=&quot;border-style:solid;&quot;&gt;&lt;p style=&quot;margin:0px;margin-left:4px;&quot;&gt;+ position: Vector2&lt;/p&gt;&lt;p style=&quot;margin:0px;margin-left:4px;&quot;&gt;+ velocity: Vector2&lt;/p&gt;&lt;p style=&quot;margin:0px;margin-left:4px;&quot;&gt;+ color: Color&lt;/p&gt;&lt;p style=&quot;margin:0px;margin-left:4px;&quot;&gt;+ life: float&lt;/p&gt;&lt;p style=&quot;margin:0px;margin-left:4px;&quot;&gt;+ maxLife: float&lt;/p&gt;&lt;hr size=&quot;1&quot; style=&quot;border-style:solid;&quot;&gt;" style="verticalAlign=top;align=left;overflow=fill;html=1;whiteSpace=wrap;fillColor=#dae8fc;strokeColor=#6c8ebf;" parent="1" vertex="1">
          <mxGeometry x="2180" y="-420" width="220" height="130" as="geometry" />
        </mxCell>
        <mxCell id="idwGcyg0NZIY-Tr2IAWl-31" style="edgeStyle=orthogonalEdgeStyle;rounded=0;orthogonalLoop=1;jettySize=auto;html=1;entryX=0;entryY=0;entryDx=210;entryDy=87;entryPerimeter=0;dashed=1;endArrow=open;endFill=0;" parent="1" source="idwGcyg0NZIY-Tr2IAWl-29" target="idwGcyg0NZIY-Tr2IAWl-23" edge="1">
          <mxGeometry relative="1" as="geometry" />
        </mxCell>
        <mxCell id="idwGcyg0NZIY-Tr2IAWl-38" style="edgeStyle=orthogonalEdgeStyle;rounded=0;orthogonalLoop=1;jettySize=auto;html=1;entryX=0.75;entryY=0;entryDx=0;entryDy=0;endArrow=none;endFill=0;" parent="1" source="idwGcyg0NZIY-Tr2IAWl-37" target="idwGcyg0NZIY-Tr2IAWl-29" edge="1">
          <mxGeometry relative="1" as="geometry" />
        </mxCell>
        <mxCell id="idwGcyg0NZIY-Tr2IAWl-39" style="edgeStyle=orthogonalEdgeStyle;rounded=0;orthogonalLoop=1;jettySize=auto;html=1;entryX=0.75;entryY=0;entryDx=0;entryDy=0;endArrow=none;endFill=0;" parent="1" source="idwGcyg0NZIY-Tr2IAWl-37" target="8gXxlpxFFR-SjeP47l6D-2" edge="1">
          <mxGeometry relative="1" as="geometry">
            <Array as="points">
              <mxPoint x="455" y="-910" />
              <mxPoint x="455" y="320" />
              <mxPoint x="335" y="320" />
              <mxPoint x="335" y="350" />
              <mxPoint x="165" y="350" />
            </Array>
          </mxGeometry>
        </mxCell>
        <mxCell id="idwGcyg0NZIY-Tr2IAWl-57" style="edgeStyle=orthogonalEdgeStyle;rounded=0;orthogonalLoop=1;jettySize=auto;html=1;endArrow=none;endFill=0;" parent="1" source="idwGcyg0NZIY-Tr2IAWl-37" target="idwGcyg0NZIY-Tr2IAWl-53" edge="1">
          <mxGeometry relative="1" as="geometry" />
        </mxCell>
        <mxCell id="idwGcyg0NZIY-Tr2IAWl-37" value="&lt;p style=&quot;margin:0px;margin-top:4px;text-align:center;&quot;&gt;&lt;b&gt;CollisionHandler&lt;/b&gt;&lt;/p&gt;&lt;hr size=&quot;1&quot; style=&quot;border-style:solid;&quot;&gt;&lt;p style=&quot;margin:0px;margin-left:4px;&quot;&gt;- character_: Character&lt;/p&gt;&lt;p style=&quot;margin:0px;margin-left:4px;&quot;&gt;- projectile_list_: vector&amp;lt;Projectile&amp;gt;&lt;/p&gt;&lt;p style=&quot;margin:0px;margin-left:4px;&quot;&gt;- object_list_: vector&amp;lt;Object&amp;gt;&lt;/p&gt;&lt;p style=&quot;margin:0px;margin-left:4px;&quot;&gt;- enemy_list_: vector&amp;lt;Enemy&amp;gt;&lt;/p&gt;&lt;p style=&quot;margin:0px;margin-left:4px;&quot;&gt;- grid_: vector&amp;lt;vector&amp;lt;list&amp;lt;pair&amp;lt;int,int&amp;gt;&amp;gt;&amp;gt;&amp;gt;&lt;/p&gt;&lt;p style=&quot;margin:0px;margin-left:4px;&quot;&gt;- rows_, columns_: int&lt;/p&gt;&lt;hr size=&quot;1&quot; style=&quot;border-style:solid;&quot;&gt;&lt;p style=&quot;margin:0px;margin-left:4px;&quot;&gt;+ AddCharacter(character: Character): void&lt;/p&gt;&lt;p style=&quot;margin:0px;margin-left:4px;&quot;&gt;+ AddProjectile(projectile: Projectile): void&lt;/p&gt;&lt;p style=&quot;margin:0px;margin-left:4px;&quot;&gt;+ AddObject(object: Object): void&lt;/p&gt;&lt;p style=&quot;margin:0px;margin-left:4px;&quot;&gt;+ AddEnemy(enemy: Enemy): void&lt;/p&gt;&lt;p style=&quot;margin:0px;margin-left:4px;&quot;&gt;&lt;br&gt;&lt;/p&gt;&lt;p style=&quot;margin:0px;margin-left:4px;&quot;&gt;+ RemoveObject(index: int): void&lt;/p&gt;&lt;p style=&quot;margin:0px;margin-left:4px;&quot;&gt;+ RemoveEnemy(index: int): void&lt;/p&gt;&lt;p style=&quot;margin:0px;margin-left:4px;&quot;&gt;&lt;br&gt;&lt;/p&gt;&lt;p style=&quot;margin:0px;margin-left:4px;&quot;&gt;+ CheckCollision(): void&lt;/p&gt;&lt;p style=&quot;margin:0px;margin-left:4px;&quot;&gt;&lt;br&gt;&lt;/p&gt;" style="verticalAlign=top;align=left;overflow=fill;html=1;whiteSpace=wrap;fillColor=#ffe6cc;strokeColor=#d79b00;" parent="1" vertex="1">
          <mxGeometry x="3150" y="-1000" width="290" height="280" as="geometry" />
        </mxCell>
        <mxCell id="idwGcyg0NZIY-Tr2IAWl-42" style="edgeStyle=orthogonalEdgeStyle;rounded=0;orthogonalLoop=1;jettySize=auto;html=1;entryX=0.75;entryY=1;entryDx=0;entryDy=0;endArrow=none;endFill=0;" parent="1" source="idwGcyg0NZIY-Tr2IAWl-41" target="8gXxlpxFFR-SjeP47l6D-2" edge="1">
          <mxGeometry relative="1" as="geometry">
            <mxPoint x="-2106.666666666667" y="590" as="targetPoint" />
            <Array as="points">
              <mxPoint x="2770" y="890" />
              <mxPoint x="455" y="890" />
              <mxPoint x="455" y="640" />
              <mxPoint x="165" y="640" />
            </Array>
          </mxGeometry>
        </mxCell>
        <mxCell id="idwGcyg0NZIY-Tr2IAWl-41" value="&lt;p style=&quot;margin:0px;margin-top:4px;text-align:center;&quot;&gt;&lt;b&gt;Command&lt;/b&gt;&lt;/p&gt;&lt;hr size=&quot;1&quot; style=&quot;border-style:solid;&quot;&gt;&lt;p style=&quot;margin:0px;margin-left:4px;&quot;&gt;- character_: Character&lt;/p&gt;&lt;p style=&quot;margin:0px;margin-left:4px;&quot;&gt;- projectile_pool_: ProjectilePool&lt;/p&gt;&lt;p style=&quot;margin:0px;margin-left:4px;&quot;&gt;- instructions_button_: Button&lt;/p&gt;&lt;hr size=&quot;1&quot; style=&quot;border-style:solid;&quot;&gt;&lt;div&gt;+ SetCharacter(character: Character): void&lt;/div&gt;&lt;div&gt;+ InitializeProjectileBool(projectilePool: ProjectilePool): void&lt;/div&gt;&lt;div&gt;+ GetActiveCharacter(): void&lt;/div&gt;&lt;div&gt;+&amp;nbsp; GetProjectilePool(): ProjectilePool&lt;/div&gt;&lt;div&gt;&lt;br&gt;&lt;/div&gt;&lt;div&gt;+ HandleInput(): void&lt;/div&gt;&lt;div&gt;&lt;br&gt;&lt;/div&gt;&lt;div&gt;+ UpdateProjectile(): void&lt;/div&gt;&lt;div&gt;+ DrawProjectile(): void&lt;/div&gt;&lt;div&gt;&lt;br&gt;&lt;/div&gt;&lt;div&gt;+ MoveCharacter(left: bool): void&lt;/div&gt;&lt;div&gt;+ StopCharacter(): void&lt;/div&gt;&lt;div&gt;+ JumpCharacter(): void&lt;/div&gt;&lt;div&gt;+ ShootFireball(): void&lt;/div&gt;&lt;div&gt;&lt;br&gt;&lt;/div&gt;&lt;div&gt;+ InitializeInstructionButtons(): void&lt;/div&gt;&lt;div&gt;+ UpdateInstructionButtons(): void&lt;/div&gt;&lt;div&gt;+ DrawInstructionButtons(): void&lt;/div&gt;&lt;div&gt;&lt;br&gt;&lt;/div&gt;&lt;div&gt;&lt;br&gt;&lt;/div&gt;" style="verticalAlign=top;align=left;overflow=fill;html=1;whiteSpace=wrap;fillColor=#dae8fc;strokeColor=#6c8ebf;" parent="1" vertex="1">
          <mxGeometry x="2660" y="10" width="380" height="367" as="geometry" />
        </mxCell>
        <mxCell id="idwGcyg0NZIY-Tr2IAWl-127" style="edgeStyle=orthogonalEdgeStyle;rounded=0;orthogonalLoop=1;jettySize=auto;html=1;entryX=1;entryY=0.358;entryDx=0;entryDy=0;entryPerimeter=0;endArrow=open;endFill=0;" parent="1" source="idwGcyg0NZIY-Tr2IAWl-43" target="AHXedSF2T4ECdz9KEYdW-1" edge="1">
          <mxGeometry relative="1" as="geometry">
            <mxPoint x="3900" y="-290" as="targetPoint" />
            <Array as="points">
              <mxPoint x="4590" y="-1470" />
              <mxPoint x="1680" y="-1470" />
              <mxPoint x="1680" y="-532" />
            </Array>
          </mxGeometry>
        </mxCell>
        <mxCell id="idwGcyg0NZIY-Tr2IAWl-43" value="Character" style="swimlane;fontStyle=1;align=center;verticalAlign=top;childLayout=stackLayout;horizontal=1;startSize=26;horizontalStack=0;resizeParent=1;resizeParentMax=0;resizeLast=0;collapsible=1;marginBottom=0;whiteSpace=wrap;html=1;fillColor=#f8cecc;strokeColor=#b85450;" parent="1" vertex="1">
          <mxGeometry x="4570" y="-1386" width="220" height="480" as="geometry" />
        </mxCell>
        <mxCell id="idwGcyg0NZIY-Tr2IAWl-44" value="&lt;div&gt;- pState: CharacterState&lt;/div&gt;&lt;div&gt;- type_: CharacterType&lt;/div&gt;&lt;div&gt;- state: int&lt;/div&gt;&lt;div&gt;- scale: float&lt;/div&gt;" style="text;strokeColor=#b85450;fillColor=#f8cecc;align=left;verticalAlign=top;spacingLeft=4;spacingRight=4;overflow=hidden;rotatable=0;points=[[0,0.5],[1,0.5]];portConstraint=eastwest;whiteSpace=wrap;html=1;" parent="idwGcyg0NZIY-Tr2IAWl-43" vertex="1">
          <mxGeometry y="26" width="220" height="74" as="geometry" />
        </mxCell>
        <mxCell id="idwGcyg0NZIY-Tr2IAWl-45" value="" style="line;strokeWidth=1;fillColor=#f8cecc;align=left;verticalAlign=middle;spacingTop=-1;spacingLeft=3;spacingRight=3;rotatable=0;labelPosition=right;points=[];portConstraint=eastwest;strokeColor=#b85450;" parent="idwGcyg0NZIY-Tr2IAWl-43" vertex="1">
          <mxGeometry y="100" width="220" height="8" as="geometry" />
        </mxCell>
        <mxCell id="idwGcyg0NZIY-Tr2IAWl-46" value="&lt;div&gt;+ SetCharacter(type: Character, position: Vector2): void&lt;/div&gt;&lt;div&gt;+ SetState(state: int, is_evolving_:bool): void&lt;/div&gt;&lt;div&gt;&lt;br&gt;&lt;/div&gt;&lt;div&gt;+ GetCharacter(): CharacterType&lt;/div&gt;&lt;div&gt;+ GetState(): CharacterState&lt;/div&gt;&lt;div&gt;&lt;br&gt;&lt;/div&gt;&lt;div&gt;+ Draw(): void&lt;/div&gt;&lt;div&gt;+ Run(to_left_: bool): void&lt;/div&gt;&lt;div&gt;+ Jump(): void&lt;/div&gt;&lt;div&gt;+ Update(): void&lt;/div&gt;&lt;div&gt;+ SetFrameCount(): void&lt;/div&gt;&lt;div&gt;+ StopX(): void&lt;/div&gt;&lt;div&gt;+ StopY(Ny: float): void&lt;/div&gt;&lt;div&gt;+ GetSpeed(): Vector2&lt;/div&gt;&lt;div&gt;+ IsFalling(): bool&lt;/div&gt;&lt;div&gt;+ Die(): void&lt;/div&gt;&lt;div&gt;+ Evolve(): void&lt;/div&gt;&lt;div&gt;+ ToStarman(): void&lt;/div&gt;&lt;div&gt;+ Bounce(): void&lt;/div&gt;&lt;div&gt;+ GetRectangle(): Rectangle&lt;/div&gt;&lt;div&gt;+ IsToLeft(): bool&lt;/div&gt;&lt;div&gt;+ IsFalling(): bool&lt;/div&gt;&lt;div&gt;+ IsDead(): bool&lt;/div&gt;&lt;div&gt;&lt;br&gt;&lt;/div&gt;&lt;div&gt;&lt;br&gt;&lt;/div&gt;" style="text;strokeColor=#b85450;fillColor=#f8cecc;align=left;verticalAlign=top;spacingLeft=4;spacingRight=4;overflow=hidden;rotatable=0;points=[[0,0.5],[1,0.5]];portConstraint=eastwest;whiteSpace=wrap;html=1;" parent="idwGcyg0NZIY-Tr2IAWl-43" vertex="1">
          <mxGeometry y="108" width="220" height="372" as="geometry" />
        </mxCell>
        <mxCell id="idwGcyg0NZIY-Tr2IAWl-47" value="&lt;div&gt;&lt;span style=&quot;font-weight: normal;&quot;&gt;&amp;lt;&amp;lt;interface&amp;gt;&amp;gt;&lt;/span&gt;&lt;/div&gt;&lt;div&gt;&lt;i&gt;CharacterState&lt;/i&gt;&lt;/div&gt;" style="swimlane;fontStyle=1;align=center;verticalAlign=top;childLayout=stackLayout;horizontal=1;startSize=40;horizontalStack=0;resizeParent=1;resizeParentMax=0;resizeLast=0;collapsible=1;marginBottom=0;whiteSpace=wrap;html=1;fillColor=#f8cecc;strokeColor=#b85450;" parent="1" vertex="1">
          <mxGeometry x="4980" y="-1330" width="220" height="424" as="geometry" />
        </mxCell>
        <mxCell id="idwGcyg0NZIY-Tr2IAWl-48" value="&lt;div&gt;- context: Character&lt;/div&gt;&lt;div&gt;- position: Vector2&lt;/div&gt;&lt;div&gt;- speed: float&lt;/div&gt;&lt;div&gt;- jumpHeight, jumpTime: float&lt;/div&gt;&lt;div&gt;- scale: float&lt;/div&gt;&lt;div&gt;- runTime: float&lt;/div&gt;" style="text;strokeColor=#b85450;fillColor=#f8cecc;align=left;verticalAlign=top;spacingLeft=4;spacingRight=4;overflow=hidden;rotatable=0;points=[[0,0.5],[1,0.5]];portConstraint=eastwest;whiteSpace=wrap;html=1;" parent="idwGcyg0NZIY-Tr2IAWl-47" vertex="1">
          <mxGeometry y="40" width="220" height="114" as="geometry" />
        </mxCell>
        <mxCell id="idwGcyg0NZIY-Tr2IAWl-49" value="" style="line;strokeWidth=1;fillColor=#f8cecc;align=left;verticalAlign=middle;spacingTop=-1;spacingLeft=3;spacingRight=3;rotatable=0;labelPosition=right;points=[];portConstraint=eastwest;strokeColor=#b85450;" parent="idwGcyg0NZIY-Tr2IAWl-47" vertex="1">
          <mxGeometry y="154" width="220" height="8" as="geometry" />
        </mxCell>
        <mxCell id="idwGcyg0NZIY-Tr2IAWl-50" value="&lt;div&gt;+ &amp;lt;&amp;lt;virtual&amp;gt;&amp;gt; Draw(): void&lt;/div&gt;&lt;div&gt;+ &amp;lt;&amp;lt;virtual&amp;gt;&amp;gt; Update(): void&lt;/div&gt;&lt;div&gt;+ &amp;lt;&amp;lt;pure virtual&amp;gt;&amp;gt; Evolve(): void&lt;/div&gt;&lt;div&gt;+ &amp;lt;&amp;lt;pure virtual&amp;gt;&amp;gt; Die(): void&lt;/div&gt;&lt;div&gt;&lt;br&gt;&lt;/div&gt;&lt;div&gt;+ Run(to_left_: bool): void&lt;/div&gt;&lt;div&gt;+ Jump(): void&lt;/div&gt;&lt;div&gt;+ Bounce(): void&lt;/div&gt;&lt;div&gt;&lt;br&gt;&lt;/div&gt;&lt;div&gt;+ ToStarman(): void&lt;/div&gt;&lt;div&gt;+ IsStarman(): bool&lt;/div&gt;&lt;div&gt;&lt;br&gt;&lt;/div&gt;&lt;div&gt;+ GetRectangle(): Rectangle&lt;/div&gt;&lt;div&gt;+ GetSpeed(): Vector2&lt;/div&gt;&lt;div&gt;+ IsToLeft(): bool&lt;/div&gt;&lt;div&gt;+&amp;nbsp; IsFalling(): bool&lt;/div&gt;&lt;div&gt;+ IsDead(): bool&lt;/div&gt;" style="text;strokeColor=#b85450;fillColor=#f8cecc;align=left;verticalAlign=top;spacingLeft=4;spacingRight=4;overflow=hidden;rotatable=0;points=[[0,0.5],[1,0.5]];portConstraint=eastwest;whiteSpace=wrap;html=1;" parent="idwGcyg0NZIY-Tr2IAWl-47" vertex="1">
          <mxGeometry y="162" width="220" height="262" as="geometry" />
        </mxCell>
        <mxCell id="idwGcyg0NZIY-Tr2IAWl-77" style="edgeStyle=orthogonalEdgeStyle;rounded=0;orthogonalLoop=1;jettySize=auto;html=1;entryX=0.5;entryY=1;entryDx=0;entryDy=0;endArrow=diamond;endFill=1;startArrow=open;startFill=0;" parent="1" source="idwGcyg0NZIY-Tr2IAWl-52" target="idwGcyg0NZIY-Tr2IAWl-73" edge="1">
          <mxGeometry relative="1" as="geometry" />
        </mxCell>
        <mxCell id="idwGcyg0NZIY-Tr2IAWl-52" value="&lt;div&gt;&lt;span style=&quot;font-weight: normal;&quot;&gt;&amp;lt;&amp;lt;interface&amp;gt;&amp;gt;&lt;/span&gt;&lt;/div&gt;&lt;div&gt;&lt;i&gt;Projectile&amp;nbsp;&lt;/i&gt;&lt;/div&gt;" style="swimlane;fontStyle=1;align=center;verticalAlign=top;childLayout=stackLayout;horizontal=1;startSize=50;horizontalStack=0;resizeParent=1;resizeParentMax=0;resizeLast=0;collapsible=1;marginBottom=0;whiteSpace=wrap;html=1;fillColor=#ffe6cc;strokeColor=#d79b00;" parent="1" vertex="1">
          <mxGeometry x="3720" y="-1000" width="400" height="344" as="geometry" />
        </mxCell>
        <mxCell id="idwGcyg0NZIY-Tr2IAWl-53" value="&lt;div&gt;- texture_: Texture&lt;/div&gt;&lt;div&gt;- frame_list_: vector&amp;lt;Rectangle&amp;gt;&lt;/div&gt;&lt;div&gt;- position, velocity, original_position: Vector2&lt;/div&gt;&lt;div&gt;- time: int&lt;/div&gt;&lt;div&gt;- is_destroy_: bool&lt;/div&gt;&lt;div&gt;- scale: float&lt;/div&gt;" style="text;strokeColor=#d79b00;fillColor=#ffe6cc;align=left;verticalAlign=top;spacingLeft=4;spacingRight=4;overflow=hidden;rotatable=0;points=[[0,0.5],[1,0.5]];portConstraint=eastwest;whiteSpace=wrap;html=1;" parent="idwGcyg0NZIY-Tr2IAWl-52" vertex="1">
          <mxGeometry y="50" width="400" height="114" as="geometry" />
        </mxCell>
        <mxCell id="idwGcyg0NZIY-Tr2IAWl-54" value="" style="line;strokeWidth=1;fillColor=#f8cecc;align=left;verticalAlign=middle;spacingTop=-1;spacingLeft=3;spacingRight=3;rotatable=0;labelPosition=right;points=[];portConstraint=eastwest;strokeColor=#b85450;" parent="idwGcyg0NZIY-Tr2IAWl-52" vertex="1">
          <mxGeometry y="164" width="400" height="8" as="geometry" />
        </mxCell>
        <mxCell id="idwGcyg0NZIY-Tr2IAWl-55" value="&lt;div&gt;+ &amp;lt;&amp;lt;virtual&amp;gt;&amp;gt; Draw(): void&lt;/div&gt;&lt;div&gt;+ &amp;lt;&amp;lt;pure virtual&amp;gt;&amp;gt; Update(): void&lt;/div&gt;&lt;div&gt;+ &amp;lt;&amp;lt;virtual&amp;gt;&amp;gt; Destroy(): void&lt;/div&gt;&lt;div&gt;&lt;br&gt;&lt;/div&gt;&lt;div&gt;+ &amp;lt;&amp;lt;virtual&amp;gt;&amp;gt; Renew(NPosition: Vector2, to_left: bool): void&lt;/div&gt;&lt;div&gt;+ &amp;lt;&amp;lt;pure virtual&amp;gt;&amp;gt; stopY (stop_upper_: bool, stop_lower_: bool): void&lt;/div&gt;&lt;div&gt;+ &amp;lt;&amp;lt;pure virtual&amp;gt;&amp;gt; ReverseDirection(): void&lt;/div&gt;&lt;div&gt;&lt;br&gt;&lt;/div&gt;&lt;div&gt;+ &amp;lt;&amp;lt;pure virtual&amp;gt;&amp;gt; GetType(): void&lt;/div&gt;&lt;div&gt;+ GetSpeed(): Vector2&lt;/div&gt;" style="text;strokeColor=#d79b00;fillColor=#ffe6cc;align=left;verticalAlign=top;spacingLeft=4;spacingRight=4;overflow=hidden;rotatable=0;points=[[0,0.5],[1,0.5]];portConstraint=eastwest;whiteSpace=wrap;html=1;" parent="idwGcyg0NZIY-Tr2IAWl-52" vertex="1">
          <mxGeometry y="172" width="400" height="172" as="geometry" />
        </mxCell>
        <mxCell id="idwGcyg0NZIY-Tr2IAWl-58" value="MarioFireball" style="swimlane;fontStyle=1;align=center;verticalAlign=top;childLayout=stackLayout;horizontal=1;startSize=26;horizontalStack=0;resizeParent=1;resizeParentMax=0;resizeLast=0;collapsible=1;marginBottom=0;whiteSpace=wrap;html=1;fillColor=#ffe6cc;strokeColor=#d79b00;" parent="1" vertex="1">
          <mxGeometry x="3480" y="-600" width="270" height="220" as="geometry" />
        </mxCell>
        <mxCell id="idwGcyg0NZIY-Tr2IAWl-59" value="- gravity_, bounce_coefficient_, range_: float" style="text;strokeColor=#d79b00;fillColor=#ffe6cc;align=left;verticalAlign=top;spacingLeft=4;spacingRight=4;overflow=hidden;rotatable=0;points=[[0,0.5],[1,0.5]];portConstraint=eastwest;whiteSpace=wrap;html=1;" parent="idwGcyg0NZIY-Tr2IAWl-58" vertex="1">
          <mxGeometry y="26" width="270" height="44" as="geometry" />
        </mxCell>
        <mxCell id="idwGcyg0NZIY-Tr2IAWl-60" value="" style="line;strokeWidth=1;fillColor=#ffe6cc;align=left;verticalAlign=middle;spacingTop=-1;spacingLeft=3;spacingRight=3;rotatable=0;labelPosition=right;points=[];portConstraint=eastwest;strokeColor=#d79b00;" parent="idwGcyg0NZIY-Tr2IAWl-58" vertex="1">
          <mxGeometry y="70" width="270" height="8" as="geometry" />
        </mxCell>
        <mxCell id="idwGcyg0NZIY-Tr2IAWl-61" value="&lt;div&gt;+ &amp;lt;&amp;lt;override&amp;gt;&amp;gt; Draw(): void&lt;/div&gt;&lt;div&gt;+ &amp;lt;&amp;lt;override&amp;gt;&amp;gt; Update(): void&lt;/div&gt;&lt;div&gt;+ &amp;lt;&amp;lt;override&amp;gt;&amp;gt; Destroy(): void&lt;/div&gt;&lt;div&gt;+ &amp;lt;&amp;lt;override&amp;gt;&amp;gt; Renew(NPosition: Vector2, to_left: bool): void&lt;/div&gt;&lt;div&gt;+ &amp;lt;&amp;lt;override&amp;gt;&amp;gt; ReverseDirection(): void&lt;/div&gt;&lt;div&gt;+ &amp;lt;&amp;lt;override&amp;gt;&amp;gt; stopY(stop_upper_: bool, stop_lowr_: bool): void&lt;/div&gt;&lt;div&gt;+ &amp;lt;&amp;lt;override&amp;gt;&amp;gt; GetType(): void&lt;/div&gt;&lt;div&gt;&lt;br&gt;&lt;/div&gt;" style="text;strokeColor=#d79b00;fillColor=#ffe6cc;align=left;verticalAlign=top;spacingLeft=4;spacingRight=4;overflow=hidden;rotatable=0;points=[[0,0.5],[1,0.5]];portConstraint=eastwest;whiteSpace=wrap;html=1;" parent="idwGcyg0NZIY-Tr2IAWl-58" vertex="1">
          <mxGeometry y="78" width="270" height="142" as="geometry" />
        </mxCell>
        <mxCell id="idwGcyg0NZIY-Tr2IAWl-71" style="edgeStyle=orthogonalEdgeStyle;rounded=0;orthogonalLoop=1;jettySize=auto;html=1;entryX=0.5;entryY=1;entryDx=0;entryDy=0;endArrow=block;endFill=0;dashed=1;" parent="1" source="idwGcyg0NZIY-Tr2IAWl-62" target="idwGcyg0NZIY-Tr2IAWl-52" edge="1">
          <mxGeometry relative="1" as="geometry">
            <mxPoint x="4045" y="-670" as="targetPoint" />
          </mxGeometry>
        </mxCell>
        <mxCell id="idwGcyg0NZIY-Tr2IAWl-62" value="EnemyFireball" style="swimlane;fontStyle=1;align=center;verticalAlign=top;childLayout=stackLayout;horizontal=1;startSize=26;horizontalStack=0;resizeParent=1;resizeParentMax=0;resizeLast=0;collapsible=1;marginBottom=0;whiteSpace=wrap;html=1;fillColor=#ffe6cc;strokeColor=#d79b00;" parent="1" vertex="1">
          <mxGeometry x="3785" y="-600" width="270" height="220" as="geometry" />
        </mxCell>
        <mxCell id="idwGcyg0NZIY-Tr2IAWl-63" value="- range_: float" style="text;strokeColor=#d79b00;fillColor=#ffe6cc;align=left;verticalAlign=top;spacingLeft=4;spacingRight=4;overflow=hidden;rotatable=0;points=[[0,0.5],[1,0.5]];portConstraint=eastwest;whiteSpace=wrap;html=1;" parent="idwGcyg0NZIY-Tr2IAWl-62" vertex="1">
          <mxGeometry y="26" width="270" height="44" as="geometry" />
        </mxCell>
        <mxCell id="idwGcyg0NZIY-Tr2IAWl-64" value="" style="line;strokeWidth=1;fillColor=#ffe6cc;align=left;verticalAlign=middle;spacingTop=-1;spacingLeft=3;spacingRight=3;rotatable=0;labelPosition=right;points=[];portConstraint=eastwest;strokeColor=#d79b00;" parent="idwGcyg0NZIY-Tr2IAWl-62" vertex="1">
          <mxGeometry y="70" width="270" height="8" as="geometry" />
        </mxCell>
        <mxCell id="idwGcyg0NZIY-Tr2IAWl-65" value="&lt;div&gt;+ &amp;lt;&amp;lt;override&amp;gt;&amp;gt; Draw(): void&lt;/div&gt;&lt;div&gt;+ &amp;lt;&amp;lt;override&amp;gt;&amp;gt; Update(): void&lt;/div&gt;&lt;div&gt;+ &amp;lt;&amp;lt;override&amp;gt;&amp;gt; Destroy(): void&lt;/div&gt;&lt;div&gt;+ &amp;lt;&amp;lt;override&amp;gt;&amp;gt; Renew(NPosition: Vector2, to_left: bool): void&lt;/div&gt;&lt;div&gt;+ &amp;lt;&amp;lt;override&amp;gt;&amp;gt; ReverseDirection(): void&lt;/div&gt;&lt;div&gt;+ &amp;lt;&amp;lt;override&amp;gt;&amp;gt; stopY(stop_upper_: bool, stop_lowr_: bool): void&lt;/div&gt;&lt;div&gt;+ &amp;lt;&amp;lt;override&amp;gt;&amp;gt; GetType(): void&lt;/div&gt;&lt;div&gt;&lt;br&gt;&lt;br&gt;&lt;/div&gt;" style="text;strokeColor=#d79b00;fillColor=#ffe6cc;align=left;verticalAlign=top;spacingLeft=4;spacingRight=4;overflow=hidden;rotatable=0;points=[[0,0.5],[1,0.5]];portConstraint=eastwest;whiteSpace=wrap;html=1;" parent="idwGcyg0NZIY-Tr2IAWl-62" vertex="1">
          <mxGeometry y="78" width="270" height="142" as="geometry" />
        </mxCell>
        <mxCell id="idwGcyg0NZIY-Tr2IAWl-72" style="edgeStyle=orthogonalEdgeStyle;rounded=0;orthogonalLoop=1;jettySize=auto;html=1;entryX=0.75;entryY=1;entryDx=0;entryDy=0;endArrow=block;endFill=0;dashed=1;" parent="1" source="idwGcyg0NZIY-Tr2IAWl-66" target="idwGcyg0NZIY-Tr2IAWl-52" edge="1">
          <mxGeometry relative="1" as="geometry" />
        </mxCell>
        <mxCell id="idwGcyg0NZIY-Tr2IAWl-66" value="Electricball" style="swimlane;fontStyle=1;align=center;verticalAlign=top;childLayout=stackLayout;horizontal=1;startSize=26;horizontalStack=0;resizeParent=1;resizeParentMax=0;resizeLast=0;collapsible=1;marginBottom=0;whiteSpace=wrap;html=1;fillColor=#ffe6cc;strokeColor=#d79b00;" parent="1" vertex="1">
          <mxGeometry x="4100" y="-600" width="270" height="220" as="geometry" />
        </mxCell>
        <mxCell id="idwGcyg0NZIY-Tr2IAWl-67" value="- time_explode_, is_explode_, range_: float" style="text;strokeColor=#d79b00;fillColor=#ffe6cc;align=left;verticalAlign=top;spacingLeft=4;spacingRight=4;overflow=hidden;rotatable=0;points=[[0,0.5],[1,0.5]];portConstraint=eastwest;whiteSpace=wrap;html=1;" parent="idwGcyg0NZIY-Tr2IAWl-66" vertex="1">
          <mxGeometry y="26" width="270" height="44" as="geometry" />
        </mxCell>
        <mxCell id="idwGcyg0NZIY-Tr2IAWl-68" value="" style="line;strokeWidth=1;fillColor=#f8cecc;align=left;verticalAlign=middle;spacingTop=-1;spacingLeft=3;spacingRight=3;rotatable=0;labelPosition=right;points=[];portConstraint=eastwest;strokeColor=#b85450;" parent="idwGcyg0NZIY-Tr2IAWl-66" vertex="1">
          <mxGeometry y="70" width="270" height="8" as="geometry" />
        </mxCell>
        <mxCell id="idwGcyg0NZIY-Tr2IAWl-69" value="&lt;div&gt;+ &amp;lt;&amp;lt;override&amp;gt;&amp;gt; Draw(): void&lt;/div&gt;&lt;div&gt;+ &amp;lt;&amp;lt;override&amp;gt;&amp;gt; Update(): void&lt;/div&gt;&lt;div&gt;+ &amp;lt;&amp;lt;override&amp;gt;&amp;gt; Destroy(): void&lt;/div&gt;&lt;div&gt;+ &amp;lt;&amp;lt;override&amp;gt;&amp;gt; Renew(NPosition: Vector2, to_left: bool): void&lt;/div&gt;&lt;div&gt;+ &amp;lt;&amp;lt;override&amp;gt;&amp;gt; ReverseDirection(): void&lt;/div&gt;&lt;div&gt;+ &amp;lt;&amp;lt;override&amp;gt;&amp;gt; stopY(stop_upper_: bool, stop_lowr_: bool): void&lt;/div&gt;&lt;div&gt;+ &amp;lt;&amp;lt;override&amp;gt;&amp;gt; GetType(): void&lt;/div&gt;&lt;div&gt;&lt;br&gt;&lt;br&gt;&lt;/div&gt;" style="text;strokeColor=#d79b00;fillColor=#ffe6cc;align=left;verticalAlign=top;spacingLeft=4;spacingRight=4;overflow=hidden;rotatable=0;points=[[0,0.5],[1,0.5]];portConstraint=eastwest;whiteSpace=wrap;html=1;" parent="idwGcyg0NZIY-Tr2IAWl-66" vertex="1">
          <mxGeometry y="78" width="270" height="142" as="geometry" />
        </mxCell>
        <mxCell id="idwGcyg0NZIY-Tr2IAWl-70" style="edgeStyle=orthogonalEdgeStyle;rounded=0;orthogonalLoop=1;jettySize=auto;html=1;entryX=0.25;entryY=1;entryDx=0;entryDy=0;endArrow=block;endFill=0;dashed=1;" parent="1" source="idwGcyg0NZIY-Tr2IAWl-58" target="idwGcyg0NZIY-Tr2IAWl-52" edge="1">
          <mxGeometry relative="1" as="geometry" />
        </mxCell>
        <mxCell id="idwGcyg0NZIY-Tr2IAWl-73" value="ProjectilePool&amp;nbsp;" style="swimlane;fontStyle=1;align=center;verticalAlign=top;childLayout=stackLayout;horizontal=1;startSize=26;horizontalStack=0;resizeParent=1;resizeParentMax=0;resizeLast=0;collapsible=1;marginBottom=0;whiteSpace=wrap;html=1;fillColor=#ffe6cc;strokeColor=#d79b00;" parent="1" vertex="1">
          <mxGeometry x="3720" y="-1390" width="400" height="270" as="geometry" />
        </mxCell>
        <mxCell id="idwGcyg0NZIY-Tr2IAWl-74" value="&lt;div&gt;- projectile_list_: vector&amp;lt;Projectile&amp;gt;&lt;/div&gt;&lt;div&gt;- collision: CollisionHandler&lt;/div&gt;&lt;div&gt;- time_, time_mark_: int&lt;/div&gt;" style="text;strokeColor=#d79b00;fillColor=#ffe6cc;align=left;verticalAlign=top;spacingLeft=4;spacingRight=4;overflow=hidden;rotatable=0;points=[[0,0.5],[1,0.5]];portConstraint=eastwest;whiteSpace=wrap;html=1;" parent="idwGcyg0NZIY-Tr2IAWl-73" vertex="1">
          <mxGeometry y="26" width="400" height="64" as="geometry" />
        </mxCell>
        <mxCell id="idwGcyg0NZIY-Tr2IAWl-75" value="" style="line;strokeWidth=1;fillColor=#f8cecc;align=left;verticalAlign=middle;spacingTop=-1;spacingLeft=3;spacingRight=3;rotatable=0;labelPosition=right;points=[];portConstraint=eastwest;strokeColor=#b85450;" parent="idwGcyg0NZIY-Tr2IAWl-73" vertex="1">
          <mxGeometry y="90" width="400" height="8" as="geometry" />
        </mxCell>
        <mxCell id="idwGcyg0NZIY-Tr2IAWl-76" value="&lt;div&gt;+ ShootEnemyFireball(NPosition: Vector2, to_left_: bool): void&lt;/div&gt;&lt;div&gt;+ ShootMarioFireball(NPosition: Vector2, to_left_: bool): void&lt;/div&gt;&lt;div&gt;+ ShootElectricball(NPosition: Vector2, to_left_: bool): void&lt;/div&gt;&lt;div&gt;&lt;br&gt;&lt;/div&gt;&lt;div&gt;+ SetFrameCount(): void&lt;/div&gt;&lt;div&gt;+ Update(): void&lt;/div&gt;&lt;div&gt;+ Draw(): void&lt;/div&gt;&lt;div&gt;&lt;br&gt;&lt;/div&gt;&lt;div&gt;+ HasActiveMarioFireball(): bool&lt;/div&gt;&lt;div&gt;+ HasActiveElectricball(): bool&lt;/div&gt;" style="text;strokeColor=#d79b00;fillColor=#ffe6cc;align=left;verticalAlign=top;spacingLeft=4;spacingRight=4;overflow=hidden;rotatable=0;points=[[0,0.5],[1,0.5]];portConstraint=eastwest;whiteSpace=wrap;html=1;" parent="idwGcyg0NZIY-Tr2IAWl-73" vertex="1">
          <mxGeometry y="98" width="400" height="172" as="geometry" />
        </mxCell>
        <mxCell id="idwGcyg0NZIY-Tr2IAWl-81" style="edgeStyle=orthogonalEdgeStyle;rounded=0;orthogonalLoop=1;jettySize=auto;html=1;entryX=1;entryY=0.25;entryDx=0;entryDy=0;endArrow=none;endFill=0;" parent="1" source="idwGcyg0NZIY-Tr2IAWl-74" target="idwGcyg0NZIY-Tr2IAWl-41" edge="1">
          <mxGeometry relative="1" as="geometry">
            <Array as="points">
              <mxPoint x="3100" y="-1332" />
              <mxPoint x="3100" y="102" />
            </Array>
          </mxGeometry>
        </mxCell>
        <mxCell id="idwGcyg0NZIY-Tr2IAWl-83" value="" style="endArrow=diamondThin;endFill=0;endSize=24;html=1;rounded=0;entryX=1;entryY=0.5;entryDx=0;entryDy=0;exitX=0;exitY=0.25;exitDx=0;exitDy=0;startArrow=open;startFill=0;" parent="1" source="idwGcyg0NZIY-Tr2IAWl-47" target="idwGcyg0NZIY-Tr2IAWl-43" edge="1">
          <mxGeometry width="160" relative="1" as="geometry">
            <mxPoint x="4770" y="-1150" as="sourcePoint" />
            <mxPoint x="4930" y="-1150" as="targetPoint" />
            <Array as="points">
              <mxPoint x="4850" y="-1224" />
              <mxPoint x="4850" y="-1150" />
            </Array>
          </mxGeometry>
        </mxCell>
        <mxCell id="idwGcyg0NZIY-Tr2IAWl-119" value="" style="shape=waypoint;sketch=0;fillStyle=solid;size=6;pointerEvents=1;points=[];fillColor=none;resizable=0;rotatable=0;perimeter=centerPerimeter;snapToPoint=1;" parent="1" vertex="1">
          <mxGeometry x="5080" y="-880" width="20" height="20" as="geometry" />
        </mxCell>
        <mxCell id="idwGcyg0NZIY-Tr2IAWl-120" style="edgeStyle=orthogonalEdgeStyle;rounded=0;orthogonalLoop=1;jettySize=auto;html=1;entryX=0.564;entryY=0.674;entryDx=0;entryDy=0;entryPerimeter=0;dashed=1;endArrow=none;endFill=0;" parent="1" source="idwGcyg0NZIY-Tr2IAWl-91" target="idwGcyg0NZIY-Tr2IAWl-119" edge="1">
          <mxGeometry relative="1" as="geometry">
            <Array as="points">
              <mxPoint x="4680" y="-830" />
              <mxPoint x="5080" y="-830" />
            </Array>
          </mxGeometry>
        </mxCell>
        <mxCell id="idwGcyg0NZIY-Tr2IAWl-121" style="edgeStyle=orthogonalEdgeStyle;rounded=0;orthogonalLoop=1;jettySize=auto;html=1;entryX=0.66;entryY=0.998;entryDx=0;entryDy=0;entryPerimeter=0;dashed=1;endArrow=none;endFill=0;" parent="1" source="idwGcyg0NZIY-Tr2IAWl-98" target="idwGcyg0NZIY-Tr2IAWl-119" edge="1">
          <mxGeometry relative="1" as="geometry">
            <Array as="points">
              <mxPoint x="4870" y="-830" />
              <mxPoint x="5080" y="-830" />
            </Array>
          </mxGeometry>
        </mxCell>
        <mxCell id="idwGcyg0NZIY-Tr2IAWl-122" style="edgeStyle=orthogonalEdgeStyle;rounded=0;orthogonalLoop=1;jettySize=auto;html=1;entryX=1.06;entryY=0.35;entryDx=0;entryDy=0;entryPerimeter=0;dashed=1;endArrow=none;endFill=0;" parent="1" source="idwGcyg0NZIY-Tr2IAWl-102" target="idwGcyg0NZIY-Tr2IAWl-119" edge="1">
          <mxGeometry relative="1" as="geometry">
            <Array as="points">
              <mxPoint x="5060" y="-810" />
              <mxPoint x="5080" y="-810" />
            </Array>
          </mxGeometry>
        </mxCell>
        <mxCell id="idwGcyg0NZIY-Tr2IAWl-91" value="NormalMario" style="swimlane;fontStyle=1;align=center;verticalAlign=top;childLayout=stackLayout;horizontal=1;startSize=26;horizontalStack=0;resizeParent=1;resizeParentMax=0;resizeLast=0;collapsible=1;marginBottom=0;whiteSpace=wrap;html=1;fillColor=#f8cecc;strokeColor=#b85450;" parent="1" vertex="1">
          <mxGeometry x="4610" y="-780" width="160" height="180" as="geometry" />
        </mxCell>
        <mxCell id="idwGcyg0NZIY-Tr2IAWl-92" value="&lt;div&gt;- pre_texture_: Texture&lt;/div&gt;&lt;div&gt;- pre_frame_: Rectangle&lt;/div&gt;" style="text;strokeColor=#b85450;fillColor=#f8cecc;align=left;verticalAlign=top;spacingLeft=4;spacingRight=4;overflow=hidden;rotatable=0;points=[[0,0.5],[1,0.5]];portConstraint=eastwest;whiteSpace=wrap;html=1;" parent="idwGcyg0NZIY-Tr2IAWl-91" vertex="1">
          <mxGeometry y="26" width="160" height="44" as="geometry" />
        </mxCell>
        <mxCell id="idwGcyg0NZIY-Tr2IAWl-97" value="&lt;div&gt;+ &amp;lt;&amp;lt;override&amp;gt;&amp;gt; Update(): void&lt;/div&gt;&lt;div&gt;+ &amp;lt;&amp;lt;override&amp;gt;&amp;gt; Draw(): void&lt;/div&gt;&lt;div&gt;+ &amp;lt;&amp;lt;override&amp;gt;&amp;gt; Evolve(): void&lt;/div&gt;&lt;div&gt;+ &amp;lt;&amp;lt;override&amp;gt;&amp;gt; Die(): void&lt;/div&gt;" style="text;strokeColor=#b85450;fillColor=#f8cecc;align=left;verticalAlign=top;spacingLeft=4;spacingRight=4;overflow=hidden;rotatable=0;points=[[0,0.5],[1,0.5]];portConstraint=eastwest;whiteSpace=wrap;html=1;" parent="idwGcyg0NZIY-Tr2IAWl-91" vertex="1">
          <mxGeometry y="70" width="160" height="110" as="geometry" />
        </mxCell>
        <mxCell id="idwGcyg0NZIY-Tr2IAWl-98" value="FireMario" style="swimlane;fontStyle=1;align=center;verticalAlign=top;childLayout=stackLayout;horizontal=1;startSize=26;horizontalStack=0;resizeParent=1;resizeParentMax=0;resizeLast=0;collapsible=1;marginBottom=0;whiteSpace=wrap;html=1;fillColor=#f8cecc;strokeColor=#b85450;" parent="1" vertex="1">
          <mxGeometry x="4790" y="-780" width="160" height="180" as="geometry" />
        </mxCell>
        <mxCell id="idwGcyg0NZIY-Tr2IAWl-99" value="&lt;div&gt;- pre_texture_: Texture&lt;/div&gt;&lt;div&gt;- pre_frame_: Rectangle&lt;/div&gt;" style="text;strokeColor=#b85450;fillColor=#f8cecc;align=left;verticalAlign=top;spacingLeft=4;spacingRight=4;overflow=hidden;rotatable=0;points=[[0,0.5],[1,0.5]];portConstraint=eastwest;whiteSpace=wrap;html=1;" parent="idwGcyg0NZIY-Tr2IAWl-98" vertex="1">
          <mxGeometry y="26" width="160" height="44" as="geometry" />
        </mxCell>
        <mxCell id="idwGcyg0NZIY-Tr2IAWl-100" value="&lt;div&gt;+ &amp;lt;&amp;lt;override&amp;gt;&amp;gt; Update(): void&lt;/div&gt;&lt;div&gt;+ &amp;lt;&amp;lt;override&amp;gt;&amp;gt; Draw(): void&lt;/div&gt;&lt;div&gt;+ &amp;lt;&amp;lt;override&amp;gt;&amp;gt; Evolve(): void&lt;/div&gt;&lt;div&gt;+ &amp;lt;&amp;lt;override&amp;gt;&amp;gt; Die(): void&lt;/div&gt;" style="text;strokeColor=#b85450;fillColor=#f8cecc;align=left;verticalAlign=top;spacingLeft=4;spacingRight=4;overflow=hidden;rotatable=0;points=[[0,0.5],[1,0.5]];portConstraint=eastwest;whiteSpace=wrap;html=1;" parent="idwGcyg0NZIY-Tr2IAWl-98" vertex="1">
          <mxGeometry y="70" width="160" height="110" as="geometry" />
        </mxCell>
        <mxCell id="idwGcyg0NZIY-Tr2IAWl-102" value="BigMario" style="swimlane;fontStyle=1;align=center;verticalAlign=top;childLayout=stackLayout;horizontal=1;startSize=26;horizontalStack=0;resizeParent=1;resizeParentMax=0;resizeLast=0;collapsible=1;marginBottom=0;whiteSpace=wrap;html=1;fillColor=#f8cecc;strokeColor=#b85450;" parent="1" vertex="1">
          <mxGeometry x="4970" y="-780" width="160" height="180" as="geometry" />
        </mxCell>
        <mxCell id="idwGcyg0NZIY-Tr2IAWl-103" value="&lt;div&gt;- pre_texture_: Texture&lt;/div&gt;&lt;div&gt;- pre_frame_: Rectangle&lt;/div&gt;" style="text;strokeColor=#b85450;fillColor=#f8cecc;align=left;verticalAlign=top;spacingLeft=4;spacingRight=4;overflow=hidden;rotatable=0;points=[[0,0.5],[1,0.5]];portConstraint=eastwest;whiteSpace=wrap;html=1;" parent="idwGcyg0NZIY-Tr2IAWl-102" vertex="1">
          <mxGeometry y="26" width="160" height="44" as="geometry" />
        </mxCell>
        <mxCell id="idwGcyg0NZIY-Tr2IAWl-104" value="&lt;div&gt;+ &amp;lt;&amp;lt;override&amp;gt;&amp;gt; Update(): void&lt;/div&gt;&lt;div&gt;+ &amp;lt;&amp;lt;override&amp;gt;&amp;gt; Draw(): void&lt;/div&gt;&lt;div&gt;+ &amp;lt;&amp;lt;override&amp;gt;&amp;gt; Evolve(): void&lt;/div&gt;&lt;div&gt;+ &amp;lt;&amp;lt;override&amp;gt;&amp;gt; Die(): void&lt;/div&gt;" style="text;strokeColor=#b85450;fillColor=#f8cecc;align=left;verticalAlign=top;spacingLeft=4;spacingRight=4;overflow=hidden;rotatable=0;points=[[0,0.5],[1,0.5]];portConstraint=eastwest;whiteSpace=wrap;html=1;" parent="idwGcyg0NZIY-Tr2IAWl-102" vertex="1">
          <mxGeometry y="70" width="160" height="110" as="geometry" />
        </mxCell>
        <mxCell id="idwGcyg0NZIY-Tr2IAWl-106" value="NormalLuigi" style="swimlane;fontStyle=1;align=center;verticalAlign=top;childLayout=stackLayout;horizontal=1;startSize=26;horizontalStack=0;resizeParent=1;resizeParentMax=0;resizeLast=0;collapsible=1;marginBottom=0;whiteSpace=wrap;html=1;fillColor=#f8cecc;strokeColor=#b85450;" parent="1" vertex="1">
          <mxGeometry x="5160" y="-780" width="160" height="180" as="geometry" />
        </mxCell>
        <mxCell id="idwGcyg0NZIY-Tr2IAWl-107" value="&lt;div&gt;- pre_texture_: Texture&lt;/div&gt;&lt;div&gt;- pre_frame_: Rectangle&lt;/div&gt;" style="text;strokeColor=#b85450;fillColor=#f8cecc;align=left;verticalAlign=top;spacingLeft=4;spacingRight=4;overflow=hidden;rotatable=0;points=[[0,0.5],[1,0.5]];portConstraint=eastwest;whiteSpace=wrap;html=1;" parent="idwGcyg0NZIY-Tr2IAWl-106" vertex="1">
          <mxGeometry y="26" width="160" height="44" as="geometry" />
        </mxCell>
        <mxCell id="idwGcyg0NZIY-Tr2IAWl-108" value="&lt;div&gt;+ &amp;lt;&amp;lt;override&amp;gt;&amp;gt; Update(): void&lt;/div&gt;&lt;div&gt;+ &amp;lt;&amp;lt;override&amp;gt;&amp;gt; Draw(): void&lt;/div&gt;&lt;div&gt;+ &amp;lt;&amp;lt;override&amp;gt;&amp;gt; Evolve(): void&lt;/div&gt;&lt;div&gt;+ &amp;lt;&amp;lt;override&amp;gt;&amp;gt; Die(): void&lt;/div&gt;" style="text;strokeColor=#b85450;fillColor=#f8cecc;align=left;verticalAlign=top;spacingLeft=4;spacingRight=4;overflow=hidden;rotatable=0;points=[[0,0.5],[1,0.5]];portConstraint=eastwest;whiteSpace=wrap;html=1;" parent="idwGcyg0NZIY-Tr2IAWl-106" vertex="1">
          <mxGeometry y="70" width="160" height="110" as="geometry" />
        </mxCell>
        <mxCell id="idwGcyg0NZIY-Tr2IAWl-124" style="edgeStyle=orthogonalEdgeStyle;rounded=0;orthogonalLoop=1;jettySize=auto;html=1;dashed=1;endArrow=none;endFill=0;" parent="1" source="idwGcyg0NZIY-Tr2IAWl-109" target="idwGcyg0NZIY-Tr2IAWl-119" edge="1">
          <mxGeometry relative="1" as="geometry">
            <Array as="points">
              <mxPoint x="5450" y="-830" />
              <mxPoint x="5080" y="-830" />
            </Array>
          </mxGeometry>
        </mxCell>
        <mxCell id="idwGcyg0NZIY-Tr2IAWl-109" value="ElectricLuigi" style="swimlane;fontStyle=1;align=center;verticalAlign=top;childLayout=stackLayout;horizontal=1;startSize=26;horizontalStack=0;resizeParent=1;resizeParentMax=0;resizeLast=0;collapsible=1;marginBottom=0;whiteSpace=wrap;html=1;fillColor=#f8cecc;strokeColor=#b85450;" parent="1" vertex="1">
          <mxGeometry x="5350" y="-780" width="160" height="180" as="geometry" />
        </mxCell>
        <mxCell id="idwGcyg0NZIY-Tr2IAWl-110" value="&lt;div&gt;- pre_texture_: Texture&lt;/div&gt;&lt;div&gt;- pre_frame_: Rectangle&lt;/div&gt;" style="text;strokeColor=#b85450;fillColor=#f8cecc;align=left;verticalAlign=top;spacingLeft=4;spacingRight=4;overflow=hidden;rotatable=0;points=[[0,0.5],[1,0.5]];portConstraint=eastwest;whiteSpace=wrap;html=1;" parent="idwGcyg0NZIY-Tr2IAWl-109" vertex="1">
          <mxGeometry y="26" width="160" height="44" as="geometry" />
        </mxCell>
        <mxCell id="idwGcyg0NZIY-Tr2IAWl-111" value="&lt;div&gt;+ &amp;lt;&amp;lt;override&amp;gt;&amp;gt; Update(): void&lt;/div&gt;&lt;div&gt;+ &amp;lt;&amp;lt;override&amp;gt;&amp;gt; Draw(): void&lt;/div&gt;&lt;div&gt;+ &amp;lt;&amp;lt;override&amp;gt;&amp;gt; Evolve(): void&lt;/div&gt;&lt;div&gt;+ &amp;lt;&amp;lt;override&amp;gt;&amp;gt; Die(): void&lt;/div&gt;" style="text;strokeColor=#b85450;fillColor=#f8cecc;align=left;verticalAlign=top;spacingLeft=4;spacingRight=4;overflow=hidden;rotatable=0;points=[[0,0.5],[1,0.5]];portConstraint=eastwest;whiteSpace=wrap;html=1;" parent="idwGcyg0NZIY-Tr2IAWl-109" vertex="1">
          <mxGeometry y="70" width="160" height="110" as="geometry" />
        </mxCell>
        <mxCell id="idwGcyg0NZIY-Tr2IAWl-112" value="BigLuigi" style="swimlane;fontStyle=1;align=center;verticalAlign=top;childLayout=stackLayout;horizontal=1;startSize=26;horizontalStack=0;resizeParent=1;resizeParentMax=0;resizeLast=0;collapsible=1;marginBottom=0;whiteSpace=wrap;html=1;fillColor=#f8cecc;strokeColor=#b85450;" parent="1" vertex="1">
          <mxGeometry x="5530" y="-780" width="160" height="180" as="geometry" />
        </mxCell>
        <mxCell id="idwGcyg0NZIY-Tr2IAWl-113" value="&lt;div&gt;- pre_texture_: Texture&lt;/div&gt;&lt;div&gt;- pre_frame_: Rectangle&lt;/div&gt;" style="text;strokeColor=#b85450;fillColor=#f8cecc;align=left;verticalAlign=top;spacingLeft=4;spacingRight=4;overflow=hidden;rotatable=0;points=[[0,0.5],[1,0.5]];portConstraint=eastwest;whiteSpace=wrap;html=1;" parent="idwGcyg0NZIY-Tr2IAWl-112" vertex="1">
          <mxGeometry y="26" width="160" height="44" as="geometry" />
        </mxCell>
        <mxCell id="idwGcyg0NZIY-Tr2IAWl-114" value="&lt;div&gt;+ &amp;lt;&amp;lt;override&amp;gt;&amp;gt; Update(): void&lt;/div&gt;&lt;div&gt;+ &amp;lt;&amp;lt;override&amp;gt;&amp;gt; Draw(): void&lt;/div&gt;&lt;div&gt;+ &amp;lt;&amp;lt;override&amp;gt;&amp;gt; Evolve(): void&lt;/div&gt;&lt;div&gt;+ &amp;lt;&amp;lt;override&amp;gt;&amp;gt; Die(): void&lt;/div&gt;" style="text;strokeColor=#b85450;fillColor=#f8cecc;align=left;verticalAlign=top;spacingLeft=4;spacingRight=4;overflow=hidden;rotatable=0;points=[[0,0.5],[1,0.5]];portConstraint=eastwest;whiteSpace=wrap;html=1;" parent="idwGcyg0NZIY-Tr2IAWl-112" vertex="1">
          <mxGeometry y="70" width="160" height="110" as="geometry" />
        </mxCell>
        <mxCell id="idwGcyg0NZIY-Tr2IAWl-123" style="edgeStyle=orthogonalEdgeStyle;rounded=0;orthogonalLoop=1;jettySize=auto;html=1;entryX=0.812;entryY=0.955;entryDx=0;entryDy=0;entryPerimeter=0;dashed=1;endArrow=none;endFill=0;" parent="1" source="idwGcyg0NZIY-Tr2IAWl-106" target="idwGcyg0NZIY-Tr2IAWl-119" edge="1">
          <mxGeometry relative="1" as="geometry">
            <Array as="points">
              <mxPoint x="5260" y="-830" />
              <mxPoint x="5080" y="-830" />
            </Array>
          </mxGeometry>
        </mxCell>
        <mxCell id="idwGcyg0NZIY-Tr2IAWl-125" style="edgeStyle=orthogonalEdgeStyle;rounded=0;orthogonalLoop=1;jettySize=auto;html=1;entryX=0.355;entryY=0.65;entryDx=0;entryDy=0;entryPerimeter=0;dashed=1;endArrow=none;endFill=0;" parent="1" source="idwGcyg0NZIY-Tr2IAWl-112" target="idwGcyg0NZIY-Tr2IAWl-119" edge="1">
          <mxGeometry relative="1" as="geometry">
            <Array as="points">
              <mxPoint x="5640" y="-830" />
              <mxPoint x="5080" y="-830" />
            </Array>
          </mxGeometry>
        </mxCell>
        <mxCell id="idwGcyg0NZIY-Tr2IAWl-126" style="edgeStyle=orthogonalEdgeStyle;rounded=0;orthogonalLoop=1;jettySize=auto;html=1;entryX=0.512;entryY=1.004;entryDx=0;entryDy=0;entryPerimeter=0;dashed=1;endArrow=block;endFill=0;" parent="1" source="idwGcyg0NZIY-Tr2IAWl-119" target="idwGcyg0NZIY-Tr2IAWl-50" edge="1">
          <mxGeometry relative="1" as="geometry" />
        </mxCell>
        <mxCell id="idwGcyg0NZIY-Tr2IAWl-128" value="&lt;div&gt;&lt;span style=&quot;font-weight: normal;&quot;&gt;&lt;i&gt;&amp;lt;&amp;lt;interface&amp;gt;&amp;gt;&lt;/i&gt;&lt;/span&gt;&lt;/div&gt;&lt;div&gt;&lt;i&gt;Enemy&lt;/i&gt;&amp;nbsp;&lt;/div&gt;" style="swimlane;fontStyle=1;align=center;verticalAlign=top;childLayout=stackLayout;horizontal=1;startSize=40;horizontalStack=0;resizeParent=1;resizeParentMax=0;resizeLast=0;collapsible=1;marginBottom=0;whiteSpace=wrap;html=1;fillColor=#e1d5e7;strokeColor=#9673a6;" parent="1" vertex="1">
          <mxGeometry x="3920" y="-340" width="280" height="500" as="geometry" />
        </mxCell>
        <mxCell id="idwGcyg0NZIY-Tr2IAWl-129" value="&lt;div&gt;- type: EnemyType&lt;/div&gt;&lt;div&gt;- state: EnemyState&lt;/div&gt;&lt;div&gt;- position: Vector2&lt;/div&gt;&lt;div&gt;- velocity: Vector2&lt;/div&gt;&lt;div&gt;- health: float&lt;/div&gt;&lt;div&gt;- movement_strategy_: MovementStrategy&lt;/div&gt;&lt;div&gt;- playerPosition: Vector2&lt;/div&gt;" style="text;strokeColor=#9673a6;fillColor=#e1d5e7;align=left;verticalAlign=top;spacingLeft=4;spacingRight=4;overflow=hidden;rotatable=0;points=[[0,0.5],[1,0.5]];portConstraint=eastwest;whiteSpace=wrap;html=1;" parent="idwGcyg0NZIY-Tr2IAWl-128" vertex="1">
          <mxGeometry y="40" width="280" height="120" as="geometry" />
        </mxCell>
        <mxCell id="idwGcyg0NZIY-Tr2IAWl-130" value="" style="line;strokeWidth=1;fillColor=#e1d5e7;align=left;verticalAlign=middle;spacingTop=-1;spacingLeft=3;spacingRight=3;rotatable=0;labelPosition=right;points=[];portConstraint=eastwest;strokeColor=#9673a6;" parent="idwGcyg0NZIY-Tr2IAWl-128" vertex="1">
          <mxGeometry y="160" width="280" height="8" as="geometry" />
        </mxCell>
        <mxCell id="idwGcyg0NZIY-Tr2IAWl-131" value="&lt;div&gt;+ Update(): void&lt;/div&gt;&lt;div&gt;+ Draw(): void&lt;/div&gt;&lt;div&gt;+ GetRectangle(): void&lt;/div&gt;&lt;div&gt;&lt;br&gt;&lt;/div&gt;&lt;div&gt;+ &amp;lt;&amp;lt;pure virtual&amp;gt;&amp;gt; OnHit(): void&lt;/div&gt;&lt;div&gt;+ &amp;lt;&amp;lt;pure virtual&amp;gt;&amp;gt; OnHitAbove(): void&lt;/div&gt;&lt;div&gt;+ &amp;lt;&amp;lt;pure virtual&amp;gt;&amp;gt; OnHitFromSide(): void&lt;/div&gt;&lt;div&gt;+ DealDamage(damage: float): void&lt;/div&gt;&lt;div&gt;+ IsAlive(): bool&lt;/div&gt;&lt;div&gt;&lt;br&gt;&lt;/div&gt;&lt;div&gt;+ SetMovementStrategy(strategy: MovementStrategy): void&lt;/div&gt;&lt;div&gt;+ GetMovementStrategy(): MovementStrategy&lt;/div&gt;&lt;div&gt;+ UpdateMovement(time: float): void&lt;/div&gt;&lt;div&gt;+ ReverseDirection(): void&lt;/div&gt;&lt;div&gt;&lt;br&gt;&lt;/div&gt;&lt;div&gt;+ &amp;lt;&amp;lt;pure virtual&amp;gt;&amp;gt; GetType(): EnemyType&lt;/div&gt;&lt;div&gt;+ GetState(): EnemyState&lt;/div&gt;&lt;div&gt;+ GetHealth(): float&lt;/div&gt;&lt;div&gt;+ IsFacingLeft(): bool&lt;/div&gt;&lt;div&gt;&lt;br&gt;&lt;/div&gt;&lt;div&gt;+ &amp;lt;&amp;lt; pure virtual&amp;gt;&amp;gt; Clone(): void&lt;/div&gt;&lt;div&gt;&lt;br&gt;&lt;/div&gt;" style="text;strokeColor=#9673a6;fillColor=#e1d5e7;align=left;verticalAlign=top;spacingLeft=4;spacingRight=4;overflow=hidden;rotatable=0;points=[[0,0.5],[1,0.5]];portConstraint=eastwest;whiteSpace=wrap;html=1;" parent="idwGcyg0NZIY-Tr2IAWl-128" vertex="1">
          <mxGeometry y="168" width="280" height="332" as="geometry" />
        </mxCell>
        <mxCell id="idwGcyg0NZIY-Tr2IAWl-132" value="KoopaTroopa" style="swimlane;fontStyle=1;align=center;verticalAlign=top;childLayout=stackLayout;horizontal=1;startSize=26;horizontalStack=0;resizeParent=1;resizeParentMax=0;resizeLast=0;collapsible=1;marginBottom=0;whiteSpace=wrap;html=1;fillColor=#e1d5e7;strokeColor=#9673a6;" parent="1" vertex="1">
          <mxGeometry x="3970" y="492" width="190" height="220" as="geometry" />
        </mxCell>
        <mxCell id="idwGcyg0NZIY-Tr2IAWl-133" value="- shell_timer_: float" style="text;strokeColor=#9673a6;fillColor=#e1d5e7;align=left;verticalAlign=top;spacingLeft=4;spacingRight=4;overflow=hidden;rotatable=0;points=[[0,0.5],[1,0.5]];portConstraint=eastwest;whiteSpace=wrap;html=1;" parent="idwGcyg0NZIY-Tr2IAWl-132" vertex="1">
          <mxGeometry y="26" width="190" height="26" as="geometry" />
        </mxCell>
        <mxCell id="idwGcyg0NZIY-Tr2IAWl-134" value="" style="line;strokeWidth=1;fillColor=#e1d5e7;align=left;verticalAlign=middle;spacingTop=-1;spacingLeft=3;spacingRight=3;rotatable=0;labelPosition=right;points=[];portConstraint=eastwest;strokeColor=#9673a6;" parent="idwGcyg0NZIY-Tr2IAWl-132" vertex="1">
          <mxGeometry y="52" width="190" height="8" as="geometry" />
        </mxCell>
        <mxCell id="idwGcyg0NZIY-Tr2IAWl-135" value="&lt;div&gt;+ KickShell (kick_left: bool): void&lt;/div&gt;&lt;div&gt;&lt;div&gt;+ &amp;lt;&amp;lt;override&amp;gt;&amp;gt; OnHit(): void&lt;/div&gt;&lt;div&gt;+ &amp;lt;&amp;lt;override&amp;gt;&amp;gt; OnHitAbove(): void&lt;/div&gt;&lt;div&gt;+ &amp;lt;&amp;lt;override&amp;gt;&amp;gt; OnHitFromSide(): void&lt;/div&gt;&lt;div&gt;+ &amp;lt;&amp;lt;override&amp;gt;&amp;gt; Update(): void&lt;/div&gt;&lt;div&gt;+ &amp;lt;&amp;lt;override&amp;gt;&amp;gt; GetType(): EnemyType&lt;/div&gt;&lt;div&gt;+ &amp;lt;&amp;lt;override&amp;gt;&amp;gt; Clone(): Enemy&lt;/div&gt;&lt;br&gt;&lt;/div&gt;" style="text;strokeColor=#9673a6;fillColor=#e1d5e7;align=left;verticalAlign=top;spacingLeft=4;spacingRight=4;overflow=hidden;rotatable=0;points=[[0,0.5],[1,0.5]];portConstraint=eastwest;whiteSpace=wrap;html=1;" parent="idwGcyg0NZIY-Tr2IAWl-132" vertex="1">
          <mxGeometry y="60" width="190" height="160" as="geometry" />
        </mxCell>
        <mxCell id="idwGcyg0NZIY-Tr2IAWl-140" value="PiranhaPlant" style="swimlane;fontStyle=1;align=center;verticalAlign=top;childLayout=stackLayout;horizontal=1;startSize=26;horizontalStack=0;resizeParent=1;resizeParentMax=0;resizeLast=0;collapsible=1;marginBottom=0;whiteSpace=wrap;html=1;fillColor=#e1d5e7;strokeColor=#9673a6;" parent="1" vertex="1">
          <mxGeometry x="4230" y="490" width="220" height="330" as="geometry" />
        </mxCell>
        <mxCell id="idwGcyg0NZIY-Tr2IAWl-141" value="&lt;div&gt;- is_emerging_: bool&lt;/div&gt;&lt;div&gt;- emerge_timer_: float&lt;/div&gt;&lt;div&gt;- emerge_duration_: flaot&lt;/div&gt;&lt;div&gt;- hide_duration_: float&lt;/div&gt;&lt;div&gt;- emerge_distance_: float&lt;/div&gt;&lt;div&gt;- initial_y_: gloat&lt;/div&gt;&lt;div&gt;- emerge_speed_: float&lt;/div&gt;" style="text;strokeColor=#9673a6;fillColor=#e1d5e7;align=left;verticalAlign=top;spacingLeft=4;spacingRight=4;overflow=hidden;rotatable=0;points=[[0,0.5],[1,0.5]];portConstraint=eastwest;whiteSpace=wrap;html=1;" parent="idwGcyg0NZIY-Tr2IAWl-140" vertex="1">
          <mxGeometry y="26" width="220" height="114" as="geometry" />
        </mxCell>
        <mxCell id="idwGcyg0NZIY-Tr2IAWl-142" value="" style="line;strokeWidth=1;fillColor=#e1d5e7;align=left;verticalAlign=middle;spacingTop=-1;spacingLeft=3;spacingRight=3;rotatable=0;labelPosition=right;points=[];portConstraint=eastwest;strokeColor=#9673a6;" parent="idwGcyg0NZIY-Tr2IAWl-140" vertex="1">
          <mxGeometry y="140" width="220" height="8" as="geometry" />
        </mxCell>
        <mxCell id="idwGcyg0NZIY-Tr2IAWl-143" value="&lt;div&gt;+ StartEmerging(): void&lt;/div&gt;&lt;div&gt;+ StartHiding(): void&lt;/div&gt;&lt;div&gt;+ IsEmerging(): void&lt;/div&gt;&lt;div&gt;+ ForceEmerge(): void&lt;/div&gt;&lt;div&gt;+ ForceHide(): void&lt;/div&gt;&lt;div&gt;&lt;div&gt;+ &amp;lt;&amp;lt;override&amp;gt;&amp;gt; OnHit(): void&lt;/div&gt;&lt;div&gt;+ &amp;lt;&amp;lt;override&amp;gt;&amp;gt; OnHitAbove(): void&lt;/div&gt;&lt;div&gt;+ &amp;lt;&amp;lt;override&amp;gt;&amp;gt; OnHitFromSide(): void&lt;/div&gt;&lt;div&gt;+ &amp;lt;&amp;lt;override&amp;gt;&amp;gt; Update(): void&lt;/div&gt;&lt;div&gt;+ &amp;lt;&amp;lt;override&amp;gt;&amp;gt; GetType(): EnemyType&lt;/div&gt;&lt;div&gt;+ &amp;lt;&amp;lt;override&amp;gt;&amp;gt; Clone(): Enemy&lt;/div&gt;&lt;br&gt;&lt;/div&gt;" style="text;strokeColor=#9673a6;fillColor=#e1d5e7;align=left;verticalAlign=top;spacingLeft=4;spacingRight=4;overflow=hidden;rotatable=0;points=[[0,0.5],[1,0.5]];portConstraint=eastwest;whiteSpace=wrap;html=1;" parent="idwGcyg0NZIY-Tr2IAWl-140" vertex="1">
          <mxGeometry y="148" width="220" height="182" as="geometry" />
        </mxCell>
        <mxCell id="idwGcyg0NZIY-Tr2IAWl-144" value="Bowser" style="swimlane;fontStyle=1;align=center;verticalAlign=top;childLayout=stackLayout;horizontal=1;startSize=26;horizontalStack=0;resizeParent=1;resizeParentMax=0;resizeLast=0;collapsible=1;marginBottom=0;whiteSpace=wrap;html=1;fillColor=#e1d5e7;strokeColor=#9673a6;" parent="1" vertex="1">
          <mxGeometry x="4500" y="492" width="220" height="290" as="geometry" />
        </mxCell>
        <mxCell id="idwGcyg0NZIY-Tr2IAWl-145" value="&lt;div&gt;- hp: int&lt;/div&gt;&lt;div&gt;- fire_timer: float&lt;/div&gt;&lt;div&gt;- attack_cooldown: float&lt;/div&gt;&lt;div&gt;- rage_mode: bool&lt;/div&gt;" style="text;strokeColor=#9673a6;fillColor=#e1d5e7;align=left;verticalAlign=top;spacingLeft=4;spacingRight=4;overflow=hidden;rotatable=0;points=[[0,0.5],[1,0.5]];portConstraint=eastwest;whiteSpace=wrap;html=1;" parent="idwGcyg0NZIY-Tr2IAWl-144" vertex="1">
          <mxGeometry y="26" width="220" height="84" as="geometry" />
        </mxCell>
        <mxCell id="idwGcyg0NZIY-Tr2IAWl-146" value="" style="line;strokeWidth=1;fillColor=#e1d5e7;align=left;verticalAlign=middle;spacingTop=-1;spacingLeft=3;spacingRight=3;rotatable=0;labelPosition=right;points=[];portConstraint=eastwest;strokeColor=#9673a6;" parent="idwGcyg0NZIY-Tr2IAWl-144" vertex="1">
          <mxGeometry y="110" width="220" height="8" as="geometry" />
        </mxCell>
        <mxCell id="idwGcyg0NZIY-Tr2IAWl-147" value="&lt;div&gt;+ GetHP(): int&lt;/div&gt;&lt;div&gt;+ IsInRageMode(): bool&lt;/div&gt;&lt;div&gt;+ EnterRageMode(): void&lt;/div&gt;&lt;div&gt;+ ShootFireball(): void&lt;/div&gt;&lt;div&gt;&lt;div&gt;+ &amp;lt;&amp;lt;override&amp;gt;&amp;gt; OnHit(): void&lt;/div&gt;&lt;div&gt;+ &amp;lt;&amp;lt;override&amp;gt;&amp;gt; OnHitAbove(): void&lt;/div&gt;&lt;div&gt;+ &amp;lt;&amp;lt;override&amp;gt;&amp;gt; OnHitFromSide(): void&lt;/div&gt;&lt;div&gt;+ &amp;lt;&amp;lt;override&amp;gt;&amp;gt; Update(): void&lt;/div&gt;&lt;div&gt;+ &amp;lt;&amp;lt;override&amp;gt;&amp;gt; GetType(): EnemyType&lt;/div&gt;&lt;div&gt;+ &amp;lt;&amp;lt;override&amp;gt;&amp;gt; Clone(): Enemy&lt;/div&gt;&lt;br&gt;&lt;/div&gt;" style="text;strokeColor=#9673a6;fillColor=#e1d5e7;align=left;verticalAlign=top;spacingLeft=4;spacingRight=4;overflow=hidden;rotatable=0;points=[[0,0.5],[1,0.5]];portConstraint=eastwest;whiteSpace=wrap;html=1;" parent="idwGcyg0NZIY-Tr2IAWl-144" vertex="1">
          <mxGeometry y="118" width="220" height="172" as="geometry" />
        </mxCell>
        <mxCell id="idwGcyg0NZIY-Tr2IAWl-153" value="" style="edgeStyle=orthogonalEdgeStyle;rounded=0;orthogonalLoop=1;jettySize=auto;html=1;endArrow=block;endFill=0;dashed=1;entryX=0.497;entryY=0.999;entryDx=0;entryDy=0;entryPerimeter=0;" parent="1" source="idwGcyg0NZIY-Tr2IAWl-148" target="idwGcyg0NZIY-Tr2IAWl-131" edge="1">
          <mxGeometry relative="1" as="geometry">
            <Array as="points">
              <mxPoint x="4060" y="160" />
              <mxPoint x="4059" y="160" />
            </Array>
            <mxPoint x="4050" y="170" as="targetPoint" />
          </mxGeometry>
        </mxCell>
        <mxCell id="idwGcyg0NZIY-Tr2IAWl-148" value="" style="shape=waypoint;sketch=0;fillStyle=solid;size=6;pointerEvents=1;points=[];fillColor=none;resizable=0;rotatable=0;perimeter=centerPerimeter;snapToPoint=1;" parent="1" vertex="1">
          <mxGeometry x="4050" y="187" width="20" height="20" as="geometry" />
        </mxCell>
        <mxCell id="idwGcyg0NZIY-Tr2IAWl-149" style="edgeStyle=orthogonalEdgeStyle;rounded=0;orthogonalLoop=1;jettySize=auto;html=1;entryX=0.897;entryY=0.571;entryDx=0;entryDy=0;entryPerimeter=0;endArrow=none;endFill=0;dashed=1;" parent="1" target="idwGcyg0NZIY-Tr2IAWl-148" edge="1">
          <mxGeometry relative="1" as="geometry">
            <Array as="points">
              <mxPoint x="3835" y="270" />
              <mxPoint x="4060" y="270" />
            </Array>
            <mxPoint x="3835" y="490" as="sourcePoint" />
          </mxGeometry>
        </mxCell>
        <mxCell id="idwGcyg0NZIY-Tr2IAWl-150" style="edgeStyle=orthogonalEdgeStyle;rounded=0;orthogonalLoop=1;jettySize=auto;html=1;entryX=0.703;entryY=0.902;entryDx=0;entryDy=0;entryPerimeter=0;endArrow=none;endFill=0;dashed=1;" parent="1" source="idwGcyg0NZIY-Tr2IAWl-132" target="idwGcyg0NZIY-Tr2IAWl-148" edge="1">
          <mxGeometry relative="1" as="geometry">
            <Array as="points">
              <mxPoint x="4065" y="270" />
              <mxPoint x="4060" y="270" />
            </Array>
          </mxGeometry>
        </mxCell>
        <mxCell id="idwGcyg0NZIY-Tr2IAWl-155" value="&lt;div&gt;&lt;span style=&quot;font-weight: normal;&quot;&gt;&lt;i&gt;&amp;lt;&amp;lt;interface&amp;gt;&amp;gt;&lt;/i&gt;&lt;/span&gt;&lt;/div&gt;&lt;div&gt;&lt;i&gt;MovementStrategy&lt;/i&gt;&amp;nbsp;&lt;/div&gt;" style="swimlane;fontStyle=1;align=center;verticalAlign=top;childLayout=stackLayout;horizontal=1;startSize=40;horizontalStack=0;resizeParent=1;resizeParentMax=0;resizeLast=0;collapsible=1;marginBottom=0;whiteSpace=wrap;html=1;fillColor=#e1d5e7;strokeColor=#9673a6;" parent="1" vertex="1">
          <mxGeometry x="5310" y="-127" width="280" height="160" as="geometry" />
        </mxCell>
        <mxCell id="idwGcyg0NZIY-Tr2IAWl-156" value="" style="text;strokeColor=#9673a6;fillColor=#e1d5e7;align=left;verticalAlign=top;spacingLeft=4;spacingRight=4;overflow=hidden;rotatable=0;points=[[0,0.5],[1,0.5]];portConstraint=eastwest;whiteSpace=wrap;html=1;" parent="idwGcyg0NZIY-Tr2IAWl-155" vertex="1">
          <mxGeometry y="40" width="280" height="40" as="geometry" />
        </mxCell>
        <mxCell id="idwGcyg0NZIY-Tr2IAWl-157" value="" style="line;strokeWidth=1;fillColor=#e1d5e7;align=left;verticalAlign=middle;spacingTop=-1;spacingLeft=3;spacingRight=3;rotatable=0;labelPosition=right;points=[];portConstraint=eastwest;strokeColor=#9673a6;" parent="idwGcyg0NZIY-Tr2IAWl-155" vertex="1">
          <mxGeometry y="80" width="280" height="8" as="geometry" />
        </mxCell>
        <mxCell id="idwGcyg0NZIY-Tr2IAWl-158" value="&lt;div&gt;+ &amp;lt;&amp;lt;pure virtual&amp;gt;&amp;gt; Update(): void&lt;/div&gt;&lt;div&gt;+ &amp;lt;&amp;lt;pure virtual&amp;gt;&amp;gt; Clone: MovementStrategy&lt;/div&gt;&lt;div&gt;+ &amp;lt;&amp;lt;virtual&amp;gt;&amp;gt; ReverseDirection(): void&lt;/div&gt;&lt;div&gt;&lt;br&gt;&lt;/div&gt;&lt;div&gt;&lt;br&gt;&lt;/div&gt;" style="text;strokeColor=#9673a6;fillColor=#e1d5e7;align=left;verticalAlign=top;spacingLeft=4;spacingRight=4;overflow=hidden;rotatable=0;points=[[0,0.5],[1,0.5]];portConstraint=eastwest;whiteSpace=wrap;html=1;" parent="idwGcyg0NZIY-Tr2IAWl-155" vertex="1">
          <mxGeometry y="88" width="280" height="72" as="geometry" />
        </mxCell>
        <mxCell id="idwGcyg0NZIY-Tr2IAWl-159" value="PiranhaMovementStrategy" style="swimlane;fontStyle=1;align=center;verticalAlign=top;childLayout=stackLayout;horizontal=1;startSize=30;horizontalStack=0;resizeParent=1;resizeParentMax=0;resizeLast=0;collapsible=1;marginBottom=0;whiteSpace=wrap;html=1;fillColor=#e1d5e7;strokeColor=#9673a6;" parent="1" vertex="1">
          <mxGeometry x="4830" y="492" width="280" height="290" as="geometry" />
        </mxCell>
        <mxCell id="idwGcyg0NZIY-Tr2IAWl-160" value="&lt;div&gt;- emergeTime: float&lt;/div&gt;&lt;div&gt;- hideTime: float&lt;/div&gt;&lt;div&gt;- emergeDistance= float&lt;/div&gt;&lt;div&gt;- timer: float&lt;/div&gt;&lt;div&gt;- is_emerging_: bool&lt;/div&gt;&lt;div&gt;- intialY: float;&lt;/div&gt;&lt;div&gt;- targetY: float&lt;/div&gt;" style="text;strokeColor=#9673a6;fillColor=#e1d5e7;align=left;verticalAlign=top;spacingLeft=4;spacingRight=4;overflow=hidden;rotatable=0;points=[[0,0.5],[1,0.5]];portConstraint=eastwest;whiteSpace=wrap;html=1;" parent="idwGcyg0NZIY-Tr2IAWl-159" vertex="1">
          <mxGeometry y="30" width="280" height="120" as="geometry" />
        </mxCell>
        <mxCell id="idwGcyg0NZIY-Tr2IAWl-161" value="" style="line;strokeWidth=1;fillColor=#e1d5e7;align=left;verticalAlign=middle;spacingTop=-1;spacingLeft=3;spacingRight=3;rotatable=0;labelPosition=right;points=[];portConstraint=eastwest;strokeColor=#9673a6;" parent="idwGcyg0NZIY-Tr2IAWl-159" vertex="1">
          <mxGeometry y="150" width="280" height="8" as="geometry" />
        </mxCell>
        <mxCell id="idwGcyg0NZIY-Tr2IAWl-162" value="&lt;div&gt;+ SetEmergeDistance(distance: float): void&lt;/div&gt;&lt;div&gt;+ StarEmerging(): void&lt;/div&gt;&lt;div&gt;+ StartHding(): void&lt;/div&gt;&lt;div&gt;+ ForceEmerge(): void&lt;/div&gt;&lt;div&gt;+ ForceHide(): void&lt;/div&gt;&lt;div&gt;+ &amp;lt;&amp;lt;override&amp;gt;&amp;gt; Update(): void&lt;/div&gt;&lt;div&gt;+ &amp;lt;&amp;lt;override&amp;gt;&amp;gt; Clone(): MovementStrategy&lt;/div&gt;&lt;div&gt;+ &amp;lt;&amp;lt;override&amp;gt;&amp;gt; ReverseDirection(): void&lt;/div&gt;" style="text;strokeColor=#9673a6;fillColor=#e1d5e7;align=left;verticalAlign=top;spacingLeft=4;spacingRight=4;overflow=hidden;rotatable=0;points=[[0,0.5],[1,0.5]];portConstraint=eastwest;whiteSpace=wrap;html=1;" parent="idwGcyg0NZIY-Tr2IAWl-159" vertex="1">
          <mxGeometry y="158" width="280" height="132" as="geometry" />
        </mxCell>
        <mxCell id="Q99kiR7ui4vJTKgvzofk-30" style="edgeStyle=orthogonalEdgeStyle;rounded=0;orthogonalLoop=1;jettySize=auto;html=1;dashed=1;endArrow=none;endFill=0;" parent="1" source="idwGcyg0NZIY-Tr2IAWl-163" target="idwGcyg0NZIY-Tr2IAWl-177" edge="1">
          <mxGeometry relative="1" as="geometry">
            <Array as="points">
              <mxPoint x="5310" y="280" />
              <mxPoint x="5450" y="280" />
            </Array>
          </mxGeometry>
        </mxCell>
        <mxCell id="idwGcyg0NZIY-Tr2IAWl-163" value="WalkingMovement" style="swimlane;fontStyle=1;align=center;verticalAlign=top;childLayout=stackLayout;horizontal=1;startSize=30;horizontalStack=0;resizeParent=1;resizeParentMax=0;resizeLast=0;collapsible=1;marginBottom=0;whiteSpace=wrap;html=1;fillColor=#e1d5e7;strokeColor=#9673a6;" parent="1" vertex="1">
          <mxGeometry x="5170" y="492" width="280" height="190" as="geometry" />
        </mxCell>
        <mxCell id="idwGcyg0NZIY-Tr2IAWl-164" value="&lt;div&gt;- speed_: float&lt;/div&gt;&lt;div&gt;- moving_left_: bool&lt;/div&gt;" style="text;strokeColor=#9673a6;fillColor=#e1d5e7;align=left;verticalAlign=top;spacingLeft=4;spacingRight=4;overflow=hidden;rotatable=0;points=[[0,0.5],[1,0.5]];portConstraint=eastwest;whiteSpace=wrap;html=1;" parent="idwGcyg0NZIY-Tr2IAWl-163" vertex="1">
          <mxGeometry y="30" width="280" height="60" as="geometry" />
        </mxCell>
        <mxCell id="idwGcyg0NZIY-Tr2IAWl-165" value="" style="line;strokeWidth=1;fillColor=#e1d5e7;align=left;verticalAlign=middle;spacingTop=-1;spacingLeft=3;spacingRight=3;rotatable=0;labelPosition=right;points=[];portConstraint=eastwest;strokeColor=#9673a6;" parent="idwGcyg0NZIY-Tr2IAWl-163" vertex="1">
          <mxGeometry y="90" width="280" height="8" as="geometry" />
        </mxCell>
        <mxCell id="idwGcyg0NZIY-Tr2IAWl-166" value="&lt;div&gt;+ &amp;lt;&amp;lt;override&amp;gt;&amp;gt; Update(): void&lt;/div&gt;&lt;div&gt;+ &amp;lt;&amp;lt;override&amp;gt;&amp;gt; Clone(): MovementStrategy&lt;/div&gt;&lt;div&gt;+ &amp;lt;&amp;lt;override&amp;gt;&amp;gt; ReverseDirection(): void&lt;/div&gt;" style="text;strokeColor=#9673a6;fillColor=#e1d5e7;align=left;verticalAlign=top;spacingLeft=4;spacingRight=4;overflow=hidden;rotatable=0;points=[[0,0.5],[1,0.5]];portConstraint=eastwest;whiteSpace=wrap;html=1;" parent="idwGcyg0NZIY-Tr2IAWl-163" vertex="1">
          <mxGeometry y="98" width="280" height="92" as="geometry" />
        </mxCell>
        <mxCell id="idwGcyg0NZIY-Tr2IAWl-167" value="JumpingMovement" style="swimlane;fontStyle=1;align=center;verticalAlign=top;childLayout=stackLayout;horizontal=1;startSize=30;horizontalStack=0;resizeParent=1;resizeParentMax=0;resizeLast=0;collapsible=1;marginBottom=0;whiteSpace=wrap;html=1;fillColor=#e1d5e7;strokeColor=#9673a6;" parent="1" vertex="1">
          <mxGeometry x="5490" y="492" width="280" height="270" as="geometry" />
        </mxCell>
        <mxCell id="idwGcyg0NZIY-Tr2IAWl-168" value="&lt;div&gt;- horizontal_speed_: float&lt;/div&gt;&lt;div&gt;- jump_force: float&lt;/div&gt;&lt;div&gt;- jump_timer_: float&lt;/div&gt;&lt;div&gt;- jump_interval_: float&lt;/div&gt;&lt;div&gt;- vertical_boundary_: float&lt;/div&gt;&lt;div&gt;- on_ground_: bool&lt;/div&gt;&lt;div&gt;- moving_left_: bool&lt;/div&gt;&lt;div&gt;- gravity_: float&lt;/div&gt;" style="text;strokeColor=#9673a6;fillColor=#e1d5e7;align=left;verticalAlign=top;spacingLeft=4;spacingRight=4;overflow=hidden;rotatable=0;points=[[0,0.5],[1,0.5]];portConstraint=eastwest;whiteSpace=wrap;html=1;" parent="idwGcyg0NZIY-Tr2IAWl-167" vertex="1">
          <mxGeometry y="30" width="280" height="140" as="geometry" />
        </mxCell>
        <mxCell id="idwGcyg0NZIY-Tr2IAWl-169" value="" style="line;strokeWidth=1;fillColor=#e1d5e7;align=left;verticalAlign=middle;spacingTop=-1;spacingLeft=3;spacingRight=3;rotatable=0;labelPosition=right;points=[];portConstraint=eastwest;strokeColor=#9673a6;" parent="idwGcyg0NZIY-Tr2IAWl-167" vertex="1">
          <mxGeometry y="170" width="280" height="8" as="geometry" />
        </mxCell>
        <mxCell id="idwGcyg0NZIY-Tr2IAWl-170" value="&lt;div&gt;+ IsOnGround(): bool&lt;/div&gt;&lt;div&gt;+ ForceJump(): void&lt;/div&gt;&lt;div&gt;&lt;div&gt;+ &amp;lt;&amp;lt;override&amp;gt;&amp;gt; Update(): void&lt;/div&gt;&lt;div&gt;+ &amp;lt;&amp;lt;override&amp;gt;&amp;gt; Clone(): MovementStrategy&lt;/div&gt;&lt;div&gt;+ &amp;lt;&amp;lt;override&amp;gt;&amp;gt; ReverseDirection(): void&lt;/div&gt;&lt;br&gt;&lt;/div&gt;" style="text;strokeColor=#9673a6;fillColor=#e1d5e7;align=left;verticalAlign=top;spacingLeft=4;spacingRight=4;overflow=hidden;rotatable=0;points=[[0,0.5],[1,0.5]];portConstraint=eastwest;whiteSpace=wrap;html=1;" parent="idwGcyg0NZIY-Tr2IAWl-167" vertex="1">
          <mxGeometry y="178" width="280" height="92" as="geometry" />
        </mxCell>
        <mxCell id="idwGcyg0NZIY-Tr2IAWl-171" value="BossMovement" style="swimlane;fontStyle=1;align=center;verticalAlign=top;childLayout=stackLayout;horizontal=1;startSize=30;horizontalStack=0;resizeParent=1;resizeParentMax=0;resizeLast=0;collapsible=1;marginBottom=0;whiteSpace=wrap;html=1;fillColor=#e1d5e7;strokeColor=#9673a6;" parent="1" vertex="1">
          <mxGeometry x="5840" y="492" width="330" height="390" as="geometry" />
        </mxCell>
        <mxCell id="idwGcyg0NZIY-Tr2IAWl-172" value="&lt;div&gt;- current_phase_: BossPhase&lt;/div&gt;&lt;div&gt;- phase_timer_: float&lt;/div&gt;&lt;div&gt;- speed_: float&lt;/div&gt;&lt;div&gt;- fire_timer-: float&lt;/div&gt;&lt;div&gt;- charge_speed_: float&lt;/div&gt;&lt;div&gt;- vertical_velocity_: float&lt;/div&gt;&lt;div&gt;- on_ground_:&amp;nbsp; bool&lt;/div&gt;&lt;div&gt;- target_position: Vector2&lt;/div&gt;&lt;div&gt;- attack_count: int&lt;/div&gt;" style="text;strokeColor=#9673a6;fillColor=#e1d5e7;align=left;verticalAlign=top;spacingLeft=4;spacingRight=4;overflow=hidden;rotatable=0;points=[[0,0.5],[1,0.5]];portConstraint=eastwest;whiteSpace=wrap;html=1;" parent="idwGcyg0NZIY-Tr2IAWl-171" vertex="1">
          <mxGeometry y="30" width="330" height="140" as="geometry" />
        </mxCell>
        <mxCell id="idwGcyg0NZIY-Tr2IAWl-173" value="" style="line;strokeWidth=1;fillColor=#e1d5e7;align=left;verticalAlign=middle;spacingTop=-1;spacingLeft=3;spacingRight=3;rotatable=0;labelPosition=right;points=[];portConstraint=eastwest;strokeColor=#9673a6;" parent="idwGcyg0NZIY-Tr2IAWl-171" vertex="1">
          <mxGeometry y="170" width="330" height="8" as="geometry" />
        </mxCell>
        <mxCell id="idwGcyg0NZIY-Tr2IAWl-174" value="&lt;div&gt;- SwitchPhase(): void&lt;/div&gt;&lt;div&gt;- UpdateWalkingPhase(enemy: Enemy, deltaTime: float)&lt;/div&gt;&lt;div&gt;- UpdateChargingPhase(enemy: Enemy, deltaTime: float)&lt;/div&gt;&lt;div&gt;- UpdateFireBreathingPhase(enemy: Enemy, deltaTime: float)&lt;/div&gt;&lt;div&gt;- UpdateJumpingPhase(enemy: Enemy, deltaTime: float)&lt;/div&gt;&lt;div&gt;- UpdateRageMode(): void&lt;/div&gt;&lt;div&gt;&lt;br&gt;&lt;/div&gt;&lt;div&gt;+ EnterRageMode(): void&lt;/div&gt;&lt;div&gt;+ GetCurrentPhase(): BossPhase&lt;/div&gt;&lt;div&gt;&lt;br&gt;&lt;/div&gt;&lt;div&gt;&lt;div&gt;+ &amp;lt;&amp;lt;override&amp;gt;&amp;gt; Update(): void&lt;/div&gt;&lt;div&gt;+ &amp;lt;&amp;lt;override&amp;gt;&amp;gt; Clone(): MovementStrategy&lt;/div&gt;&lt;div&gt;+ &amp;lt;&amp;lt;override&amp;gt;&amp;gt; ReverseDirection(): void&lt;/div&gt;&lt;br&gt;&lt;/div&gt;" style="text;strokeColor=#9673a6;fillColor=#e1d5e7;align=left;verticalAlign=top;spacingLeft=4;spacingRight=4;overflow=hidden;rotatable=0;points=[[0,0.5],[1,0.5]];portConstraint=eastwest;whiteSpace=wrap;html=1;" parent="idwGcyg0NZIY-Tr2IAWl-171" vertex="1">
          <mxGeometry y="178" width="330" height="212" as="geometry" />
        </mxCell>
        <mxCell id="idwGcyg0NZIY-Tr2IAWl-175" style="edgeStyle=orthogonalEdgeStyle;rounded=0;orthogonalLoop=1;jettySize=auto;html=1;entryX=0;entryY=0.5;entryDx=0;entryDy=0;endArrow=open;endFill=0;startArrow=diamondThin;startFill=0;" parent="1" source="idwGcyg0NZIY-Tr2IAWl-131" target="idwGcyg0NZIY-Tr2IAWl-158" edge="1">
          <mxGeometry relative="1" as="geometry" />
        </mxCell>
        <mxCell id="idwGcyg0NZIY-Tr2IAWl-182" style="edgeStyle=orthogonalEdgeStyle;rounded=0;orthogonalLoop=1;jettySize=auto;html=1;entryX=0.5;entryY=1;entryDx=0;entryDy=0;endArrow=block;endFill=0;dashed=1;" parent="1" source="idwGcyg0NZIY-Tr2IAWl-177" target="idwGcyg0NZIY-Tr2IAWl-155" edge="1">
          <mxGeometry relative="1" as="geometry" />
        </mxCell>
        <mxCell id="idwGcyg0NZIY-Tr2IAWl-177" value="" style="shape=waypoint;sketch=0;fillStyle=solid;size=6;pointerEvents=1;points=[];fillColor=none;resizable=0;rotatable=0;perimeter=centerPerimeter;snapToPoint=1;" parent="1" vertex="1">
          <mxGeometry x="5440" y="140" width="20" height="20" as="geometry" />
        </mxCell>
        <mxCell id="Q99kiR7ui4vJTKgvzofk-6" style="edgeStyle=orthogonalEdgeStyle;rounded=0;orthogonalLoop=1;jettySize=auto;html=1;entryX=0.25;entryY=0;entryDx=0;entryDy=0;endArrow=none;endFill=0;" parent="1" source="Q99kiR7ui4vJTKgvzofk-1" target="8gXxlpxFFR-SjeP47l6D-16" edge="1">
          <mxGeometry relative="1" as="geometry">
            <Array as="points">
              <mxPoint x="4340" y="-1430" />
              <mxPoint x="1415" y="-1430" />
            </Array>
          </mxGeometry>
        </mxCell>
        <mxCell id="Q99kiR7ui4vJTKgvzofk-1" value="&lt;div&gt;&amp;lt;&amp;lt;enumeration&amp;gt;&amp;gt;&lt;/div&gt;&lt;div&gt;&lt;b&gt;CharacterType&lt;/b&gt;&lt;/div&gt;" style="swimlane;fontStyle=0;childLayout=stackLayout;horizontal=1;startSize=40;fillColor=#f8cecc;horizontalStack=0;resizeParent=1;resizeParentMax=0;resizeLast=0;collapsible=1;marginBottom=0;whiteSpace=wrap;html=1;strokeColor=#b85450;" parent="1" vertex="1">
          <mxGeometry x="4410" y="-1380" width="140" height="92" as="geometry" />
        </mxCell>
        <mxCell id="Q99kiR7ui4vJTKgvzofk-2" value="MARIO" style="text;strokeColor=#b85450;fillColor=#f8cecc;align=left;verticalAlign=top;spacingLeft=4;spacingRight=4;overflow=hidden;rotatable=0;points=[[0,0.5],[1,0.5]];portConstraint=eastwest;whiteSpace=wrap;html=1;" parent="Q99kiR7ui4vJTKgvzofk-1" vertex="1">
          <mxGeometry y="40" width="140" height="26" as="geometry" />
        </mxCell>
        <mxCell id="Q99kiR7ui4vJTKgvzofk-3" value="LUIGI" style="text;strokeColor=#b85450;fillColor=#f8cecc;align=left;verticalAlign=top;spacingLeft=4;spacingRight=4;overflow=hidden;rotatable=0;points=[[0,0.5],[1,0.5]];portConstraint=eastwest;whiteSpace=wrap;html=1;" parent="Q99kiR7ui4vJTKgvzofk-1" vertex="1">
          <mxGeometry y="66" width="140" height="26" as="geometry" />
        </mxCell>
        <mxCell id="Q99kiR7ui4vJTKgvzofk-5" style="edgeStyle=orthogonalEdgeStyle;rounded=0;orthogonalLoop=1;jettySize=auto;html=1;exitX=1;exitY=0.5;exitDx=0;exitDy=0;entryX=0;entryY=0.5;entryDx=0;entryDy=0;endArrow=none;endFill=0;" parent="1" source="Q99kiR7ui4vJTKgvzofk-2" target="idwGcyg0NZIY-Tr2IAWl-44" edge="1">
          <mxGeometry relative="1" as="geometry" />
        </mxCell>
        <mxCell id="Q99kiR7ui4vJTKgvzofk-11" value="&lt;div&gt;&amp;lt;&amp;lt;enumeration&amp;gt;&amp;gt;&lt;/div&gt;&lt;div&gt;&lt;b&gt;EnemyType&lt;/b&gt;&lt;/div&gt;" style="swimlane;fontStyle=0;childLayout=stackLayout;horizontal=1;startSize=40;fillColor=#e1d5e7;horizontalStack=0;resizeParent=1;resizeParentMax=0;resizeLast=0;collapsible=1;marginBottom=0;whiteSpace=wrap;html=1;strokeColor=#9673a6;" parent="1" vertex="1">
          <mxGeometry x="3570" y="-310" width="140" height="144" as="geometry" />
        </mxCell>
        <mxCell id="Q99kiR7ui4vJTKgvzofk-12" value="Goomba" style="text;strokeColor=#9673a6;fillColor=#e1d5e7;align=left;verticalAlign=top;spacingLeft=4;spacingRight=4;overflow=hidden;rotatable=0;points=[[0,0.5],[1,0.5]];portConstraint=eastwest;whiteSpace=wrap;html=1;" parent="Q99kiR7ui4vJTKgvzofk-11" vertex="1">
          <mxGeometry y="40" width="140" height="26" as="geometry" />
        </mxCell>
        <mxCell id="Q99kiR7ui4vJTKgvzofk-13" value="Koopa" style="text;strokeColor=#9673a6;fillColor=#e1d5e7;align=left;verticalAlign=top;spacingLeft=4;spacingRight=4;overflow=hidden;rotatable=0;points=[[0,0.5],[1,0.5]];portConstraint=eastwest;whiteSpace=wrap;html=1;" parent="Q99kiR7ui4vJTKgvzofk-11" vertex="1">
          <mxGeometry y="66" width="140" height="26" as="geometry" />
        </mxCell>
        <mxCell id="Q99kiR7ui4vJTKgvzofk-14" value="Piranha" style="text;strokeColor=#9673a6;fillColor=#e1d5e7;align=left;verticalAlign=top;spacingLeft=4;spacingRight=4;overflow=hidden;rotatable=0;points=[[0,0.5],[1,0.5]];portConstraint=eastwest;whiteSpace=wrap;html=1;" parent="Q99kiR7ui4vJTKgvzofk-11" vertex="1">
          <mxGeometry y="92" width="140" height="26" as="geometry" />
        </mxCell>
        <mxCell id="Q99kiR7ui4vJTKgvzofk-15" value="Bowser" style="text;strokeColor=#9673a6;fillColor=#e1d5e7;align=left;verticalAlign=top;spacingLeft=4;spacingRight=4;overflow=hidden;rotatable=0;points=[[0,0.5],[1,0.5]];portConstraint=eastwest;whiteSpace=wrap;html=1;" parent="Q99kiR7ui4vJTKgvzofk-11" vertex="1">
          <mxGeometry y="118" width="140" height="26" as="geometry" />
        </mxCell>
        <mxCell id="Q99kiR7ui4vJTKgvzofk-16" value="&lt;div&gt;&amp;lt;&amp;lt;enumeration&amp;gt;&amp;gt;&lt;/div&gt;&lt;div&gt;&lt;b&gt;EnemyState&lt;/b&gt;&lt;/div&gt;" style="swimlane;fontStyle=0;childLayout=stackLayout;horizontal=1;startSize=40;fillColor=#e1d5e7;horizontalStack=0;resizeParent=1;resizeParentMax=0;resizeLast=0;collapsible=1;marginBottom=0;whiteSpace=wrap;html=1;strokeColor=#9673a6;" parent="1" vertex="1">
          <mxGeometry x="3570" y="-138" width="140" height="196" as="geometry" />
        </mxCell>
        <mxCell id="Q99kiR7ui4vJTKgvzofk-17" value="Normal&lt;span style=&quot;white-space: pre;&quot;&gt;&#x9;&lt;/span&gt;" style="text;strokeColor=#9673a6;fillColor=#e1d5e7;align=left;verticalAlign=top;spacingLeft=4;spacingRight=4;overflow=hidden;rotatable=0;points=[[0,0.5],[1,0.5]];portConstraint=eastwest;whiteSpace=wrap;html=1;" parent="Q99kiR7ui4vJTKgvzofk-16" vertex="1">
          <mxGeometry y="40" width="140" height="26" as="geometry" />
        </mxCell>
        <mxCell id="Q99kiR7ui4vJTKgvzofk-18" value="Stunned" style="text;strokeColor=#9673a6;fillColor=#e1d5e7;align=left;verticalAlign=top;spacingLeft=4;spacingRight=4;overflow=hidden;rotatable=0;points=[[0,0.5],[1,0.5]];portConstraint=eastwest;whiteSpace=wrap;html=1;" parent="Q99kiR7ui4vJTKgvzofk-16" vertex="1">
          <mxGeometry y="66" width="140" height="26" as="geometry" />
        </mxCell>
        <mxCell id="Q99kiR7ui4vJTKgvzofk-19" value="Shell" style="text;strokeColor=#9673a6;fillColor=#e1d5e7;align=left;verticalAlign=top;spacingLeft=4;spacingRight=4;overflow=hidden;rotatable=0;points=[[0,0.5],[1,0.5]];portConstraint=eastwest;whiteSpace=wrap;html=1;" parent="Q99kiR7ui4vJTKgvzofk-16" vertex="1">
          <mxGeometry y="92" width="140" height="26" as="geometry" />
        </mxCell>
        <mxCell id="Q99kiR7ui4vJTKgvzofk-20" value="Dead" style="text;strokeColor=#9673a6;fillColor=#e1d5e7;align=left;verticalAlign=top;spacingLeft=4;spacingRight=4;overflow=hidden;rotatable=0;points=[[0,0.5],[1,0.5]];portConstraint=eastwest;whiteSpace=wrap;html=1;" parent="Q99kiR7ui4vJTKgvzofk-16" vertex="1">
          <mxGeometry y="118" width="140" height="26" as="geometry" />
        </mxCell>
        <mxCell id="Q99kiR7ui4vJTKgvzofk-21" value="Attacking" style="text;strokeColor=#9673a6;fillColor=#e1d5e7;align=left;verticalAlign=top;spacingLeft=4;spacingRight=4;overflow=hidden;rotatable=0;points=[[0,0.5],[1,0.5]];portConstraint=eastwest;whiteSpace=wrap;html=1;" parent="Q99kiR7ui4vJTKgvzofk-16" vertex="1">
          <mxGeometry y="144" width="140" height="26" as="geometry" />
        </mxCell>
        <mxCell id="Q99kiR7ui4vJTKgvzofk-22" value="Hiding" style="text;strokeColor=#9673a6;fillColor=#e1d5e7;align=left;verticalAlign=top;spacingLeft=4;spacingRight=4;overflow=hidden;rotatable=0;points=[[0,0.5],[1,0.5]];portConstraint=eastwest;whiteSpace=wrap;html=1;" parent="Q99kiR7ui4vJTKgvzofk-16" vertex="1">
          <mxGeometry y="170" width="140" height="26" as="geometry" />
        </mxCell>
        <mxCell id="Q99kiR7ui4vJTKgvzofk-24" style="edgeStyle=orthogonalEdgeStyle;rounded=0;orthogonalLoop=1;jettySize=auto;html=1;exitX=0;exitY=0.25;exitDx=0;exitDy=0;entryX=1;entryY=0.5;entryDx=0;entryDy=0;endArrow=none;endFill=0;" parent="1" source="idwGcyg0NZIY-Tr2IAWl-128" target="Q99kiR7ui4vJTKgvzofk-18" edge="1">
          <mxGeometry relative="1" as="geometry" />
        </mxCell>
        <mxCell id="Q99kiR7ui4vJTKgvzofk-23" style="edgeStyle=orthogonalEdgeStyle;rounded=0;orthogonalLoop=1;jettySize=auto;html=1;entryX=1;entryY=0.25;entryDx=0;entryDy=0;endArrow=none;endFill=0;" parent="1" source="idwGcyg0NZIY-Tr2IAWl-129" target="Q99kiR7ui4vJTKgvzofk-11" edge="1">
          <mxGeometry relative="1" as="geometry" />
        </mxCell>
        <mxCell id="Q99kiR7ui4vJTKgvzofk-29" style="edgeStyle=orthogonalEdgeStyle;rounded=0;orthogonalLoop=1;jettySize=auto;html=1;entryX=0.788;entryY=0.757;entryDx=0;entryDy=0;entryPerimeter=0;dashed=1;endArrow=none;endFill=0;" parent="1" source="idwGcyg0NZIY-Tr2IAWl-159" target="idwGcyg0NZIY-Tr2IAWl-177" edge="1">
          <mxGeometry relative="1" as="geometry">
            <Array as="points">
              <mxPoint x="4970" y="280" />
              <mxPoint x="5450" y="280" />
            </Array>
          </mxGeometry>
        </mxCell>
        <mxCell id="Q99kiR7ui4vJTKgvzofk-31" style="edgeStyle=orthogonalEdgeStyle;rounded=0;orthogonalLoop=1;jettySize=auto;html=1;entryX=0.521;entryY=0.91;entryDx=0;entryDy=0;entryPerimeter=0;dashed=1;endArrow=none;endFill=0;" parent="1" source="idwGcyg0NZIY-Tr2IAWl-167" target="idwGcyg0NZIY-Tr2IAWl-177" edge="1">
          <mxGeometry relative="1" as="geometry">
            <Array as="points">
              <mxPoint x="5630" y="280" />
              <mxPoint x="5450" y="280" />
            </Array>
          </mxGeometry>
        </mxCell>
        <mxCell id="Q99kiR7ui4vJTKgvzofk-32" style="edgeStyle=orthogonalEdgeStyle;rounded=0;orthogonalLoop=1;jettySize=auto;html=1;entryX=0.293;entryY=0.414;entryDx=0;entryDy=0;entryPerimeter=0;dashed=1;endArrow=none;endFill=0;" parent="1" source="idwGcyg0NZIY-Tr2IAWl-171" target="idwGcyg0NZIY-Tr2IAWl-177" edge="1">
          <mxGeometry relative="1" as="geometry">
            <Array as="points">
              <mxPoint x="6005" y="280" />
              <mxPoint x="5450" y="280" />
            </Array>
          </mxGeometry>
        </mxCell>
        <mxCell id="Q99kiR7ui4vJTKgvzofk-33" value="SlidingMovement" style="swimlane;fontStyle=1;align=center;verticalAlign=top;childLayout=stackLayout;horizontal=1;startSize=30;horizontalStack=0;resizeParent=1;resizeParentMax=0;resizeLast=0;collapsible=1;marginBottom=0;whiteSpace=wrap;html=1;fillColor=#e1d5e7;strokeColor=#9673a6;" parent="1" vertex="1">
          <mxGeometry x="6210" y="492" width="260" height="190" as="geometry" />
        </mxCell>
        <mxCell id="Q99kiR7ui4vJTKgvzofk-34" value="&lt;div&gt;- moving_speed_: bool&lt;/div&gt;&lt;div&gt;- min_speed_: float&lt;/div&gt;&lt;div&gt;- is_bouncing_: bool&lt;/div&gt;" style="text;strokeColor=#9673a6;fillColor=#e1d5e7;align=left;verticalAlign=top;spacingLeft=4;spacingRight=4;overflow=hidden;rotatable=0;points=[[0,0.5],[1,0.5]];portConstraint=eastwest;whiteSpace=wrap;html=1;" parent="Q99kiR7ui4vJTKgvzofk-33" vertex="1">
          <mxGeometry y="30" width="260" height="70" as="geometry" />
        </mxCell>
        <mxCell id="Q99kiR7ui4vJTKgvzofk-35" value="" style="line;strokeWidth=1;fillColor=#e1d5e7;align=left;verticalAlign=middle;spacingTop=-1;spacingLeft=3;spacingRight=3;rotatable=0;labelPosition=right;points=[];portConstraint=eastwest;strokeColor=#9673a6;" parent="Q99kiR7ui4vJTKgvzofk-33" vertex="1">
          <mxGeometry y="100" width="260" height="8" as="geometry" />
        </mxCell>
        <mxCell id="Q99kiR7ui4vJTKgvzofk-36" value="&lt;div&gt;+ &amp;lt;&amp;lt;override&amp;gt;&amp;gt; Update(): void&lt;/div&gt;&lt;div&gt;+ &amp;lt;&amp;lt;override&amp;gt;&amp;gt; Clone(): MovementStrategy&lt;/div&gt;&lt;div&gt;+ &amp;lt;&amp;lt;override&amp;gt;&amp;gt; ReverseDirection(): void&lt;/div&gt;" style="text;strokeColor=#9673a6;fillColor=#e1d5e7;align=left;verticalAlign=top;spacingLeft=4;spacingRight=4;overflow=hidden;rotatable=0;points=[[0,0.5],[1,0.5]];portConstraint=eastwest;whiteSpace=wrap;html=1;" parent="Q99kiR7ui4vJTKgvzofk-33" vertex="1">
          <mxGeometry y="108" width="260" height="82" as="geometry" />
        </mxCell>
        <mxCell id="Q99kiR7ui4vJTKgvzofk-37" value="PatrollingMovement" style="swimlane;fontStyle=1;align=center;verticalAlign=top;childLayout=stackLayout;horizontal=1;startSize=30;horizontalStack=0;resizeParent=1;resizeParentMax=0;resizeLast=0;collapsible=1;marginBottom=0;whiteSpace=wrap;html=1;fillColor=#e1d5e7;strokeColor=#9673a6;" parent="1" vertex="1">
          <mxGeometry x="6520" y="490" width="260" height="210" as="geometry" />
        </mxCell>
        <mxCell id="Q99kiR7ui4vJTKgvzofk-38" value="&lt;div&gt;- pointA: Vector2&lt;/div&gt;&lt;div&gt;- pointB: Vector2&lt;/div&gt;&lt;div&gt;- currentTarget: Vector2&lt;/div&gt;&lt;div&gt;- speed_: float&lt;/div&gt;&lt;div&gt;- tolerance_: float&lt;/div&gt;&lt;div&gt;- movingToB: bool&amp;nbsp;&lt;/div&gt;" style="text;strokeColor=#9673a6;fillColor=#e1d5e7;align=left;verticalAlign=top;spacingLeft=4;spacingRight=4;overflow=hidden;rotatable=0;points=[[0,0.5],[1,0.5]];portConstraint=eastwest;whiteSpace=wrap;html=1;" parent="Q99kiR7ui4vJTKgvzofk-37" vertex="1">
          <mxGeometry y="30" width="260" height="110" as="geometry" />
        </mxCell>
        <mxCell id="Q99kiR7ui4vJTKgvzofk-39" value="" style="line;strokeWidth=1;fillColor=#e1d5e7;align=left;verticalAlign=middle;spacingTop=-1;spacingLeft=3;spacingRight=3;rotatable=0;labelPosition=right;points=[];portConstraint=eastwest;strokeColor=#9673a6;" parent="Q99kiR7ui4vJTKgvzofk-37" vertex="1">
          <mxGeometry y="140" width="260" height="8" as="geometry" />
        </mxCell>
        <mxCell id="Q99kiR7ui4vJTKgvzofk-40" value="&lt;div&gt;+ &amp;lt;&amp;lt;override&amp;gt;&amp;gt; Update(): void&lt;/div&gt;&lt;div&gt;+ &amp;lt;&amp;lt;override&amp;gt;&amp;gt; Clone(): MovementStrategy&lt;/div&gt;&lt;div&gt;+ &amp;lt;&amp;lt;override&amp;gt;&amp;gt; ReverseDirection(): void&lt;/div&gt;" style="text;strokeColor=#9673a6;fillColor=#e1d5e7;align=left;verticalAlign=top;spacingLeft=4;spacingRight=4;overflow=hidden;rotatable=0;points=[[0,0.5],[1,0.5]];portConstraint=eastwest;whiteSpace=wrap;html=1;" parent="Q99kiR7ui4vJTKgvzofk-37" vertex="1">
          <mxGeometry y="148" width="260" height="62" as="geometry" />
        </mxCell>
        <mxCell id="Q99kiR7ui4vJTKgvzofk-41" value="FollowingMovement" style="swimlane;fontStyle=1;align=center;verticalAlign=top;childLayout=stackLayout;horizontal=1;startSize=30;horizontalStack=0;resizeParent=1;resizeParentMax=0;resizeLast=0;collapsible=1;marginBottom=0;whiteSpace=wrap;html=1;fillColor=#e1d5e7;strokeColor=#9673a6;" parent="1" vertex="1">
          <mxGeometry x="6820" y="490" width="260" height="250" as="geometry" />
        </mxCell>
        <mxCell id="Q99kiR7ui4vJTKgvzofk-42" value="&lt;div&gt;- targetPosition: Vector2&lt;/div&gt;&lt;div&gt;- speed_: float&lt;/div&gt;&lt;div&gt;- detectionRange_: float&lt;/div&gt;&lt;div&gt;- minDistance_: float&lt;/div&gt;&lt;div&gt;- isFollowing: bool&lt;/div&gt;&lt;div&gt;&lt;br&gt;&lt;/div&gt;" style="text;strokeColor=#9673a6;fillColor=#e1d5e7;align=left;verticalAlign=top;spacingLeft=4;spacingRight=4;overflow=hidden;rotatable=0;points=[[0,0.5],[1,0.5]];portConstraint=eastwest;whiteSpace=wrap;html=1;" parent="Q99kiR7ui4vJTKgvzofk-41" vertex="1">
          <mxGeometry y="30" width="260" height="90" as="geometry" />
        </mxCell>
        <mxCell id="Q99kiR7ui4vJTKgvzofk-43" value="" style="line;strokeWidth=1;fillColor=#e1d5e7;align=left;verticalAlign=middle;spacingTop=-1;spacingLeft=3;spacingRight=3;rotatable=0;labelPosition=right;points=[];portConstraint=eastwest;strokeColor=#9673a6;" parent="Q99kiR7ui4vJTKgvzofk-41" vertex="1">
          <mxGeometry y="120" width="260" height="8" as="geometry" />
        </mxCell>
        <mxCell id="Q99kiR7ui4vJTKgvzofk-44" value="&lt;div&gt;+ SetTarget(target: Vector2): void&lt;/div&gt;&lt;div&gt;+ IsFollowing(): bool&lt;/div&gt;&lt;div&gt;+ GetDetectionRange(): float&lt;/div&gt;&lt;div&gt;&lt;br&gt;&lt;/div&gt;&lt;div&gt;&lt;div&gt;+ &amp;lt;&amp;lt;override&amp;gt;&amp;gt; Update(): void&lt;/div&gt;&lt;div&gt;+ &amp;lt;&amp;lt;override&amp;gt;&amp;gt; Clone(): MovementStrategy&lt;/div&gt;&lt;div&gt;+ &amp;lt;&amp;lt;override&amp;gt;&amp;gt; ReverseDirection(): void&lt;/div&gt;&lt;br&gt;&lt;/div&gt;&lt;div&gt;&amp;nbsp;&lt;/div&gt;" style="text;strokeColor=#9673a6;fillColor=#e1d5e7;align=left;verticalAlign=top;spacingLeft=4;spacingRight=4;overflow=hidden;rotatable=0;points=[[0,0.5],[1,0.5]];portConstraint=eastwest;whiteSpace=wrap;html=1;" parent="Q99kiR7ui4vJTKgvzofk-41" vertex="1">
          <mxGeometry y="128" width="260" height="122" as="geometry" />
        </mxCell>
        <mxCell id="Q99kiR7ui4vJTKgvzofk-45" style="edgeStyle=orthogonalEdgeStyle;rounded=0;orthogonalLoop=1;jettySize=auto;html=1;exitX=0.5;exitY=0;exitDx=0;exitDy=0;entryX=0.7;entryY=0.906;entryDx=0;entryDy=0;entryPerimeter=0;endArrow=none;endFill=0;dashed=1;" parent="1" source="Q99kiR7ui4vJTKgvzofk-33" target="idwGcyg0NZIY-Tr2IAWl-177" edge="1">
          <mxGeometry relative="1" as="geometry">
            <Array as="points">
              <mxPoint x="6340" y="280" />
              <mxPoint x="5450" y="280" />
            </Array>
          </mxGeometry>
        </mxCell>
        <mxCell id="Q99kiR7ui4vJTKgvzofk-46" style="edgeStyle=orthogonalEdgeStyle;rounded=0;orthogonalLoop=1;jettySize=auto;html=1;entryX=0.7;entryY=1.128;entryDx=0;entryDy=0;entryPerimeter=0;endArrow=none;endFill=0;dashed=1;" parent="1" source="Q99kiR7ui4vJTKgvzofk-37" target="idwGcyg0NZIY-Tr2IAWl-177" edge="1">
          <mxGeometry relative="1" as="geometry">
            <Array as="points">
              <mxPoint x="6650" y="280" />
              <mxPoint x="5450" y="280" />
            </Array>
          </mxGeometry>
        </mxCell>
        <mxCell id="Q99kiR7ui4vJTKgvzofk-47" style="edgeStyle=orthogonalEdgeStyle;rounded=0;orthogonalLoop=1;jettySize=auto;html=1;entryX=0.744;entryY=0.194;entryDx=0;entryDy=0;entryPerimeter=0;endArrow=none;endFill=0;dashed=1;" parent="1" source="Q99kiR7ui4vJTKgvzofk-41" target="idwGcyg0NZIY-Tr2IAWl-177" edge="1">
          <mxGeometry relative="1" as="geometry">
            <Array as="points">
              <mxPoint x="6950" y="280" />
              <mxPoint x="5450" y="280" />
            </Array>
          </mxGeometry>
        </mxCell>
        <mxCell id="Q99kiR7ui4vJTKgvzofk-52" style="edgeStyle=orthogonalEdgeStyle;rounded=0;orthogonalLoop=1;jettySize=auto;html=1;exitX=0;exitY=0.5;exitDx=0;exitDy=0;entryX=1;entryY=0.5;entryDx=0;entryDy=0;endArrow=open;endFill=0;startArrow=diamond;startFill=1;" parent="1" source="Q99kiR7ui4vJTKgvzofk-48" target="idwGcyg0NZIY-Tr2IAWl-129" edge="1">
          <mxGeometry relative="1" as="geometry" />
        </mxCell>
        <mxCell id="hY3oV-c14LFieW8W5GVs-83" value="1...*" style="edgeLabel;html=1;align=center;verticalAlign=middle;resizable=0;points=[];" parent="Q99kiR7ui4vJTKgvzofk-52" vertex="1" connectable="0">
          <mxGeometry x="-0.9787" y="1" relative="1" as="geometry">
            <mxPoint y="-13" as="offset" />
          </mxGeometry>
        </mxCell>
        <mxCell id="hY3oV-c14LFieW8W5GVs-53" style="edgeStyle=orthogonalEdgeStyle;rounded=0;orthogonalLoop=1;jettySize=auto;html=1;entryX=0.5;entryY=0;entryDx=0;entryDy=0;endArrow=none;endFill=0;" parent="1" source="Q99kiR7ui4vJTKgvzofk-48" target="idwGcyg0NZIY-Tr2IAWl-73" edge="1">
          <mxGeometry relative="1" as="geometry">
            <Array as="points">
              <mxPoint x="5950" y="-1410" />
              <mxPoint x="4015" y="-1410" />
            </Array>
          </mxGeometry>
        </mxCell>
        <mxCell id="hY3oV-c14LFieW8W5GVs-54" style="edgeStyle=orthogonalEdgeStyle;rounded=0;orthogonalLoop=1;jettySize=auto;html=1;exitX=0.25;exitY=0;exitDx=0;exitDy=0;entryX=0.5;entryY=0;entryDx=0;entryDy=0;endArrow=none;endFill=0;" parent="1" source="Q99kiR7ui4vJTKgvzofk-48" target="idwGcyg0NZIY-Tr2IAWl-37" edge="1">
          <mxGeometry relative="1" as="geometry">
            <Array as="points">
              <mxPoint x="5865" y="-1530" />
              <mxPoint x="3295" y="-1530" />
            </Array>
          </mxGeometry>
        </mxCell>
        <mxCell id="Q99kiR7ui4vJTKgvzofk-48" value="EnemyManager" style="swimlane;fontStyle=1;align=center;verticalAlign=top;childLayout=stackLayout;horizontal=1;startSize=26;horizontalStack=0;resizeParent=1;resizeParentMax=0;resizeLast=0;collapsible=1;marginBottom=0;whiteSpace=wrap;html=1;fillColor=#e1d5e7;strokeColor=#9673a6;" parent="1" vertex="1">
          <mxGeometry x="5830" y="-380" width="420" height="620" as="geometry" />
        </mxCell>
        <mxCell id="Q99kiR7ui4vJTKgvzofk-49" value="&lt;div&gt;- enemies: vector&amp;lt;Enemy&amp;gt;&lt;/div&gt;&lt;div&gt;- pausedStrategies(enemy: Enemy, movement: MovementStragy)&lt;/div&gt;&lt;div&gt;- activeCharacterPosition: Vector2&lt;/div&gt;&lt;div&gt;&lt;br&gt;&lt;/div&gt;&lt;div&gt;- collsionHandler_: CollisionHandler&lt;/div&gt;&lt;div&gt;- projectilePool_: ProjectilePool&lt;/div&gt;&lt;div&gt;- GameManager: GameManaging&lt;/div&gt;&lt;div&gt;- currentboss: Enemy&lt;/div&gt;" style="text;strokeColor=#9673a6;fillColor=#e1d5e7;align=left;verticalAlign=top;spacingLeft=4;spacingRight=4;overflow=hidden;rotatable=0;points=[[0,0.5],[1,0.5]];portConstraint=eastwest;whiteSpace=wrap;html=1;" parent="Q99kiR7ui4vJTKgvzofk-48" vertex="1">
          <mxGeometry y="26" width="420" height="154" as="geometry" />
        </mxCell>
        <mxCell id="Q99kiR7ui4vJTKgvzofk-50" value="" style="line;strokeWidth=1;fillColor=#e1d5e7;align=left;verticalAlign=middle;spacingTop=-1;spacingLeft=3;spacingRight=3;rotatable=0;labelPosition=right;points=[];portConstraint=eastwest;strokeColor=#9673a6;" parent="Q99kiR7ui4vJTKgvzofk-48" vertex="1">
          <mxGeometry y="180" width="420" height="8" as="geometry" />
        </mxCell>
        <mxCell id="Q99kiR7ui4vJTKgvzofk-51" value="&lt;div&gt;&lt;u&gt;+ GetInstance(): EnemyManager&lt;/u&gt;&lt;/div&gt;&lt;div&gt;+ AddEnemy(enemy: Enemy): void&lt;/div&gt;&lt;div&gt;+ SpawnEnemy( type: EnemyType: position: Vector2): void&lt;/div&gt;&lt;div&gt;&lt;br&gt;&lt;/div&gt;&lt;div&gt;+ ClearAllEnemies(): void&lt;/div&gt;&lt;div&gt;+ ClearDeadEnemies(): void&lt;/div&gt;&lt;div&gt;+ SetGameManager(gameManager: GameManaging): void&lt;/div&gt;&lt;div&gt;+ OnEnemyDeath(index: int): void&lt;/div&gt;&lt;div&gt;&lt;br&gt;&lt;/div&gt;&lt;div&gt;+ UpdateAll(time: float): void&lt;/div&gt;&lt;div&gt;+ Draw(): void&lt;/div&gt;&lt;div&gt;&lt;br&gt;&lt;/div&gt;&lt;div&gt;+ SetProjectilePool(projectilepool: ProjectilePool): void&lt;/div&gt;&lt;div&gt;+ GetProjectilePool(): ProjectilePool&lt;/div&gt;&lt;div&gt;&lt;br&gt;&lt;/div&gt;&lt;div&gt;+ SpawnBoss(bossType EnemyType, position: Vector2): void&lt;/div&gt;&lt;div&gt;+ GetBoss(): EnemyType&lt;/div&gt;&lt;div&gt;+ HasBoss(): bool&lt;/div&gt;&lt;div&gt;&lt;br&gt;&lt;/div&gt;&lt;div&gt;+ GetEnemyCount(): size_t&lt;/div&gt;&lt;div&gt;+ GetAliveEnemyCount(): size_t&lt;/div&gt;&lt;div&gt;+ GetEnemiesByType(): vector&amp;lt;Enemy&amp;gt;&lt;/div&gt;&lt;div&gt;+ AreAllEnemiesDead(): bool&lt;/div&gt;&lt;div&gt;+ HasEnemyType(type: EnemyType): bool&lt;/div&gt;" style="text;strokeColor=#9673a6;fillColor=#e1d5e7;align=left;verticalAlign=top;spacingLeft=4;spacingRight=4;overflow=hidden;rotatable=0;points=[[0,0.5],[1,0.5]];portConstraint=eastwest;whiteSpace=wrap;html=1;" parent="Q99kiR7ui4vJTKgvzofk-48" vertex="1">
          <mxGeometry y="188" width="420" height="432" as="geometry" />
        </mxCell>
        <mxCell id="hY3oV-c14LFieW8W5GVs-82" style="edgeStyle=orthogonalEdgeStyle;rounded=0;orthogonalLoop=1;jettySize=auto;html=1;entryX=0.5;entryY=1;entryDx=0;entryDy=0;endArrow=none;endFill=0;" parent="1" source="Q99kiR7ui4vJTKgvzofk-53" target="hY3oV-c14LFieW8W5GVs-75" edge="1">
          <mxGeometry relative="1" as="geometry" />
        </mxCell>
        <mxCell id="Q99kiR7ui4vJTKgvzofk-53" value="&lt;div&gt;&lt;span style=&quot;font-weight: normal;&quot;&gt;&amp;lt;&amp;lt;interface&amp;gt;&amp;gt;&lt;/span&gt;&lt;/div&gt;&lt;div&gt;&lt;i&gt;GameObject&lt;/i&gt;&lt;/div&gt;" style="swimlane;fontStyle=1;align=center;verticalAlign=top;childLayout=stackLayout;horizontal=1;startSize=40;horizontalStack=0;resizeParent=1;resizeParentMax=0;resizeLast=0;collapsible=1;marginBottom=0;whiteSpace=wrap;html=1;fillColor=#d5e8d4;strokeColor=#82b366;" parent="1" vertex="1">
          <mxGeometry x="3930" y="917" width="300" height="340" as="geometry" />
        </mxCell>
        <mxCell id="Q99kiR7ui4vJTKgvzofk-54" value="&lt;div&gt;# position: Vector2&lt;/div&gt;&lt;div&gt;# velocity: Vector2&lt;/div&gt;&lt;div&gt;# scale: float&lt;/div&gt;&lt;div&gt;# gravity: float&lt;/div&gt;&lt;div&gt;# is_destroyed: bool&lt;/div&gt;" style="text;strokeColor=#82b366;fillColor=#d5e8d4;align=left;verticalAlign=top;spacingLeft=4;spacingRight=4;overflow=hidden;rotatable=0;points=[[0,0.5],[1,0.5]];portConstraint=eastwest;whiteSpace=wrap;html=1;" parent="Q99kiR7ui4vJTKgvzofk-53" vertex="1">
          <mxGeometry y="40" width="300" height="90" as="geometry" />
        </mxCell>
        <mxCell id="Q99kiR7ui4vJTKgvzofk-55" value="" style="line;strokeWidth=1;fillColor=none;align=left;verticalAlign=middle;spacingTop=-1;spacingLeft=3;spacingRight=3;rotatable=0;labelPosition=right;points=[];portConstraint=eastwest;strokeColor=inherit;" parent="Q99kiR7ui4vJTKgvzofk-53" vertex="1">
          <mxGeometry y="130" width="300" height="8" as="geometry" />
        </mxCell>
        <mxCell id="Q99kiR7ui4vJTKgvzofk-56" value="&lt;div&gt;- LoadFrameList(address: string): void&lt;/div&gt;&lt;div&gt;- Bounce(): void&lt;/div&gt;&lt;div&gt;&lt;br&gt;&lt;/div&gt;&lt;div&gt;+ &amp;lt;&amp;lt;virtual&amp;gt;&amp;gt; Update(): void&lt;/div&gt;&lt;div&gt;+ &amp;lt;&amp;lt;virtual&amp;gt;&amp;gt; Draw(): void&lt;/div&gt;&lt;div&gt;&lt;br&gt;&lt;/div&gt;&lt;div&gt;+ GetRectangle(): Rectangle&lt;/div&gt;&lt;div&gt;+ ReverseDirection(): void&lt;/div&gt;&lt;div&gt;+&amp;lt;&amp;lt;virtual&amp;gt;&amp;gt; StopY(Ny: float): void&lt;/div&gt;&lt;div&gt;&lt;br&gt;&lt;/div&gt;&lt;div&gt;+ &amp;lt;&amp;lt;pure virtual&amp;gt;&amp;gt; OnHit(): void&lt;/div&gt;&lt;div&gt;+ &amp;lt;&amp;lt;pure virtual&amp;gt;&amp;gt; GetType(): ObjectType&lt;/div&gt;&lt;div&gt;+ GetSpeed(): Vector2&lt;/div&gt;" style="text;strokeColor=#82b366;fillColor=#d5e8d4;align=left;verticalAlign=top;spacingLeft=4;spacingRight=4;overflow=hidden;rotatable=0;points=[[0,0.5],[1,0.5]];portConstraint=eastwest;whiteSpace=wrap;html=1;" parent="Q99kiR7ui4vJTKgvzofk-53" vertex="1">
          <mxGeometry y="138" width="300" height="202" as="geometry" />
        </mxCell>
        <mxCell id="hY3oV-c14LFieW8W5GVs-1" value="ObjectManager" style="swimlane;fontStyle=1;align=center;verticalAlign=top;childLayout=stackLayout;horizontal=1;startSize=40;horizontalStack=0;resizeParent=1;resizeParentMax=0;resizeLast=0;collapsible=1;marginBottom=0;whiteSpace=wrap;html=1;fillColor=#d5e8d4;strokeColor=#82b366;" parent="1" vertex="1">
          <mxGeometry x="4940" y="832" width="440" height="470" as="geometry" />
        </mxCell>
        <mxCell id="hY3oV-c14LFieW8W5GVs-2" value="&lt;div&gt;- object_list_: vector&amp;lt;GameObject&amp;gt;&lt;/div&gt;&lt;div&gt;- scale_: float&lt;/div&gt;&lt;div&gt;- collsion: CollisionHandler&lt;/div&gt;&lt;div&gt;- gameManager: GameManaging&lt;/div&gt;" style="text;strokeColor=#82b366;fillColor=#d5e8d4;align=left;verticalAlign=top;spacingLeft=4;spacingRight=4;overflow=hidden;rotatable=0;points=[[0,0.5],[1,0.5]];portConstraint=eastwest;whiteSpace=wrap;html=1;" parent="hY3oV-c14LFieW8W5GVs-1" vertex="1">
          <mxGeometry y="40" width="440" height="90" as="geometry" />
        </mxCell>
        <mxCell id="hY3oV-c14LFieW8W5GVs-3" value="" style="line;strokeWidth=1;fillColor=none;align=left;verticalAlign=middle;spacingTop=-1;spacingLeft=3;spacingRight=3;rotatable=0;labelPosition=right;points=[];portConstraint=eastwest;strokeColor=inherit;" parent="hY3oV-c14LFieW8W5GVs-1" vertex="1">
          <mxGeometry y="130" width="440" height="8" as="geometry" />
        </mxCell>
        <mxCell id="hY3oV-c14LFieW8W5GVs-4" value="&lt;div&gt;&amp;nbsp; &amp;nbsp; +&amp;nbsp;&lt;u&gt;GetInstance(): ObjectManager&lt;/u&gt;&lt;/div&gt;&lt;div&gt;&amp;nbsp; &amp;nbsp; + Reset(Nscale: int, Ncollision: CollisionHandler*): void&lt;/div&gt;&lt;div&gt;&amp;nbsp; &amp;nbsp; + DeleteObject(index: int): void&lt;/div&gt;&lt;div&gt;&lt;br&gt;&lt;/div&gt;&amp;nbsp; &amp;nbsp; + AddBrickBlock(position: Vector2): void&lt;br&gt;&amp;nbsp; &amp;nbsp; + AddCoin(position: Vector2): void&lt;br&gt;&amp;nbsp; &amp;nbsp; + AddFireFlower(position: Vector2): void&lt;br&gt;&amp;nbsp; &amp;nbsp; + AddPipeBlock(position: Vector2, length: int, is_vertical: bool, has_head: bool, has_tail: bool): void&lt;br&gt;&amp;nbsp; &amp;nbsp; + AddQuestionBlock(position: Vector2, itemType: int): void&lt;br&gt;&amp;nbsp; &amp;nbsp; + AddStaticBlockByGid(position: Vector2, rect: Rectangle): void&lt;br&gt;&amp;nbsp; &amp;nbsp; + AddStaticBlockByTheme(position: Vector2, theme: char): void&lt;br&gt;&amp;nbsp; &amp;nbsp; + AddSuperMushroom(position: Vector2, to_left: bool): void&lt;br&gt;&lt;div&gt;&amp;nbsp; &amp;nbsp; + AddSuperStar(position: Vector2): void&lt;/div&gt;&lt;div&gt;&lt;br&gt;&lt;/div&gt;&amp;nbsp; &amp;nbsp; + SetFrameCount(): void&lt;br&gt;&amp;nbsp; &amp;nbsp; + Update(): void&lt;br&gt;&amp;nbsp; &amp;nbsp; + Draw(): void&lt;br&gt;&lt;div&gt;&lt;br&gt;&lt;/div&gt;&amp;nbsp; &amp;nbsp; + SetGameManager(gameManager: GameManaging*): void&lt;br&gt;&amp;nbsp; &amp;nbsp; + GetGameManager(): GameManaging*" style="text;strokeColor=#82b366;fillColor=#d5e8d4;align=left;verticalAlign=top;spacingLeft=4;spacingRight=4;overflow=hidden;rotatable=0;points=[[0,0.5],[1,0.5]];portConstraint=eastwest;whiteSpace=wrap;html=1;" parent="hY3oV-c14LFieW8W5GVs-1" vertex="1">
          <mxGeometry y="138" width="440" height="332" as="geometry" />
        </mxCell>
        <mxCell id="hY3oV-c14LFieW8W5GVs-5" style="edgeStyle=orthogonalEdgeStyle;rounded=0;orthogonalLoop=1;jettySize=auto;html=1;entryX=0;entryY=0.5;entryDx=0;entryDy=0;endArrow=diamondThin;endFill=1;startArrow=open;startFill=0;" parent="1" source="Q99kiR7ui4vJTKgvzofk-56" target="hY3oV-c14LFieW8W5GVs-4" edge="1">
          <mxGeometry relative="1" as="geometry" />
        </mxCell>
        <mxCell id="hY3oV-c14LFieW8W5GVs-8" value="BrickBlock" style="swimlane;fontStyle=1;align=center;verticalAlign=top;childLayout=stackLayout;horizontal=1;startSize=26;horizontalStack=0;resizeParent=1;resizeParentMax=0;resizeLast=0;collapsible=1;marginBottom=0;whiteSpace=wrap;html=1;fillColor=#d5e8d4;strokeColor=#82b366;" parent="1" vertex="1">
          <mxGeometry x="3020" y="1480" width="250" height="120" as="geometry" />
        </mxCell>
        <mxCell id="hY3oV-c14LFieW8W5GVs-9" value="&amp;nbsp;" style="text;strokeColor=#82b366;fillColor=#d5e8d4;align=left;verticalAlign=top;spacingLeft=4;spacingRight=4;overflow=hidden;rotatable=0;points=[[0,0.5],[1,0.5]];portConstraint=eastwest;whiteSpace=wrap;html=1;" parent="hY3oV-c14LFieW8W5GVs-8" vertex="1">
          <mxGeometry y="26" width="250" height="26" as="geometry" />
        </mxCell>
        <mxCell id="hY3oV-c14LFieW8W5GVs-10" value="" style="line;strokeWidth=1;fillColor=#d5e8d4;align=left;verticalAlign=middle;spacingTop=-1;spacingLeft=3;spacingRight=3;rotatable=0;labelPosition=right;points=[];portConstraint=eastwest;strokeColor=#82b366;" parent="hY3oV-c14LFieW8W5GVs-8" vertex="1">
          <mxGeometry y="52" width="250" height="8" as="geometry" />
        </mxCell>
        <mxCell id="hY3oV-c14LFieW8W5GVs-11" value="&lt;div&gt;+ &amp;lt;&amp;lt;override&amp;gt;&amp;gt; OnHIt(): void&lt;/div&gt;&lt;div&gt;+ &amp;lt;&amp;lt;override&amp;gt;&amp;gt; GetType(): ObjectType&lt;/div&gt;" style="text;strokeColor=#82b366;fillColor=#d5e8d4;align=left;verticalAlign=top;spacingLeft=4;spacingRight=4;overflow=hidden;rotatable=0;points=[[0,0.5],[1,0.5]];portConstraint=eastwest;whiteSpace=wrap;html=1;" parent="hY3oV-c14LFieW8W5GVs-8" vertex="1">
          <mxGeometry y="60" width="250" height="60" as="geometry" />
        </mxCell>
        <mxCell id="hY3oV-c14LFieW8W5GVs-12" value="Coin" style="swimlane;fontStyle=1;align=center;verticalAlign=top;childLayout=stackLayout;horizontal=1;startSize=26;horizontalStack=0;resizeParent=1;resizeParentMax=0;resizeLast=0;collapsible=1;marginBottom=0;whiteSpace=wrap;html=1;fillColor=#d5e8d4;strokeColor=#82b366;" parent="1" vertex="1">
          <mxGeometry x="3285" y="1480" width="240" height="120" as="geometry" />
        </mxCell>
        <mxCell id="hY3oV-c14LFieW8W5GVs-13" value="&amp;nbsp;" style="text;strokeColor=#82b366;fillColor=#d5e8d4;align=left;verticalAlign=top;spacingLeft=4;spacingRight=4;overflow=hidden;rotatable=0;points=[[0,0.5],[1,0.5]];portConstraint=eastwest;whiteSpace=wrap;html=1;" parent="hY3oV-c14LFieW8W5GVs-12" vertex="1">
          <mxGeometry y="26" width="240" height="26" as="geometry" />
        </mxCell>
        <mxCell id="hY3oV-c14LFieW8W5GVs-14" value="" style="line;strokeWidth=1;fillColor=#d5e8d4;align=left;verticalAlign=middle;spacingTop=-1;spacingLeft=3;spacingRight=3;rotatable=0;labelPosition=right;points=[];portConstraint=eastwest;strokeColor=#82b366;" parent="hY3oV-c14LFieW8W5GVs-12" vertex="1">
          <mxGeometry y="52" width="240" height="8" as="geometry" />
        </mxCell>
        <mxCell id="hY3oV-c14LFieW8W5GVs-15" value="&lt;div&gt;+ &amp;lt;&amp;lt;override&amp;gt;&amp;gt; OnHIt(): void&lt;/div&gt;&lt;div&gt;+ &amp;lt;&amp;lt;override&amp;gt;&amp;gt; GetType(): ObjectType&lt;/div&gt;&lt;div&gt;+ &amp;lt;&amp;lt;override&amp;gt;&amp;gt; Draw(): void&lt;/div&gt;" style="text;strokeColor=#82b366;fillColor=#d5e8d4;align=left;verticalAlign=top;spacingLeft=4;spacingRight=4;overflow=hidden;rotatable=0;points=[[0,0.5],[1,0.5]];portConstraint=eastwest;whiteSpace=wrap;html=1;" parent="hY3oV-c14LFieW8W5GVs-12" vertex="1">
          <mxGeometry y="60" width="240" height="60" as="geometry" />
        </mxCell>
        <mxCell id="hY3oV-c14LFieW8W5GVs-16" value="FireFlower" style="swimlane;fontStyle=1;align=center;verticalAlign=top;childLayout=stackLayout;horizontal=1;startSize=26;horizontalStack=0;resizeParent=1;resizeParentMax=0;resizeLast=0;collapsible=1;marginBottom=0;whiteSpace=wrap;html=1;fillColor=#d5e8d4;strokeColor=#82b366;" parent="1" vertex="1">
          <mxGeometry x="3540" y="1480" width="230" height="120" as="geometry" />
        </mxCell>
        <mxCell id="hY3oV-c14LFieW8W5GVs-17" value="&amp;nbsp;" style="text;strokeColor=#82b366;fillColor=#d5e8d4;align=left;verticalAlign=top;spacingLeft=4;spacingRight=4;overflow=hidden;rotatable=0;points=[[0,0.5],[1,0.5]];portConstraint=eastwest;whiteSpace=wrap;html=1;" parent="hY3oV-c14LFieW8W5GVs-16" vertex="1">
          <mxGeometry y="26" width="230" height="26" as="geometry" />
        </mxCell>
        <mxCell id="hY3oV-c14LFieW8W5GVs-18" value="" style="line;strokeWidth=1;fillColor=#d5e8d4;align=left;verticalAlign=middle;spacingTop=-1;spacingLeft=3;spacingRight=3;rotatable=0;labelPosition=right;points=[];portConstraint=eastwest;strokeColor=#82b366;" parent="hY3oV-c14LFieW8W5GVs-16" vertex="1">
          <mxGeometry y="52" width="230" height="8" as="geometry" />
        </mxCell>
        <mxCell id="hY3oV-c14LFieW8W5GVs-19" value="&lt;div&gt;+ &amp;lt;&amp;lt;override&amp;gt;&amp;gt; OnHIt(): void&lt;/div&gt;&lt;div&gt;+ &amp;lt;&amp;lt;override&amp;gt;&amp;gt; GetType(): ObjectType&lt;/div&gt;&lt;div&gt;+ &amp;lt;&amp;lt;override&amp;gt;&amp;gt; Draw(): void&lt;/div&gt;" style="text;strokeColor=#82b366;fillColor=#d5e8d4;align=left;verticalAlign=top;spacingLeft=4;spacingRight=4;overflow=hidden;rotatable=0;points=[[0,0.5],[1,0.5]];portConstraint=eastwest;whiteSpace=wrap;html=1;" parent="hY3oV-c14LFieW8W5GVs-16" vertex="1">
          <mxGeometry y="60" width="230" height="60" as="geometry" />
        </mxCell>
        <mxCell id="hY3oV-c14LFieW8W5GVs-20" value="PipeBlock" style="swimlane;fontStyle=1;align=center;verticalAlign=top;childLayout=stackLayout;horizontal=1;startSize=26;horizontalStack=0;resizeParent=1;resizeParentMax=0;resizeLast=0;collapsible=1;marginBottom=0;whiteSpace=wrap;html=1;fillColor=#d5e8d4;strokeColor=#82b366;" parent="1" vertex="1">
          <mxGeometry x="3790" y="1480" width="240" height="180" as="geometry" />
        </mxCell>
        <mxCell id="hY3oV-c14LFieW8W5GVs-21" value="&lt;div&gt;- is_vertical_: bool&lt;/div&gt;&lt;div&gt;- has_head_, has_tail_: bool&lt;/div&gt;&lt;div&gt;- length: int&lt;/div&gt;&lt;div&gt;&lt;br&gt;&lt;/div&gt;" style="text;strokeColor=#82b366;fillColor=#d5e8d4;align=left;verticalAlign=top;spacingLeft=4;spacingRight=4;overflow=hidden;rotatable=0;points=[[0,0.5],[1,0.5]];portConstraint=eastwest;whiteSpace=wrap;html=1;" parent="hY3oV-c14LFieW8W5GVs-20" vertex="1">
          <mxGeometry y="26" width="240" height="64" as="geometry" />
        </mxCell>
        <mxCell id="hY3oV-c14LFieW8W5GVs-22" value="" style="line;strokeWidth=1;fillColor=#d5e8d4;align=left;verticalAlign=middle;spacingTop=-1;spacingLeft=3;spacingRight=3;rotatable=0;labelPosition=right;points=[];portConstraint=eastwest;strokeColor=#82b366;" parent="hY3oV-c14LFieW8W5GVs-20" vertex="1">
          <mxGeometry y="90" width="240" height="8" as="geometry" />
        </mxCell>
        <mxCell id="hY3oV-c14LFieW8W5GVs-23" value="&lt;div&gt;- MakeDestRecMod(pos: Vector2, rect: Rectangle): Rectangle&lt;/div&gt;&lt;div&gt;&lt;div&gt;+ &amp;lt;&amp;lt;override&amp;gt;&amp;gt; OnHIt(): void&lt;/div&gt;&lt;div&gt;+ &amp;lt;&amp;lt;override&amp;gt;&amp;gt; GetType(): ObjectType&lt;/div&gt;&lt;div&gt;+ &amp;lt;&amp;lt;override&amp;gt;&amp;gt; Draw(): void&lt;/div&gt;&lt;br&gt;&lt;/div&gt;" style="text;strokeColor=#82b366;fillColor=#d5e8d4;align=left;verticalAlign=top;spacingLeft=4;spacingRight=4;overflow=hidden;rotatable=0;points=[[0,0.5],[1,0.5]];portConstraint=eastwest;whiteSpace=wrap;html=1;" parent="hY3oV-c14LFieW8W5GVs-20" vertex="1">
          <mxGeometry y="98" width="240" height="82" as="geometry" />
        </mxCell>
        <mxCell id="hY3oV-c14LFieW8W5GVs-24" value="QuestionBlock" style="swimlane;fontStyle=1;align=center;verticalAlign=top;childLayout=stackLayout;horizontal=1;startSize=26;horizontalStack=0;resizeParent=1;resizeParentMax=0;resizeLast=0;collapsible=1;marginBottom=0;whiteSpace=wrap;html=1;fillColor=#d5e8d4;strokeColor=#82b366;" parent="1" vertex="1">
          <mxGeometry x="4070" y="1480" width="240" height="170" as="geometry" />
        </mxCell>
        <mxCell id="hY3oV-c14LFieW8W5GVs-25" value="&lt;div&gt;- is_used_: bool&lt;/div&gt;&lt;div&gt;- item_spawned: bool&lt;/div&gt;&lt;div&gt;- item_: QuestionBlockItem&lt;/div&gt;" style="text;strokeColor=#82b366;fillColor=#d5e8d4;align=left;verticalAlign=top;spacingLeft=4;spacingRight=4;overflow=hidden;rotatable=0;points=[[0,0.5],[1,0.5]];portConstraint=eastwest;whiteSpace=wrap;html=1;" parent="hY3oV-c14LFieW8W5GVs-24" vertex="1">
          <mxGeometry y="26" width="240" height="64" as="geometry" />
        </mxCell>
        <mxCell id="hY3oV-c14LFieW8W5GVs-26" value="" style="line;strokeWidth=1;fillColor=#d5e8d4;align=left;verticalAlign=middle;spacingTop=-1;spacingLeft=3;spacingRight=3;rotatable=0;labelPosition=right;points=[];portConstraint=eastwest;strokeColor=#82b366;" parent="hY3oV-c14LFieW8W5GVs-24" vertex="1">
          <mxGeometry y="90" width="240" height="8" as="geometry" />
        </mxCell>
        <mxCell id="hY3oV-c14LFieW8W5GVs-27" value="&lt;div&gt;+ &amp;lt;&amp;lt;override&amp;gt;&amp;gt; OnHIt(): void&lt;/div&gt;&lt;div&gt;+ &amp;lt;&amp;lt;override&amp;gt;&amp;gt; GetType(): ObjectType&amp;nbsp;&lt;/div&gt;&lt;div&gt;+ &amp;lt;&amp;lt;override&amp;gt;&amp;gt; Update(): void&amp;nbsp;&lt;/div&gt;" style="text;strokeColor=#82b366;fillColor=#d5e8d4;align=left;verticalAlign=top;spacingLeft=4;spacingRight=4;overflow=hidden;rotatable=0;points=[[0,0.5],[1,0.5]];portConstraint=eastwest;whiteSpace=wrap;html=1;" parent="hY3oV-c14LFieW8W5GVs-24" vertex="1">
          <mxGeometry y="98" width="240" height="72" as="geometry" />
        </mxCell>
        <mxCell id="hY3oV-c14LFieW8W5GVs-28" value="StaticBlock" style="swimlane;fontStyle=1;align=center;verticalAlign=top;childLayout=stackLayout;horizontal=1;startSize=26;horizontalStack=0;resizeParent=1;resizeParentMax=0;resizeLast=0;collapsible=1;marginBottom=0;whiteSpace=wrap;html=1;fillColor=#d5e8d4;strokeColor=#82b366;" parent="1" vertex="1">
          <mxGeometry x="4330" y="1480" width="240" height="120" as="geometry" />
        </mxCell>
        <mxCell id="hY3oV-c14LFieW8W5GVs-29" value="" style="text;strokeColor=#82b366;fillColor=#d5e8d4;align=left;verticalAlign=top;spacingLeft=4;spacingRight=4;overflow=hidden;rotatable=0;points=[[0,0.5],[1,0.5]];portConstraint=eastwest;whiteSpace=wrap;html=1;" parent="hY3oV-c14LFieW8W5GVs-28" vertex="1">
          <mxGeometry y="26" width="240" height="44" as="geometry" />
        </mxCell>
        <mxCell id="hY3oV-c14LFieW8W5GVs-30" value="" style="line;strokeWidth=1;fillColor=#d5e8d4;align=left;verticalAlign=middle;spacingTop=-1;spacingLeft=3;spacingRight=3;rotatable=0;labelPosition=right;points=[];portConstraint=eastwest;strokeColor=#82b366;" parent="hY3oV-c14LFieW8W5GVs-28" vertex="1">
          <mxGeometry y="70" width="240" height="8" as="geometry" />
        </mxCell>
        <mxCell id="hY3oV-c14LFieW8W5GVs-31" value="&lt;div&gt;+ &amp;lt;&amp;lt;override&amp;gt;&amp;gt; OnHIt(): void&lt;/div&gt;&lt;div&gt;+ &amp;lt;&amp;lt;override&amp;gt;&amp;gt; GetType(): ObjectType&lt;/div&gt;" style="text;strokeColor=#82b366;fillColor=#d5e8d4;align=left;verticalAlign=top;spacingLeft=4;spacingRight=4;overflow=hidden;rotatable=0;points=[[0,0.5],[1,0.5]];portConstraint=eastwest;whiteSpace=wrap;html=1;" parent="hY3oV-c14LFieW8W5GVs-28" vertex="1">
          <mxGeometry y="78" width="240" height="42" as="geometry" />
        </mxCell>
        <mxCell id="hY3oV-c14LFieW8W5GVs-32" value="SuperMushroom" style="swimlane;fontStyle=1;align=center;verticalAlign=top;childLayout=stackLayout;horizontal=1;startSize=26;horizontalStack=0;resizeParent=1;resizeParentMax=0;resizeLast=0;collapsible=1;marginBottom=0;whiteSpace=wrap;html=1;fillColor=#d5e8d4;strokeColor=#82b366;" parent="1" vertex="1">
          <mxGeometry x="4590" y="1480" width="240" height="170" as="geometry" />
        </mxCell>
        <mxCell id="hY3oV-c14LFieW8W5GVs-33" value="- is_used_: bool&amp;nbsp;" style="text;strokeColor=#82b366;fillColor=#d5e8d4;align=left;verticalAlign=top;spacingLeft=4;spacingRight=4;overflow=hidden;rotatable=0;points=[[0,0.5],[1,0.5]];portConstraint=eastwest;whiteSpace=wrap;html=1;" parent="hY3oV-c14LFieW8W5GVs-32" vertex="1">
          <mxGeometry y="26" width="240" height="44" as="geometry" />
        </mxCell>
        <mxCell id="hY3oV-c14LFieW8W5GVs-34" value="" style="line;strokeWidth=1;fillColor=#d5e8d4;align=left;verticalAlign=middle;spacingTop=-1;spacingLeft=3;spacingRight=3;rotatable=0;labelPosition=right;points=[];portConstraint=eastwest;strokeColor=#82b366;" parent="hY3oV-c14LFieW8W5GVs-32" vertex="1">
          <mxGeometry y="70" width="240" height="8" as="geometry" />
        </mxCell>
        <mxCell id="hY3oV-c14LFieW8W5GVs-35" value="&lt;div&gt;+ &amp;lt;&amp;lt;override&amp;gt;&amp;gt; OnHIt(): void&lt;/div&gt;&lt;div&gt;+ &amp;lt;&amp;lt;override&amp;gt;&amp;gt; GetType(): ObjectType&lt;/div&gt;&lt;div&gt;+ &amp;lt;&amp;lt;override&amp;gt;&amp;gt; Draw(): void&lt;/div&gt;&lt;div&gt;+ &amp;lt;&amp;lt;override&amp;gt;&amp;gt; Update(): void&lt;/div&gt;&lt;div&gt;+ &amp;lt;&amp;lt;override&amp;gt;&amp;gt; stopY(Ny: float): void&lt;/div&gt;" style="text;strokeColor=#82b366;fillColor=#d5e8d4;align=left;verticalAlign=top;spacingLeft=4;spacingRight=4;overflow=hidden;rotatable=0;points=[[0,0.5],[1,0.5]];portConstraint=eastwest;whiteSpace=wrap;html=1;" parent="hY3oV-c14LFieW8W5GVs-32" vertex="1">
          <mxGeometry y="78" width="240" height="92" as="geometry" />
        </mxCell>
        <mxCell id="hY3oV-c14LFieW8W5GVs-37" value="SuperStar" style="swimlane;fontStyle=1;align=center;verticalAlign=top;childLayout=stackLayout;horizontal=1;startSize=26;horizontalStack=0;resizeParent=1;resizeParentMax=0;resizeLast=0;collapsible=1;marginBottom=0;whiteSpace=wrap;html=1;fillColor=#d5e8d4;strokeColor=#82b366;" parent="1" vertex="1">
          <mxGeometry x="4860" y="1480" width="240" height="140" as="geometry" />
        </mxCell>
        <mxCell id="hY3oV-c14LFieW8W5GVs-38" value="- color_set_: vector&amp;lt;Color&amp;gt;" style="text;strokeColor=#82b366;fillColor=#d5e8d4;align=left;verticalAlign=top;spacingLeft=4;spacingRight=4;overflow=hidden;rotatable=0;points=[[0,0.5],[1,0.5]];portConstraint=eastwest;whiteSpace=wrap;html=1;" parent="hY3oV-c14LFieW8W5GVs-37" vertex="1">
          <mxGeometry y="26" width="240" height="44" as="geometry" />
        </mxCell>
        <mxCell id="hY3oV-c14LFieW8W5GVs-39" value="" style="line;strokeWidth=1;fillColor=#d5e8d4;align=left;verticalAlign=middle;spacingTop=-1;spacingLeft=3;spacingRight=3;rotatable=0;labelPosition=right;points=[];portConstraint=eastwest;strokeColor=#82b366;" parent="hY3oV-c14LFieW8W5GVs-37" vertex="1">
          <mxGeometry y="70" width="240" height="8" as="geometry" />
        </mxCell>
        <mxCell id="hY3oV-c14LFieW8W5GVs-40" value="&lt;div&gt;+ &amp;lt;&amp;lt;override&amp;gt;&amp;gt; OnHIt(): void&lt;/div&gt;&lt;div&gt;+ &amp;lt;&amp;lt;override&amp;gt;&amp;gt; GetType(): ObjectType&lt;/div&gt;&lt;div&gt;+ &amp;lt;&amp;lt;override&amp;gt;&amp;gt; Draw(): void&lt;/div&gt;" style="text;strokeColor=#82b366;fillColor=#d5e8d4;align=left;verticalAlign=top;spacingLeft=4;spacingRight=4;overflow=hidden;rotatable=0;points=[[0,0.5],[1,0.5]];portConstraint=eastwest;whiteSpace=wrap;html=1;" parent="hY3oV-c14LFieW8W5GVs-37" vertex="1">
          <mxGeometry y="78" width="240" height="62" as="geometry" />
        </mxCell>
        <mxCell id="hY3oV-c14LFieW8W5GVs-51" style="edgeStyle=orthogonalEdgeStyle;rounded=0;orthogonalLoop=1;jettySize=auto;html=1;entryX=0.5;entryY=1;entryDx=0;entryDy=0;endArrow=block;endFill=0;dashed=1;" parent="1" source="hY3oV-c14LFieW8W5GVs-41" target="Q99kiR7ui4vJTKgvzofk-53" edge="1">
          <mxGeometry relative="1" as="geometry" />
        </mxCell>
        <mxCell id="hY3oV-c14LFieW8W5GVs-41" value="" style="shape=waypoint;sketch=0;fillStyle=solid;size=6;pointerEvents=1;points=[];fillColor=none;resizable=0;rotatable=0;perimeter=centerPerimeter;snapToPoint=1;" parent="1" vertex="1">
          <mxGeometry x="4070" y="1320" width="20" height="20" as="geometry" />
        </mxCell>
        <mxCell id="hY3oV-c14LFieW8W5GVs-42" style="edgeStyle=orthogonalEdgeStyle;rounded=0;orthogonalLoop=1;jettySize=auto;html=1;entryX=0.705;entryY=0.582;entryDx=0;entryDy=0;entryPerimeter=0;dashed=1;endArrow=none;endFill=0;" parent="1" source="hY3oV-c14LFieW8W5GVs-8" target="hY3oV-c14LFieW8W5GVs-41" edge="1">
          <mxGeometry relative="1" as="geometry">
            <Array as="points">
              <mxPoint x="3145" y="1360" />
              <mxPoint x="4080" y="1360" />
            </Array>
          </mxGeometry>
        </mxCell>
        <mxCell id="hY3oV-c14LFieW8W5GVs-44" style="edgeStyle=orthogonalEdgeStyle;rounded=0;orthogonalLoop=1;jettySize=auto;html=1;entryX=1.141;entryY=0.945;entryDx=0;entryDy=0;entryPerimeter=0;dashed=1;endArrow=none;endFill=0;" parent="1" source="hY3oV-c14LFieW8W5GVs-12" target="hY3oV-c14LFieW8W5GVs-41" edge="1">
          <mxGeometry relative="1" as="geometry">
            <Array as="points">
              <mxPoint x="3405" y="1360" />
              <mxPoint x="4080" y="1360" />
            </Array>
          </mxGeometry>
        </mxCell>
        <mxCell id="hY3oV-c14LFieW8W5GVs-45" style="edgeStyle=orthogonalEdgeStyle;rounded=0;orthogonalLoop=1;jettySize=auto;html=1;entryX=1.068;entryY=1.091;entryDx=0;entryDy=0;entryPerimeter=0;dashed=1;endArrow=none;endFill=0;" parent="1" source="hY3oV-c14LFieW8W5GVs-16" target="hY3oV-c14LFieW8W5GVs-41" edge="1">
          <mxGeometry relative="1" as="geometry">
            <Array as="points">
              <mxPoint x="3655" y="1360" />
              <mxPoint x="4080" y="1360" />
            </Array>
          </mxGeometry>
        </mxCell>
        <mxCell id="hY3oV-c14LFieW8W5GVs-46" style="edgeStyle=orthogonalEdgeStyle;rounded=0;orthogonalLoop=1;jettySize=auto;html=1;entryX=0.705;entryY=0.582;entryDx=0;entryDy=0;entryPerimeter=0;dashed=1;endArrow=none;endFill=0;" parent="1" source="hY3oV-c14LFieW8W5GVs-20" target="hY3oV-c14LFieW8W5GVs-41" edge="1">
          <mxGeometry relative="1" as="geometry">
            <Array as="points">
              <mxPoint x="3860" y="1360" />
              <mxPoint x="4080" y="1360" />
            </Array>
          </mxGeometry>
        </mxCell>
        <mxCell id="hY3oV-c14LFieW8W5GVs-47" style="edgeStyle=orthogonalEdgeStyle;rounded=0;orthogonalLoop=1;jettySize=auto;html=1;entryX=0.341;entryY=0.291;entryDx=0;entryDy=0;entryPerimeter=0;endArrow=none;endFill=0;dashed=1;" parent="1" source="hY3oV-c14LFieW8W5GVs-24" target="hY3oV-c14LFieW8W5GVs-41" edge="1">
          <mxGeometry relative="1" as="geometry">
            <Array as="points">
              <mxPoint x="4190" y="1360" />
              <mxPoint x="4080" y="1360" />
            </Array>
          </mxGeometry>
        </mxCell>
        <mxCell id="hY3oV-c14LFieW8W5GVs-48" style="edgeStyle=orthogonalEdgeStyle;rounded=0;orthogonalLoop=1;jettySize=auto;html=1;entryX=0.195;entryY=0.364;entryDx=0;entryDy=0;entryPerimeter=0;endArrow=none;endFill=0;dashed=1;" parent="1" source="hY3oV-c14LFieW8W5GVs-28" target="hY3oV-c14LFieW8W5GVs-41" edge="1">
          <mxGeometry relative="1" as="geometry">
            <Array as="points">
              <mxPoint x="4450" y="1360" />
              <mxPoint x="4080" y="1360" />
            </Array>
          </mxGeometry>
        </mxCell>
        <mxCell id="hY3oV-c14LFieW8W5GVs-49" style="edgeStyle=orthogonalEdgeStyle;rounded=0;orthogonalLoop=1;jettySize=auto;html=1;entryX=0.341;entryY=0.145;entryDx=0;entryDy=0;entryPerimeter=0;endArrow=none;endFill=0;dashed=1;" parent="1" source="hY3oV-c14LFieW8W5GVs-32" target="hY3oV-c14LFieW8W5GVs-41" edge="1">
          <mxGeometry relative="1" as="geometry">
            <Array as="points">
              <mxPoint x="4710" y="1360" />
              <mxPoint x="4080" y="1360" />
            </Array>
          </mxGeometry>
        </mxCell>
        <mxCell id="hY3oV-c14LFieW8W5GVs-50" style="edgeStyle=orthogonalEdgeStyle;rounded=0;orthogonalLoop=1;jettySize=auto;html=1;entryX=0.995;entryY=0.727;entryDx=0;entryDy=0;entryPerimeter=0;endArrow=none;endFill=0;dashed=1;" parent="1" source="hY3oV-c14LFieW8W5GVs-37" target="hY3oV-c14LFieW8W5GVs-41" edge="1">
          <mxGeometry relative="1" as="geometry">
            <Array as="points">
              <mxPoint x="4980" y="1360" />
              <mxPoint x="4080" y="1360" />
            </Array>
          </mxGeometry>
        </mxCell>
        <mxCell id="hY3oV-c14LFieW8W5GVs-55" style="edgeStyle=orthogonalEdgeStyle;rounded=0;orthogonalLoop=1;jettySize=auto;html=1;exitX=0;exitY=0.25;exitDx=0;exitDy=0;entryX=1;entryY=0.25;entryDx=0;entryDy=0;endArrow=none;endFill=0;startArrow=open;startFill=0;" parent="1" source="Q99kiR7ui4vJTKgvzofk-48" target="idwGcyg0NZIY-Tr2IAWl-29" edge="1">
          <mxGeometry relative="1" as="geometry">
            <Array as="points">
              <mxPoint x="5760" y="-360" />
              <mxPoint x="3040" y="-360" />
            </Array>
          </mxGeometry>
        </mxCell>
        <mxCell id="hY3oV-c14LFieW8W5GVs-56" style="edgeStyle=orthogonalEdgeStyle;rounded=0;orthogonalLoop=1;jettySize=auto;html=1;entryX=0.75;entryY=1;entryDx=0;entryDy=0;endArrow=none;endFill=0;" parent="1" source="hY3oV-c14LFieW8W5GVs-2" target="idwGcyg0NZIY-Tr2IAWl-37" edge="1">
          <mxGeometry relative="1" as="geometry">
            <Array as="points">
              <mxPoint x="3368" y="890" />
            </Array>
          </mxGeometry>
        </mxCell>
        <mxCell id="hY3oV-c14LFieW8W5GVs-69" style="edgeStyle=orthogonalEdgeStyle;rounded=0;orthogonalLoop=1;jettySize=auto;html=1;entryX=0.5;entryY=1;entryDx=0;entryDy=0;dashed=1;endArrow=block;endFill=0;" parent="1" source="hY3oV-c14LFieW8W5GVs-57" target="8gXxlpxFFR-SjeP47l6D-1" edge="1">
          <mxGeometry relative="1" as="geometry" />
        </mxCell>
        <mxCell id="hY3oV-c14LFieW8W5GVs-57" value="" style="shape=waypoint;sketch=0;fillStyle=solid;size=6;pointerEvents=1;points=[];fillColor=none;resizable=0;rotatable=0;perimeter=centerPerimeter;snapToPoint=1;" parent="1" vertex="1">
          <mxGeometry x="1100" y="280" width="20" height="20" as="geometry" />
        </mxCell>
        <mxCell id="hY3oV-c14LFieW8W5GVs-58" style="edgeStyle=orthogonalEdgeStyle;rounded=0;orthogonalLoop=1;jettySize=auto;html=1;entryX=1;entryY=1.5;entryDx=0;entryDy=0;entryPerimeter=0;endArrow=none;endFill=0;dashed=1;" parent="1" source="8gXxlpxFFR-SjeP47l6D-2" target="hY3oV-c14LFieW8W5GVs-57" edge="1">
          <mxGeometry relative="1" as="geometry">
            <Array as="points">
              <mxPoint x="100" y="290" />
            </Array>
          </mxGeometry>
        </mxCell>
        <mxCell id="hY3oV-c14LFieW8W5GVs-59" style="edgeStyle=orthogonalEdgeStyle;rounded=0;orthogonalLoop=1;jettySize=auto;html=1;entryX=0.3;entryY=0.983;entryDx=0;entryDy=0;entryPerimeter=0;endArrow=none;endFill=0;dashed=1;" parent="1" source="8gXxlpxFFR-SjeP47l6D-5" target="hY3oV-c14LFieW8W5GVs-57" edge="1">
          <mxGeometry relative="1" as="geometry">
            <Array as="points">
              <mxPoint x="330" y="290" />
            </Array>
          </mxGeometry>
        </mxCell>
        <mxCell id="hY3oV-c14LFieW8W5GVs-60" style="edgeStyle=orthogonalEdgeStyle;rounded=0;orthogonalLoop=1;jettySize=auto;html=1;entryX=0.367;entryY=1.183;entryDx=0;entryDy=0;entryPerimeter=0;endArrow=none;endFill=0;dashed=1;" parent="1" source="8gXxlpxFFR-SjeP47l6D-11" target="hY3oV-c14LFieW8W5GVs-57" edge="1">
          <mxGeometry relative="1" as="geometry">
            <Array as="points">
              <mxPoint x="520" y="290" />
            </Array>
          </mxGeometry>
        </mxCell>
        <mxCell id="hY3oV-c14LFieW8W5GVs-61" style="edgeStyle=orthogonalEdgeStyle;rounded=0;orthogonalLoop=1;jettySize=auto;html=1;entryX=0.367;entryY=0.783;entryDx=0;entryDy=0;entryPerimeter=0;endArrow=none;endFill=0;dashed=1;" parent="1" source="8gXxlpxFFR-SjeP47l6D-14" target="hY3oV-c14LFieW8W5GVs-57" edge="1">
          <mxGeometry relative="1" as="geometry">
            <Array as="points">
              <mxPoint x="710" y="290" />
            </Array>
          </mxGeometry>
        </mxCell>
        <mxCell id="hY3oV-c14LFieW8W5GVs-64" style="edgeStyle=orthogonalEdgeStyle;rounded=0;orthogonalLoop=1;jettySize=auto;html=1;entryX=0.692;entryY=0.428;entryDx=0;entryDy=0;entryPerimeter=0;dashed=1;endArrow=none;endFill=0;" parent="1" source="8gXxlpxFFR-SjeP47l6D-16" target="hY3oV-c14LFieW8W5GVs-57" edge="1">
          <mxGeometry relative="1" as="geometry">
            <Array as="points">
              <mxPoint x="1410" y="290" />
            </Array>
          </mxGeometry>
        </mxCell>
        <mxCell id="hY3oV-c14LFieW8W5GVs-65" style="edgeStyle=orthogonalEdgeStyle;rounded=0;orthogonalLoop=1;jettySize=auto;html=1;entryX=1.076;entryY=0.14;entryDx=0;entryDy=0;entryPerimeter=0;endArrow=none;endFill=0;dashed=1;" parent="1" source="8gXxlpxFFR-SjeP47l6D-8" target="hY3oV-c14LFieW8W5GVs-57" edge="1">
          <mxGeometry relative="1" as="geometry">
            <Array as="points">
              <mxPoint x="1750" y="290" />
            </Array>
          </mxGeometry>
        </mxCell>
        <mxCell id="hY3oV-c14LFieW8W5GVs-67" style="edgeStyle=orthogonalEdgeStyle;rounded=0;orthogonalLoop=1;jettySize=auto;html=1;entryX=0.544;entryY=0.856;entryDx=0;entryDy=0;entryPerimeter=0;endArrow=none;endFill=0;dashed=1;" parent="1" source="8gXxlpxFFR-SjeP47l6D-18" target="hY3oV-c14LFieW8W5GVs-57" edge="1">
          <mxGeometry relative="1" as="geometry">
            <Array as="points">
              <mxPoint x="2070" y="290" />
            </Array>
          </mxGeometry>
        </mxCell>
        <mxCell id="hY3oV-c14LFieW8W5GVs-68" style="edgeStyle=orthogonalEdgeStyle;rounded=0;orthogonalLoop=1;jettySize=auto;html=1;entryX=0.5;entryY=1;entryDx=0;entryDy=0;entryPerimeter=0;endArrow=none;endFill=0;" parent="1" source="8gXxlpxFFR-SjeP47l6D-21" target="hY3oV-c14LFieW8W5GVs-57" edge="1">
          <mxGeometry relative="1" as="geometry">
            <Array as="points">
              <mxPoint x="2370" y="290" />
            </Array>
          </mxGeometry>
        </mxCell>
        <mxCell id="hY3oV-c14LFieW8W5GVs-71" value="Goomba" style="swimlane;fontStyle=1;align=center;verticalAlign=top;childLayout=stackLayout;horizontal=1;startSize=26;horizontalStack=0;resizeParent=1;resizeParentMax=0;resizeLast=0;collapsible=1;marginBottom=0;whiteSpace=wrap;html=1;fillColor=#e1d5e7;strokeColor=#9673a6;" parent="1" vertex="1">
          <mxGeometry x="3740" y="490" width="190" height="210" as="geometry" />
        </mxCell>
        <mxCell id="hY3oV-c14LFieW8W5GVs-72" value="&amp;nbsp;" style="text;strokeColor=#9673a6;fillColor=#e1d5e7;align=left;verticalAlign=top;spacingLeft=4;spacingRight=4;overflow=hidden;rotatable=0;points=[[0,0.5],[1,0.5]];portConstraint=eastwest;whiteSpace=wrap;html=1;" parent="hY3oV-c14LFieW8W5GVs-71" vertex="1">
          <mxGeometry y="26" width="190" height="26" as="geometry" />
        </mxCell>
        <mxCell id="hY3oV-c14LFieW8W5GVs-73" value="" style="line;strokeWidth=1;fillColor=#e1d5e7;align=left;verticalAlign=middle;spacingTop=-1;spacingLeft=3;spacingRight=3;rotatable=0;labelPosition=right;points=[];portConstraint=eastwest;strokeColor=#9673a6;" parent="hY3oV-c14LFieW8W5GVs-71" vertex="1">
          <mxGeometry y="52" width="190" height="8" as="geometry" />
        </mxCell>
        <mxCell id="hY3oV-c14LFieW8W5GVs-74" value="&lt;div&gt;+ &amp;lt;&amp;lt;override&amp;gt;&amp;gt; OnHit(): void&lt;/div&gt;&lt;div&gt;+ &amp;lt;&amp;lt;override&amp;gt;&amp;gt; OnHitAbove(): void&lt;/div&gt;&lt;div&gt;+ &amp;lt;&amp;lt;override&amp;gt;&amp;gt; OnHitFromSide(): void&lt;/div&gt;&lt;div&gt;+ &amp;lt;&amp;lt;override&amp;gt;&amp;gt; Update(): void&lt;/div&gt;&lt;div&gt;+ &amp;lt;&amp;lt;override&amp;gt;&amp;gt; GetType(): EnemyType&lt;/div&gt;&lt;div&gt;+ &amp;lt;&amp;lt;override&amp;gt;&amp;gt; Clone(): Enemy&lt;/div&gt;" style="text;strokeColor=#9673a6;fillColor=#e1d5e7;align=left;verticalAlign=top;spacingLeft=4;spacingRight=4;overflow=hidden;rotatable=0;points=[[0,0.5],[1,0.5]];portConstraint=eastwest;whiteSpace=wrap;html=1;" parent="hY3oV-c14LFieW8W5GVs-71" vertex="1">
          <mxGeometry y="60" width="190" height="150" as="geometry" />
        </mxCell>
        <mxCell id="hY3oV-c14LFieW8W5GVs-75" value="&lt;div&gt;&amp;lt;&amp;lt;enumeration&amp;gt;&amp;gt;&lt;/div&gt;&lt;div&gt;&lt;b&gt;ObjectType&lt;/b&gt;&lt;/div&gt;" style="swimlane;fontStyle=0;childLayout=stackLayout;horizontal=1;startSize=40;fillColor=#d5e8d4;horizontalStack=0;resizeParent=1;resizeParentMax=0;resizeLast=0;collapsible=1;marginBottom=0;whiteSpace=wrap;html=1;strokeColor=#82b366;" parent="1" vertex="1">
          <mxGeometry x="3590" y="950" width="140" height="248" as="geometry" />
        </mxCell>
        <mxCell id="hY3oV-c14LFieW8W5GVs-76" value="SuperMushroom&lt;span style=&quot;white-space: pre;&quot;&gt;&#x9;&lt;/span&gt;" style="text;strokeColor=#82b366;fillColor=#d5e8d4;align=left;verticalAlign=top;spacingLeft=4;spacingRight=4;overflow=hidden;rotatable=0;points=[[0,0.5],[1,0.5]];portConstraint=eastwest;whiteSpace=wrap;html=1;" parent="hY3oV-c14LFieW8W5GVs-75" vertex="1">
          <mxGeometry y="40" width="140" height="26" as="geometry" />
        </mxCell>
        <mxCell id="hY3oV-c14LFieW8W5GVs-77" value="Coin" style="text;strokeColor=#82b366;fillColor=#d5e8d4;align=left;verticalAlign=top;spacingLeft=4;spacingRight=4;overflow=hidden;rotatable=0;points=[[0,0.5],[1,0.5]];portConstraint=eastwest;whiteSpace=wrap;html=1;" parent="hY3oV-c14LFieW8W5GVs-75" vertex="1">
          <mxGeometry y="66" width="140" height="26" as="geometry" />
        </mxCell>
        <mxCell id="hY3oV-c14LFieW8W5GVs-78" value="SuperStar" style="text;strokeColor=#82b366;fillColor=#d5e8d4;align=left;verticalAlign=top;spacingLeft=4;spacingRight=4;overflow=hidden;rotatable=0;points=[[0,0.5],[1,0.5]];portConstraint=eastwest;whiteSpace=wrap;html=1;" parent="hY3oV-c14LFieW8W5GVs-75" vertex="1">
          <mxGeometry y="92" width="140" height="26" as="geometry" />
        </mxCell>
        <mxCell id="hY3oV-c14LFieW8W5GVs-79" value="FireFlower" style="text;strokeColor=#82b366;fillColor=#d5e8d4;align=left;verticalAlign=top;spacingLeft=4;spacingRight=4;overflow=hidden;rotatable=0;points=[[0,0.5],[1,0.5]];portConstraint=eastwest;whiteSpace=wrap;html=1;" parent="hY3oV-c14LFieW8W5GVs-75" vertex="1">
          <mxGeometry y="118" width="140" height="26" as="geometry" />
        </mxCell>
        <mxCell id="hY3oV-c14LFieW8W5GVs-80" value="Block" style="text;strokeColor=#82b366;fillColor=#d5e8d4;align=left;verticalAlign=top;spacingLeft=4;spacingRight=4;overflow=hidden;rotatable=0;points=[[0,0.5],[1,0.5]];portConstraint=eastwest;whiteSpace=wrap;html=1;" parent="hY3oV-c14LFieW8W5GVs-75" vertex="1">
          <mxGeometry y="144" width="140" height="26" as="geometry" />
        </mxCell>
        <mxCell id="hY3oV-c14LFieW8W5GVs-81" value="BrickBlock" style="text;strokeColor=#82b366;fillColor=#d5e8d4;align=left;verticalAlign=top;spacingLeft=4;spacingRight=4;overflow=hidden;rotatable=0;points=[[0,0.5],[1,0.5]];portConstraint=eastwest;whiteSpace=wrap;html=1;" parent="hY3oV-c14LFieW8W5GVs-75" vertex="1">
          <mxGeometry y="170" width="140" height="26" as="geometry" />
        </mxCell>
        <mxCell id="NF2B5_bEf9YZ8RytGJPc-2" value="PipeBlock" style="text;strokeColor=#82b366;fillColor=#d5e8d4;align=left;verticalAlign=top;spacingLeft=4;spacingRight=4;overflow=hidden;rotatable=0;points=[[0,0.5],[1,0.5]];portConstraint=eastwest;whiteSpace=wrap;html=1;" vertex="1" parent="hY3oV-c14LFieW8W5GVs-75">
          <mxGeometry y="196" width="140" height="26" as="geometry" />
        </mxCell>
        <mxCell id="NF2B5_bEf9YZ8RytGJPc-1" value="StaticBlock" style="text;strokeColor=#82b366;fillColor=#d5e8d4;align=left;verticalAlign=top;spacingLeft=4;spacingRight=4;overflow=hidden;rotatable=0;points=[[0,0.5],[1,0.5]];portConstraint=eastwest;whiteSpace=wrap;html=1;" vertex="1" parent="hY3oV-c14LFieW8W5GVs-75">
          <mxGeometry y="222" width="140" height="26" as="geometry" />
        </mxCell>
        <mxCell id="hY3oV-c14LFieW8W5GVs-84" value="1...*" style="edgeLabel;html=1;align=center;verticalAlign=middle;resizable=0;points=[];" parent="1" vertex="1" connectable="0">
          <mxGeometry x="4920" y="1120" as="geometry" />
        </mxCell>
        <mxCell id="Efq3Ke8sFT8ntJLiWmVz-5" style="edgeStyle=orthogonalEdgeStyle;rounded=0;orthogonalLoop=1;jettySize=auto;html=1;entryX=0;entryY=0.5;entryDx=0;entryDy=0;endArrow=none;endFill=0;startArrow=open;startFill=0;" parent="1" source="Efq3Ke8sFT8ntJLiWmVz-1" target="8gXxlpxFFR-SjeP47l6D-2" edge="1">
          <mxGeometry relative="1" as="geometry" />
        </mxCell>
        <mxCell id="Efq3Ke8sFT8ntJLiWmVz-1" value="GameInfo" style="swimlane;fontStyle=1;align=center;verticalAlign=top;childLayout=stackLayout;horizontal=1;startSize=26;horizontalStack=0;resizeParent=1;resizeParentMax=0;resizeLast=0;collapsible=1;marginBottom=0;whiteSpace=wrap;html=1;fillColor=#dae8fc;strokeColor=#6c8ebf;" parent="1" vertex="1">
          <mxGeometry x="-300" y="363" width="210" height="240" as="geometry" />
        </mxCell>
        <mxCell id="Efq3Ke8sFT8ntJLiWmVz-2" value="&lt;div&gt;- levelStartPoints: map&amp;lt;int, int&amp;gt;&lt;/div&gt;&lt;div&gt;- levelCompletionTime: map&amp;lt;int, int&amp;gt;&lt;/div&gt;" style="text;strokeColor=#6c8ebf;fillColor=#dae8fc;align=left;verticalAlign=top;spacingLeft=4;spacingRight=4;overflow=hidden;rotatable=0;points=[[0,0.5],[1,0.5]];portConstraint=eastwest;whiteSpace=wrap;html=1;" parent="Efq3Ke8sFT8ntJLiWmVz-1" vertex="1">
          <mxGeometry y="26" width="210" height="44" as="geometry" />
        </mxCell>
        <mxCell id="Efq3Ke8sFT8ntJLiWmVz-3" value="" style="line;strokeWidth=1;fillColor=#dae8fc;align=left;verticalAlign=middle;spacingTop=-1;spacingLeft=3;spacingRight=3;rotatable=0;labelPosition=right;points=[];portConstraint=eastwest;strokeColor=#6c8ebf;" parent="Efq3Ke8sFT8ntJLiWmVz-1" vertex="1">
          <mxGeometry y="70" width="210" height="8" as="geometry" />
        </mxCell>
        <mxCell id="Efq3Ke8sFT8ntJLiWmVz-4" value="&lt;div&gt;&lt;u&gt;+ GetInstance(): GameInfo&lt;/u&gt;&lt;/div&gt;&lt;div&gt;+ Reset(): void&lt;/div&gt;&lt;div&gt;+ SaveToFile(): void&lt;/div&gt;&lt;div&gt;+ SetInitialPointsForLevel(level: int, points: int)&lt;/div&gt;&lt;div&gt;+ GetIntialPointsForLevel(level: int): void&lt;/div&gt;&lt;div&gt;+ HasInitialPointsForLevel(): bool&lt;/div&gt;&lt;div&gt;+ GetLevelCompletionTime(): int&lt;/div&gt;&lt;div&gt;+ HasCompletedLevel(): bool&lt;/div&gt;" style="text;strokeColor=#6c8ebf;fillColor=#dae8fc;align=left;verticalAlign=top;spacingLeft=4;spacingRight=4;overflow=hidden;rotatable=0;points=[[0,0.5],[1,0.5]];portConstraint=eastwest;whiteSpace=wrap;html=1;" parent="Efq3Ke8sFT8ntJLiWmVz-1" vertex="1">
          <mxGeometry y="78" width="210" height="162" as="geometry" />
        </mxCell>
      </root>
    </mxGraphModel>
  </diagram>
</mxfile>
